<svg xmlns="http://www.w3.org/2000/svg" viewBox="0 0 445.66 522.93"><defs><style>.cls-1{fill:#fff;}</style></defs><title>logo_without_text</title><g id="Calque_2" data-name="Calque 2"><g id="Calque_1-2" data-name="Calque 1"><path class="cls-1" d="M228.89,517.12a14.68,14.68,0,0,1-14.67-14.67V254a15.28,15.28,0,0,1,7.44-13.07L418.12,124a14.69,14.69,0,0,1,22.2,12.62V379.11L237,514.65A14.64,14.64,0,0,1,228.89,517.12Zm2.55-262V497.68L423.11,369.9V141.1Z"/><path class="cls-1" d="M228.89,522.45a20,20,0,0,1-20-20V254a20.64,20.64,0,0,1,10-17.65L415.4,119.46a20,20,0,0,1,30.26,17.2V382L240,519.09A19.89,19.89,0,0,1,228.89,522.45ZM425.64,127.31a9.32,9.32,0,0,0-4.79,1.32L224.38,245.51a9.92,9.92,0,0,0-4.82,8.48V502.45a9.31,9.31,0,0,0,4.92,8.23,9.46,9.46,0,0,0,9.57-.47L435,376.26V136.66a9.35,9.35,0,0,0-9.35-9.35ZM226.1,507.65V252.1L428.45,131.72v241Zm10.67-249.48V487.72L417.78,367V150.49Z"/><path class="cls-1" d="M216.77,517.6a14.64,14.64,0,0,1-8.13-2.47L5.34,379.59V137.11A14.66,14.66,0,0,1,27.5,124.5L224,241.4a15.28,15.28,0,0,1,7.44,13.07V502.93a14.68,14.68,0,0,1-14.67,14.67ZM22.55,370.38,214.22,498.16V255.61l-191.67-114Z"/><path class="cls-1" d="M216.77,522.93a19.94,19.94,0,0,1-11.09-3.36L0,382.45V137.11a20,20,0,0,1,30.23-17.19l196.5,116.9a20.64,20.64,0,0,1,10,17.65V502.93a20,20,0,0,1-20,20ZM10.67,376.74l200.93,134a9.45,9.45,0,0,0,9.58.47,9.33,9.33,0,0,0,4.92-8.23V254.47a9.91,9.91,0,0,0-4.83-8.48L24.77,129.09a9.32,9.32,0,0,0-14.1,8ZM219.56,508.13,17.21,373.24v-241L219.56,252.58ZM27.88,367.53l181,120.67V258.65L27.88,151Z"/><path class="cls-1" d="M222.82,257.77a15.25,15.25,0,0,1-7.75-2.12L18.63,139.29a14.67,14.67,0,0,1,.55-25.47L216,7.13a14.71,14.71,0,0,1,14.06,0L426.39,113.3a14.69,14.69,0,0,1,.53,25.54L230.6,255.63A15.18,15.18,0,0,1,222.82,257.77Zm-191.49-131L222.82,240.23l191.47-113.9L223,22.89Z"/><path class="cls-1" d="M222.82,263.1a20.53,20.53,0,0,1-10.47-2.87L15.91,143.89a20,20,0,0,1,.73-34.76L213.44,2.44a20,20,0,0,1,19.14,0L428.93,108.61a20,20,0,0,1,.72,34.82L233.33,260.21A20.57,20.57,0,0,1,222.82,263.1ZM223,10.67a9.36,9.36,0,0,0-4.5,1.15L21.72,118.51a9.33,9.33,0,0,0-.34,16.21L217.79,251.05a10,10,0,0,0,10.08,0L424.19,134.26a9.35,9.35,0,0,0-.34-16.26L227.51,11.82A9.35,9.35,0,0,0,223,10.67Zm-.19,235.76L20.52,126.6,223,16.83,425.09,126.11ZM42.15,127,222.81,234,403.48,126.55,223,29Z"/><path class="cls-1" d="M224.88,200,88.49,120.87l36.71-18.18L183,136.23l9.61-66.93,42.15-20.86-8.08,63.43,147.73,14.07-39.15,19.38L222.07,133.74l-3.69,23,43.21,25.06Z"/><path class="cls-1" d="M92.83,380.61l-4-170.68,45.47,30.41,4,170.68Z"/><path class="cls-1" d="M274,432.52l-2.45-166.35,58.12-33q31.2-17.7,47.31-7.44t16.77,55.73q.63,42.88-14.68,71.49t-47,46.56Zm28.66-43.35,25-14.16a81,81,0,0,0,20.59-16.24q8.34-9.28,12.35-23.68t3.69-36.86q-.33-22.47-4.38-32.16t-12.29-9.43q-8.25.25-21.59,7.82l-25,14.16Z"/><path class="cls-1" d="M272.55,435.07l-2.49-169.76L329,231.9c21.22-12,37.66-14.53,48.86-7.39s17,25.84,17.46,57c.42,28.71-4.58,53-14.86,72.22s-26.3,35.11-47.54,47.16Zm.54-168L275.48,430l55.91-31.71c20.74-11.77,36.35-27.23,46.38-46s14.91-42.56,14.5-70.76c-.43-29.63-5.84-48-16.08-54.48s-25.58-4-45.76,7.47Zm28.13,124.69-1.68-114,25.74-14.6c9.2-5.21,16.48-7.83,22.29-8,6.15-.18,10.77,3.3,13.72,10.35,2.8,6.7,4.27,17.4,4.49,32.72.22,15.05-1,27.6-3.74,37.29s-7,17.94-12.68,24.27a83,83,0,0,1-21,16.54Zm1.35-112.24,1.57,107.13,22.77-12.92a80.26,80.26,0,0,0,20.22-15.93c5.37-6,9.41-13.75,12-23.08S363,313,362.78,298.25s-1.65-25.35-4.26-31.6c-2.46-5.87-6-8.67-10.86-8.51-5.23.16-12.26,2.72-20.9,7.62Z"/></g></g></svg>