<svg xmlns="http://www.w3.org/2000/svg" viewBox="0 0 651.7 342.76"><defs><style>.cls-1{fill:#fff;}</style></defs><title>logo_with_text_1</title><g id="Calque_2" data-name="Calque 2"><g id="Calque_1-2" data-name="Calque 1"><path class="cls-1" d="M358.4,204.66a8.16,8.16,0,0,0-1.54-.14q-3.76-21.4-7.55-35.81a172.73,172.73,0,0,0-9.51-27.13L336.86,147a11.23,11.23,0,0,0-1.4,4.2q-.42,4.2-.42,6.15,0,4.2.42,12.87t.42,13v11.47q0,7.41-4.75,7.41-4.06,0-4.06-7.83,0-6.15.84-18.88,1-11.76,1-18.75l.14-12V130.11a139.69,139.69,0,0,0-1-16.09,128.19,128.19,0,0,1-1-13.14,4.44,4.44,0,0,1,1.12-3.08,3.6,3.6,0,0,1,2.8-1.26q5.17,0,5.17,11.33l-.56,28.67,2.66-6.85q4.62-11.75,9.51-23.22a87.46,87.46,0,0,1,5-9.93q2.37-3.78,3.77-3.78a4,4,0,0,1,2.73,1,3.33,3.33,0,0,1,1.19,2.59q0,1.39-7.55,17.34Q345.53,129,344.28,134v2.52q2.09,5.33,11.18,34.06t9.1,30.42a3.54,3.54,0,0,1-1.33,2.8,4.73,4.73,0,0,1-3.15,1.12A5.19,5.19,0,0,1,358.4,204.66Z"/><path class="cls-1" d="M373.79,197.39c0-2.24,1.39-3.36,4.19-3.36h1.68a5.34,5.34,0,0,0,1.26.14,1.83,1.83,0,0,0,1.61-.7A4.69,4.69,0,0,0,383,191q0-11.88-1.4-32.45-1.26-21.39-1.26-32.31c0-2.61.05-5,.14-7.13l.14-7.13a58.65,58.65,0,0,0-.42-7.7,9.21,9.21,0,0,1-3.22.56q-3.21,0-3.21-3.35a3.54,3.54,0,0,1,2-2.94,14.61,14.61,0,0,1,5.25-1.82,62.38,62.38,0,0,1,9.93-1,4,4,0,0,1,2.87,1.12,3.54,3.54,0,0,1,1.19,2.66,4.08,4.08,0,0,1-.91,2.65,2.85,2.85,0,0,1-2.31,1.12,5.54,5.54,0,0,1-1.4-.14h-1.12a2.79,2.79,0,0,0-2,.63,3.26,3.26,0,0,0-.63,2.31q0,14.83,1.82,40.84,1.68,27.29,1.68,41v5.31a21.65,21.65,0,0,1,2.8-.14q5.87,0,5.87,4.9v.84l-3.49,2.37-.84.07c-.47.05-1.4.07-2.8.07q-4.76.28-5.88.28Q373.78,201.58,373.79,197.39Z"/><path class="cls-1" d="M415.26,200.74a3.9,3.9,0,0,1-2-3.49q3.07-3.08,3.08-16.37,0-8-1.26-23.22-1.41-14.53-1.4-22.94l.28-7.69q.13-3.36.14-7.69a45.75,45.75,0,0,0-1.4-9.93A40.66,40.66,0,0,1,411,100.6q0-4.91,10.77-4.9h2.1A20,20,0,0,1,437,100.32a30,30,0,0,1,7.55,11.33,67.59,67.59,0,0,1,3.64,14,122.24,122.24,0,0,1,.83,12.31V149a2.59,2.59,0,0,0-.27,1.12,7,7,0,0,0,.14,1.68,6.11,6.11,0,0,1,.13,1.4,52.79,52.79,0,0,1-1.32,10.7,81.72,81.72,0,0,1-3.85,12.66q-6.3,15.38-14.13,21.82a15.39,15.39,0,0,1-9.65,3.63A9,9,0,0,1,415.26,200.74Zm16.85-16.15a49.89,49.89,0,0,0,6-13.5,104.13,104.13,0,0,0,3.77-27.69,107.84,107.84,0,0,0-1.4-16.51,37.59,37.59,0,0,0-6.57-15.66,16.72,16.72,0,0,0-6-5.25,17.6,17.6,0,0,0-8.25-1.89v.14q0,12.58,1.68,38.05T423,180.6v13.29A29.32,29.32,0,0,0,432.11,184.59Z"/><path class="cls-1" d="M471,125.35a56.64,56.64,0,0,1,1.54-10.07,79.83,79.83,0,0,1,4.2-13.56c1.86-4.76,3.78-7.14,5.73-7.14,1.68,0,2.52,1,2.52,3.08a48.75,48.75,0,0,1-2,13.08,48.89,48.89,0,0,1-5.1,12.24q-3.23,4.89-5.74,4.89C471.37,127.69,471,126.85,471,125.35Z"/><path class="cls-1" d="M517.85,203.12a21.47,21.47,0,0,1-5.32-6.85q-4-7.56-6-20.7-1.39-9.09-2.1-21l-.14-7.42v-7.55q-.13-3.63-.14-8.81a137.82,137.82,0,0,1,.7-14.83,55.48,55.48,0,0,1,2.8-13.29q2.24-5.73,6.43-8.11a12.43,12.43,0,0,1,5-1.12,13.84,13.84,0,0,1,11.75,5.88A36.34,36.34,0,0,1,537.15,114a98.43,98.43,0,0,1,2.52,18.75q.55,9.93.56,18.74v8c0,1.59-.24,4.57-.7,9a84.86,84.86,0,0,0-.56,8.82v.56a44.43,44.43,0,0,0-.84,9.23,21.78,21.78,0,0,1-1.68,8.11,20,20,0,0,1-4.75,7.13,9.31,9.31,0,0,1-7,3.36A10.56,10.56,0,0,1,517.85,203.12Zm11.89-10.35a50.55,50.55,0,0,0,2.45-11.26q.76-6.64,1.32-15c.19-2.43.28-5.55.28-9.38l-.14-12.86q-.27-7.56-1.67-18.89a63.73,63.73,0,0,0-4.2-17.06,14.93,14.93,0,0,0-3.5-5.46,6.49,6.49,0,0,0-4.47-2c-2.33,0-4.06,1.81-5.18,5.45a52,52,0,0,0-2.8,12.59q-.82,7.41-1,14.13l-.14,4.61c-.1,1.31-.14,3.08-.14,5.32v.56a168.71,168.71,0,0,0,1.95,23.08q2.25,18.6,6.58,26.43Q521.9,198,525,198C526.85,198,528.43,196.22,529.74,192.77Z"/><path class="cls-1" d="M594.08,204a8,8,0,0,1-.84-4.06l-.14-20.7c-.09-1.77-.14-4.7-.14-8.81q-.29-13-.28-29.37v-7.13q-1.26,6.71-4.34,18.88-3.08,12.58-4.33,20.7v.84l-.42,2.66a26.84,26.84,0,0,1-1.4,6.29q-1.4,3.36-4.34,3.36-5,0-5-13.15a90,90,0,0,0-1.47-15.6q-1.47-8.31-4.69-20.49l-4.19-15.66-.28,16.78q0,7.56.7,28.82l.28,9.51.28,19.16a7.81,7.81,0,0,1-2.1,5.31q-3.5,0-4.83-2.16a12.42,12.42,0,0,1-1.33-6.37l.28-11.47q.42-7.55.42-11.33l-.28-27-.28-27.14q0-6,.28-18l3.78-2.24a3.58,3.58,0,0,1,2.24,1.61,24.64,24.64,0,0,1,2.52,4.68q3.5,8.69,9.09,34.69a58.81,58.81,0,0,1,1.12,6q1.68,8.12,2.37,12.31l2.1,10.77,1-4.62,2.66-11.47q2.24-10.06,3.71-17.62T589,115.56q1.55-10.49,2-17.48v-.84a4.28,4.28,0,0,1,1.68-2.87A5.43,5.43,0,0,1,596,93.32a2.91,2.91,0,0,1,2.23,1.12,3.54,3.54,0,0,1,1,2.38q0,16.79,1.26,50.21.71,16.36,1,32,.28,7.14.28,18.05a10.09,10.09,0,0,1-1.68,5.73q-1.68,2.52-3.77,2.52A2.53,2.53,0,0,1,594.08,204Z"/><path class="cls-1" d="M643.8,200.88a3.37,3.37,0,0,1-1-2.79V179.76q-1.82-1.26-6.85-2.23a72,72,0,0,0-9.51-1.26,23.37,23.37,0,0,0-2.24,7.13l-.56,2.8c-.09.65-.37,2.1-.84,4.33a49.3,49.3,0,0,1-1.54,5.81,20.65,20.65,0,0,1-1.68,3.84q-5.31,0-6.15-2.79,1.53-2.23,3.5-13.15l4.61-25.6q3.07-18.18,5.67-31a176.44,176.44,0,0,1,5.52-21.54q3.23-9.64,6.16-9.65a7.53,7.53,0,0,1,4.47,1.12q0,5.6,2.66,27,2.79,21,2.8,28.68a208.6,208.6,0,0,0,1.53,21.26q1.41,14.13,1.4,22.52,0,4.75-4.61,4.75A5.23,5.23,0,0,1,643.8,200.88Zm-1.19-29.65q-.42-6.15-1.4-15.25Q638,124.38,638,117.24v-1.12c-.94.93-2.22,5.16-3.85,12.66s-3.15,15.55-4.55,24.13A167.71,167.71,0,0,0,627.37,170a45,45,0,0,0,12.44,1.68A11.94,11.94,0,0,0,642.61,171.23Z"/><path class="cls-1" d="M334,250.81a8.12,8.12,0,0,1-2.44-1.09,7.35,7.35,0,0,1-1.7-1.55,9.61,9.61,0,0,1-1.19-1.85,12.25,12.25,0,0,1-1.11-3.56l-.15-1.31a2.08,2.08,0,0,0,0-.54,1,1,0,0,1,0-.17q-.37-2.06-.93-9.06t-.56-10.91v-.63a1,1,0,0,1,1.12-1.09c1,0,1.55.33,1.55,1v.3l-.07.33q0,4.88.52,11.52c.34,4.44.69,7.63,1,9.59a17.47,17.47,0,0,0,1.26,3.78,10.82,10.82,0,0,0,1.3,2.18,5.56,5.56,0,0,0,1.82,1.47,5.8,5.8,0,0,0,2.59.67,6.92,6.92,0,0,0,2.26-.34,3.81,3.81,0,0,0,2.37-2.07,4.75,4.75,0,0,0,.41-1.41,9.06,9.06,0,0,0,.07-1.39V239.9c0-2.12-.1-4.74-.29-7.84l-.3-5.38-.15-3.56c-.15-1.57-.22-2.76-.22-3.57a.79.79,0,0,1,.44-.71,2.05,2.05,0,0,1,1-.25,1.83,1.83,0,0,1,1,.25.79.79,0,0,1,.41.71v3.19c0,1.4,0,2.66.07,3.78v3.77c0,2.72.05,5.09.15,7.14s.07,4.39.07,7a11.16,11.16,0,0,1-.14,1.85,6.32,6.32,0,0,1-.6,1.68,4.87,4.87,0,0,1-1.22,1.7,6.38,6.38,0,0,1-2,1.15,9.86,9.86,0,0,1-3.11.46A11.66,11.66,0,0,1,334,250.81Z"/><path class="cls-1" d="M368.58,250.6a1.38,1.38,0,0,1-.59-.67l-.23-.8a2.55,2.55,0,0,1-.22-.63q-8.3-16.81-9.11-18.88c-.45-1-1.46-3.8-3-8.39a9.91,9.91,0,0,0-.08,1.72v15.19l.15,6,.15,6-.44.33h-1.71l-.22-.33a6,6,0,0,0,.15-1.68l-.08-7.3-.14-7.3v-9.49c-.05-1.17-.08-2.49-.08-3.94a1.35,1.35,0,0,0-.07-.46v-.42a.68.68,0,0,1,.48-.69,4.38,4.38,0,0,1,1.52-.19,2.44,2.44,0,0,1,1,.25,1.44,1.44,0,0,1,.7.54l1.56,4.12a41.25,41.25,0,0,0,1.78,4.44q1.54,3.5,5.33,11.42a57.75,57.75,0,0,0,3.86,8,3.61,3.61,0,0,0,.44-2q0-4.08.15-7.3l.15-7.31c0-1.2,0-2.29.07-3.27v-3.23l-.07-5.92c.24-.39.76-.58,1.55-.58.4,0,.6.4.6,1.21a4.06,4.06,0,0,1-.08.88,1.92,1.92,0,0,1,0,.49,1.29,1.29,0,0,0,0,.19v2.68q0,5.58-.08,10t-.07,9.9c0,.7-.08,1.8-.22,3.31l-.15,3.32c0,.81-.64,1.22-1.93,1.22A1.7,1.7,0,0,1,368.58,250.6Z"/><path class="cls-1" d="M392.73,253.71c0-.28.65-.62,1.78-1l.89-.38q3.25-1.8,3.26-6.42a56.19,56.19,0,0,0-.37-6.21q-.37-4.49-.37-5.66l-.44-6.51q-.37-5.53-.37-7.59c-.8,0-1.54,0-2.23,0l-2.22,0a1.12,1.12,0,0,1-.7-.19.51.51,0,0,1-.26-.44c0-.33.19-.54.59-.63a14.13,14.13,0,0,1,2.81-.16l2.82,0h3.93a1.57,1.57,0,0,1,.85.21c.22.14.33.29.33.46a.49.49,0,0,1-.4.5,6.22,6.22,0,0,1-1.6.13H399.4q0,5.65.82,14.14c.1.75.19,2,.29,3.86q.53,5.25.52,6.25a25.11,25.11,0,0,1-.11,2.77,10.92,10.92,0,0,1-.48,2.18,6.2,6.2,0,0,1-1.07,2.08,9,9,0,0,1-2,1.7,12.39,12.39,0,0,1-3.11,1.59C393.25,254.5,392.73,254.24,392.73,253.71Z"/><path class="cls-1" d="M413.37,250.5c-.47-.13-.7-.37-.7-.74V249a3.55,3.55,0,0,1-.08-.76v-.08l.08-6.13-.08-17.33c0-1.79,0-3.34-.15-4.66a1.13,1.13,0,0,1,.37-.84,1.41,1.41,0,0,1,1-.33h4.59a11.77,11.77,0,0,1,1.56.08c.49.09.74.32.74.71,0,.23-.15.41-.45.55a2.72,2.72,0,0,1-1,.25H418l-1.18,0-1.19,0a1.57,1.57,0,0,0-.7.1.42.42,0,0,0-.19.4c0,1.32,0,2.5.07,3.57v8.81c0,.06.05.08.15.08h.15c1.23-.05,2.57-.08,4-.08.79,0,1.19.2,1.19.59a.58.58,0,0,1-.26.56,1.79,1.79,0,0,1-.85.15H415c-.2,0-.29.07-.29.21l.14,6.21q.15,2.9.15,6.67v1.56h7c.89,0,1.33.18,1.33.54a.74.74,0,0,1-.67.8,24.56,24.56,0,0,1-3.63.17h-3.11A11.37,11.37,0,0,1,413.37,250.5Z"/><path class="cls-1" d="M438,250.81a8.07,8.07,0,0,1-2.45-1.09,7.35,7.35,0,0,1-1.7-1.55,9.61,9.61,0,0,1-1.19-1.85,12.56,12.56,0,0,1-1.11-3.56l-.15-1.31a3,3,0,0,0,0-.54.61.61,0,0,1,0-.17q-.37-2.06-.93-9.06t-.55-10.91v-.63a1,1,0,0,1,1.11-1.09c1,0,1.55.33,1.55,1v.3l-.07.33q0,4.88.52,11.52c.34,4.44.69,7.63,1,9.59a16.9,16.9,0,0,0,1.25,3.78,10.82,10.82,0,0,0,1.3,2.18,5.67,5.67,0,0,0,1.82,1.47,5.84,5.84,0,0,0,2.59.67,6.92,6.92,0,0,0,2.26-.34,3.81,3.81,0,0,0,2.37-2.07,4.75,4.75,0,0,0,.41-1.41,9.06,9.06,0,0,0,.07-1.39V239.9c0-2.12-.1-4.74-.29-7.84l-.3-5.38-.15-3.56c-.15-1.57-.22-2.76-.22-3.57a.79.79,0,0,1,.44-.71,2.08,2.08,0,0,1,1-.25,1.83,1.83,0,0,1,1,.25.79.79,0,0,1,.41.71v3.19c0,1.4,0,2.66.07,3.78v3.77c0,2.72.05,5.09.15,7.14s.08,4.39.08,7a10.1,10.1,0,0,1-.15,1.85,6.64,6.64,0,0,1-.59,1.68,5,5,0,0,1-1.23,1.7,6.43,6.43,0,0,1-2,1.15,9.92,9.92,0,0,1-3.12.46A11.59,11.59,0,0,1,438,250.81Z"/><path class="cls-1" d="M472.91,250.27c-.6-.17-.89-.37-.89-.59s.19-.45.59-.84.57-.64.52-.84l-.22-3.69-.52-11.46-.15-5.08a35.16,35.16,0,0,0-.37-5.83,4.12,4.12,0,0,0-.59-1.05,2.6,2.6,0,0,1-.52-1.13c0-.67,1.87-1,5.63-1h.37a13.62,13.62,0,0,1,6.52,1.47,11.14,11.14,0,0,1,3.85,3.57,15.12,15.12,0,0,1,1.78,4.32,29.21,29.21,0,0,1,.52,3.86v1.3a15.33,15.33,0,0,1-1.22,5.65,21.19,21.19,0,0,1-3.45,5.68,13.79,13.79,0,0,1-3.44,3,25.13,25.13,0,0,1-4,2.12,9,9,0,0,1-2.6.78A6.75,6.75,0,0,1,472.91,250.27Zm2.89-1.89a16.25,16.25,0,0,0,4.89-2.33,13.48,13.48,0,0,0,3.4-3.38,15,15,0,0,0,1.86-3.54,20.6,20.6,0,0,0,1-3.72,19.69,19.69,0,0,0,.23-2.89q0-12.26-11.93-12.26c-1,0-1.56.16-1.56.47a24.15,24.15,0,0,0,.3,3.48,26.12,26.12,0,0,1,.29,3.48q0,2.31.6,8c.34,3.3.52,5.95.52,8v4.7Z"/><path class="cls-1" d="M500.1,224.63c0-.78.59-2.27,1.78-4.45.74-1.29,1.41-1.94,2-2H504a1.34,1.34,0,0,1,.74.19.77.77,0,0,1,.37.44,2.89,2.89,0,0,1-.08,1.15,5.22,5.22,0,0,1-.4,1,5.6,5.6,0,0,0-.34.71,19.37,19.37,0,0,1-2.14,3,1.88,1.88,0,0,1-1.34.72,1.12,1.12,0,0,1-.52-.17A.74.74,0,0,1,500.1,224.63Z"/><path class="cls-1" d="M514.14,250.5c-.47-.13-.7-.37-.7-.74V249a3.55,3.55,0,0,1-.08-.76v-.08l.08-6.13-.08-17.33c0-1.79-.05-3.34-.14-4.66a1.09,1.09,0,0,1,.37-.84,1.37,1.37,0,0,1,1-.33h4.59a11.67,11.67,0,0,1,1.56.08c.49.09.74.32.74.71,0,.23-.15.41-.44.55a2.83,2.83,0,0,1-1,.25h-1.26l-1.18,0-1.19,0a1.6,1.6,0,0,0-.7.1.42.42,0,0,0-.19.4c0,1.32,0,2.5.08,3.57v8.81c0,.06,0,.08.15.08h.14c1.24-.05,2.57-.08,4-.08.79,0,1.19.2,1.19.59a.58.58,0,0,1-.26.56,1.79,1.79,0,0,1-.85.15h-4.22q-.3,0-.3.21l.15,6.21q.15,2.9.15,6.67v1.56h7c.89,0,1.33.18,1.33.54a.74.74,0,0,1-.66.8,24.75,24.75,0,0,1-3.63.17h-3.12A11.37,11.37,0,0,1,514.14,250.5Z"/><path class="cls-1" d="M545.82,250.6a1.38,1.38,0,0,1-.59-.67l-.23-.8a2.55,2.55,0,0,1-.22-.63q-8.29-16.81-9.11-18.88c-.45-1-1.46-3.8-3-8.39a9.91,9.91,0,0,0-.08,1.72v15.19l.15,6,.15,6-.44.33H530.7l-.22-.33a6,6,0,0,0,.15-1.68l-.08-7.3-.14-7.3v-9.49c0-1.17-.08-2.49-.08-3.94a1.35,1.35,0,0,0-.07-.46v-.42a.68.68,0,0,1,.48-.69,4.38,4.38,0,0,1,1.52-.19,2.44,2.44,0,0,1,1,.25,1.44,1.44,0,0,1,.7.54l1.56,4.12A41.25,41.25,0,0,0,537.3,228q1.56,3.5,5.33,11.42a57.75,57.75,0,0,0,3.86,8,3.61,3.61,0,0,0,.44-2q0-4.08.15-7.3l.15-7.31c0-1.2,0-2.29.07-3.27v-3.23l-.07-5.92c.24-.39.76-.58,1.55-.58.4,0,.6.4.6,1.21a4.06,4.06,0,0,1-.08.88,1.92,1.92,0,0,1,0,.49,1.29,1.29,0,0,0,0,.19v2.68q0,5.58-.08,10t-.07,9.9c0,.7-.07,1.8-.22,3.31l-.15,3.32c0,.81-.64,1.22-1.93,1.22A1.7,1.7,0,0,1,545.82,250.6Z"/><path class="cls-1" d="M561.82,249.43v-3.11l-.22-2.56c-.44-4.59-.67-8-.67-10.11,0-1.17-.27-4.84-.81-11-.1-1.35-.17-2.21-.22-2.59s-.08-.58-.08-.6v-.3c0-.19.25-.32.74-.37a20.28,20.28,0,0,1,2.6-.09h3.7a1.28,1.28,0,0,1,.89.27.92.92,0,0,1,.3.7c0,.28-.45.42-1.34.42l-1.7,0h-1.93a1.38,1.38,0,0,0-.74.13c-.1.08-.15.31-.15.67,0,.56.18,2.6.52,6.13s.52,5.58.52,6.17a17.76,17.76,0,0,0,2.52-.26,20.7,20.7,0,0,1,2.52-.25,1.12,1.12,0,0,1,.78.3.77.77,0,0,1,.33.54c0,.31-.39.51-1.18.61s-1.93.18-3.41.23c-1,.08-1.56.25-1.56.5a61,61,0,0,0,.74,7.05,54.42,54.42,0,0,1,.67,7.1l-.22.21a.88.88,0,0,1,.22.54c0,.53-.55.8-1.63.8C562.22,250.52,561.82,250.15,561.82,249.43Z"/><path class="cls-1" d="M592.24,250.22c-.27-.14-.41-.3-.41-.5v-5.5c0-.33-1.26-.64-3.78-.92a58.22,58.22,0,0,0-6.22-.42q-.15,0-.48.63l-.48.92q-1,2.19-1.93,4.66l-.37.92c-.1.23-.35.34-.74.34a2.67,2.67,0,0,1-1.08-.21c-.32-.14-.48-.31-.48-.5l.08-.09v0l.81-2.1c.59-1.31,1.11-2.6,1.56-3.86a18.63,18.63,0,0,1,1.11-2.77q.58-1.38,2.37-6.92l.44-1.38q1.93-6.47,2.67-8.15c.25-.67.69-1.66,1.34-3a7.79,7.79,0,0,1,1-1.67c.45-.48.82-.72,1.12-.72a2.72,2.72,0,0,1,1.7.42c.25.25.63,1.64,1.15,4.16s1,5.06,1.37,7.63l1,7a49,49,0,0,0,.45,5.45,52.41,52.41,0,0,1,.44,5.5v.17a1.6,1.6,0,0,1-.22.84,2,2,0,0,1-1.41.33A2.15,2.15,0,0,1,592.24,250.22Zm-.48-8.3a65,65,0,0,0-.52-7.12q-.53-4.5-1.11-8a23.77,23.77,0,0,0-.59-3.23l-.3-1.64a2.58,2.58,0,0,1-.15-.46l-.15-.5a12.38,12.38,0,0,0-1.14,2.56c-.38,1.09-.76,2.38-1.15,3.86q-1.78,6.26-3,9.4l-.67,1.43a7.71,7.71,0,0,0-1.11,3.18v.26a42.73,42.73,0,0,0,7.48.58h.45a2.62,2.62,0,0,0,.52.05C591.26,242.34,591.76,242.2,591.76,241.92Z"/><path class="cls-1" d="M619.1,250.6a1.49,1.49,0,0,1-.59-.67l-.22-.8a2.33,2.33,0,0,1-.23-.63q-8.29-16.81-9.11-18.88c-.44-1-1.46-3.8-3-8.39a10.46,10.46,0,0,0-.07,1.72v15.19l.15,6,.14,6-.44.33H604l-.23-.33a6,6,0,0,0,.15-1.68l-.07-7.3-.15-7.3v-9.49c-.05-1.17-.07-2.49-.07-3.94a1.34,1.34,0,0,0-.08-.46v-.42a.68.68,0,0,1,.48-.69,4.38,4.38,0,0,1,1.52-.19,2.41,2.41,0,0,1,1,.25,1.47,1.47,0,0,1,.71.54l1.55,4.12a43.47,43.47,0,0,0,1.78,4.44q1.56,3.5,5.34,11.42a57.9,57.9,0,0,0,3.85,8,3.52,3.52,0,0,0,.44-2q0-4.08.15-7.3l.15-7.31c0-1.2,0-2.29.07-3.27v-3.23l-.07-5.92a1.73,1.73,0,0,1,1.56-.58c.39,0,.59.4.59,1.21a5,5,0,0,1-.07.88,2.55,2.55,0,0,1,0,.49.77.77,0,0,0,0,.19v2.68q0,5.58-.07,10t-.08,9.9c0,.7-.07,1.8-.22,3.31l-.15,3.32c0,.81-.64,1.22-1.92,1.22A1.71,1.71,0,0,1,619.1,250.6Z"/><path class="cls-1" d="M639.18,250.37a1,1,0,0,1-.37-.77v-7.47l-.15-6.72c-.14-3-.22-5.23-.22-6.71l.08-1.22v-2.73a25.79,25.79,0,0,0-.15-4.53H630a3,3,0,0,1-1.07-.17c-.32-.11-.48-.26-.48-.46a.49.49,0,0,1,.22-.46,4.17,4.17,0,0,1,1.19-.21,27.44,27.44,0,0,1,3-.12h7.41l8.15-.05a3,3,0,0,1,1.22.17.57.57,0,0,1,.34.55q0,.63-1.41.63h-6.6l-.66,0,.07,2.43v23.79l.08,3.11v.08a1.82,1.82,0,0,1-.08.57.68.68,0,0,1-.29.36,1.08,1.08,0,0,1-.75.21A1.69,1.69,0,0,1,639.18,250.37Z"/><path class="cls-1" d="M150,339a9.62,9.62,0,0,1-9.62-9.61V166.48a10,10,0,0,1,4.88-8.57L274.06,81.3a9.64,9.64,0,0,1,14.56,8.28V248.49L155.35,337.33A9.53,9.53,0,0,1,150,339Zm1.67-171.72v159l125.63-83.76v-150Z"/><path class="cls-1" d="M150,342.45a13.13,13.13,0,0,1-13.11-13.11V166.48a13.52,13.52,0,0,1,6.58-11.57L272.28,78.3a13.12,13.12,0,0,1,19.83,11.28V250.36L157.29,340.24A13.06,13.06,0,0,1,150,342.45Zm129-259a6.09,6.09,0,0,0-3.14.86L147.07,160.92a6.5,6.5,0,0,0-3.16,5.56V329.34a6.11,6.11,0,0,0,3.23,5.39,6.18,6.18,0,0,0,6.27-.31l131.71-87.8v-157a6.15,6.15,0,0,0-3.1-5.33A6.08,6.08,0,0,0,279,83.45ZM148.2,332.74V165.24l132.63-78.9v158Zm7-163.52V319.68l118.65-79.1V98.64Z"/><path class="cls-1" d="M142.09,339.27a9.61,9.61,0,0,1-5.33-1.62L3.5,248.81V89.87A9.61,9.61,0,0,1,18,81.61l128.8,76.62a10,10,0,0,1,4.87,8.57V329.65a9.62,9.62,0,0,1-9.61,9.62ZM14.78,242.77l125.63,83.76v-159L14.78,92.8Z"/><path class="cls-1" d="M142.09,342.76a13.08,13.08,0,0,1-7.27-2.2L0,250.68V89.87A13.11,13.11,0,0,1,19.81,78.6l128.8,76.62a13.53,13.53,0,0,1,6.58,11.58V329.65a13.1,13.1,0,0,1-13.1,13.11ZM7,246.94l131.71,87.8a6.18,6.18,0,0,0,6.27.3,6.1,6.1,0,0,0,3.23-5.39V166.8a6.51,6.51,0,0,0-3.16-5.57L16.24,84.61A6.12,6.12,0,0,0,7,89.87Zm136.92,86.12L11.28,244.64v-158l132.63,78.91ZM18.28,240.9,136.92,320V169.53L18.28,99Z"/><path class="cls-1" d="M146.05,169a10,10,0,0,1-5.08-1.39L12.21,91.3a9.62,9.62,0,0,1,.36-16.7l129-69.93a9.65,9.65,0,0,1,9.21,0l128.7,69.59A9.63,9.63,0,0,1,279.83,91L151.15,167.56A10,10,0,0,1,146.05,169ZM20.54,83.12l125.51,74.34L271.55,82.8,146.18,15Z"/><path class="cls-1" d="M146.05,172.45a13.48,13.48,0,0,1-6.86-1.88L10.43,94.31a13.11,13.11,0,0,1,.48-22.78L139.9,1.6a13.15,13.15,0,0,1,12.55,0l128.69,69.6A13.13,13.13,0,0,1,281.62,94L152.94,170.56A13.47,13.47,0,0,1,146.05,172.45ZM146.18,7a6.19,6.19,0,0,0-3,.75l-129,69.93A6.11,6.11,0,0,0,14,88.3l128.74,76.26a6.59,6.59,0,0,0,6.61,0L278,88a6.13,6.13,0,0,0-.22-10.66L149.12,7.74A6.26,6.26,0,0,0,146.18,7Zm-.13,154.53L13.45,83,146.18,11,278.63,82.66ZM27.63,83.25l118.42,70.14L264.47,83,146.18,19Z"/><path class="cls-1" d="M147.4,131.08,58,79.23,82.06,67.31l37.9,22,6.3-43.86,27.63-13.68-5.3,41.58,96.84,9.22-25.67,12.7-74.2-7.59-2.42,15.08,28.32,16.43Z"/><path class="cls-1" d="M60.84,249.47,58.25,137.6l29.8,19.93,2.6,111.88Z"/><path class="cls-1" d="M179.6,283.5l-1.6-109,38.09-21.61q20.46-11.61,31-4.88t11,36.53q.42,28.11-9.63,46.86T217.7,261.89Zm18.79-28.41,16.37-9.29a53.3,53.3,0,0,0,13.5-10.64,38.15,38.15,0,0,0,8.09-15.52q2.64-9.44,2.42-24.16T235.9,174.4q-2.66-6.35-8.06-6.18t-14.15,5.12l-16.36,9.28Z"/><path class="cls-1" d="M178.14,286.05,176.49,173.6l38.86-22c14.1-8,25.05-9.62,32.56-4.83s11.39,17.18,11.69,37.77c.28,18.91-3,34.92-9.8,47.59s-17.35,23.17-31.36,31.11Zm1.37-110.72,1.56,105.61L217,260.58c13.51-7.66,23.67-17.73,30.19-29.92s9.72-27.73,9.45-46.13c-.28-19.23-3.75-31.1-10.3-35.28s-16.41-2.49-29.47,4.91Zm17.42,82.31-1.12-75.88L213,172c6.1-3.45,11-5.19,14.85-5.31,2.94-.1,7,1.07,9.48,7.1,1.87,4.45,2.84,11.53,3,21.63.15,9.92-.69,18.19-2.47,24.59a39.81,39.81,0,0,1-8.43,16.12,54.85,54.85,0,0,1-13.87,11Zm1.91-74.15,1,69,14.17-8a51.94,51.94,0,0,0,13.12-10.35,36.9,36.9,0,0,0,7.77-14.91c1.71-6.13,2.5-14.11,2.36-23.74S236.2,179,234.52,175c-1.52-3.63-3.69-5.37-6.63-5.27-3.35.11-7.87,1.77-13.46,4.93Z"/></g></g></svg>