<svg width="1167" height="758" viewBox="0 0 1167 758" fill="none" xmlns="http://www.w3.org/2000/svg">
<path opacity="0.1" d="M659.62 109.61C584.87 109.71 512.92 88.52 444.1 64.98C375.28 41.44 306.99 15.08 233.63 3.90999C186.45 -3.27001 132.8 -2.61001 95.92 23.46C60.42 48.54 50.14 90.05 45.18 128.4C41.45 157.25 39.73 187.53 53.7 213.92C63.4 232.24 80 247.34 91.7 264.8C132.54 325.54 107.98 403.13 68.29 465.28C49.68 494.44 27.88 522.39 13.81 553.22C-0.259969 584.05 -6.02997 619.01 8.32003 649.44C22.54 679.6 54.66 701.49 89.13 716.44C159.13 746.86 240.63 753.38 319.94 755.89C495.5 761.46 671.4 750.1 846.83 738.74C911.75 734.54 976.96 730.31 1040.54 718.14C1075.84 711.39 1112.19 701.37 1137.22 679.41C1168.99 651.53 1175.49 606.01 1152.37 573.29C1113.6 518.41 1011.37 508.06 983.57 448.68C968.24 415.99 981.46 378.5 1000.93 346.99C1042.69 279.38 1114.57 218.82 1115.78 143.2C1116.61 91.27 1079.23 40.61 1023.4 18.04C964.88 -5.60001 885.09 0.479992 844.09 44.54C801.93 89.93 725.62 109.54 659.62 109.61Z" fill="url(#paint0_linear)"/>
<path d="M992.53 645.36C992.53 645.36 980.24 637.25 968.06 643.02C968.06 643.02 971.81 650.24 987.23 649.56L992.53 645.36Z" fill="url(#paint1_linear)"/>
<path d="M994.09 645.79C994.09 645.79 997.83 660.03 988.45 669.72C988.45 669.72 982.81 663.85 988.45 649.47L994.09 645.79Z" fill="url(#paint2_linear)"/>
<path d="M1009.37 632.12C1009.37 632.12 1008.46 620.01 981.11 624.03C981.11 624.03 980.98 631.84 990.58 635.54C1000.18 639.24 1004.58 636.12 1009.37 632.12Z" fill="url(#paint3_linear)"/>
<path d="M1011.09 632.04C1011.09 632.04 1022.65 635.75 1012.34 661.4C1012.34 661.4 1004.71 659.7 1003.34 649.49C1001.97 639.28 1006.03 635.76 1011.09 632.04Z" fill="url(#paint4_linear)"/>
<path d="M1026.53 614.86C1026.53 614.86 1028.1 594.93 1000.15 596.97C1000.15 596.97 998.15 614.97 1021.6 619.65L1026.53 614.86Z" fill="url(#paint5_linear)"/>
<path d="M1045 592.36C1045 592.36 1041.17 569.77 1013.23 576.5C1013.23 576.5 1013.13 596.03 1040.44 597.74L1045 592.36Z" fill="url(#paint6_linear)"/>
<path d="M1058.5 569.1C1058.5 569.1 1052.08 547.1 1024.4 553.68C1024.4 553.68 1030.99 573.47 1056.66 573.16L1058.5 569.1Z" fill="url(#paint7_linear)"/>
<path d="M1071.32 546.38C1071.32 546.38 1065.05 523.55 1038.32 530.38C1038.32 530.38 1047.24 552.07 1069.55 550.24L1071.32 546.38Z" fill="url(#paint8_linear)"/>
<path d="M1079.58 524.8C1079.58 524.8 1074.76 496.88 1049.84 503.06C1049.84 503.06 1057.08 528.46 1077.75 528.87L1079.58 524.8Z" fill="url(#paint9_linear)"/>
<path d="M1087.33 498.73C1087.33 498.73 1081.54 470.59 1056.33 478.73C1056.33 478.73 1066.21 505.33 1085.54 502.58L1087.33 498.73Z" fill="url(#paint10_linear)"/>
<path d="M1092.09 474.47C1092.09 474.47 1082.9 446.32 1063.41 447.08C1063.41 447.08 1072.8 476.81 1090.46 480.08L1092.09 474.47Z" fill="url(#paint11_linear)"/>
<path d="M1095.17 450.79C1095.17 450.79 1085.17 416.91 1069.31 419.52C1069.31 419.52 1076.23 445.42 1094.61 456.07L1095.17 450.79Z" fill="url(#paint12_linear)"/>
<path d="M1096.91 422.54C1096.91 422.54 1087.53 394.31 1071.91 393.18C1071.91 393.18 1078.29 420.96 1096.6 429.88L1096.91 422.54Z" fill="url(#paint13_linear)"/>
<path d="M1098.8 396.18C1098.8 396.18 1087.11 367.92 1076.8 367.28C1076.8 367.28 1081.88 395.11 1097.8 400.82L1098.8 396.18Z" fill="url(#paint14_linear)"/>
<path d="M1100.09 371.66C1100.09 371.66 1092.9 340.97 1082.57 338.42C1082.57 338.42 1083.98 363.53 1099.05 373.96L1100.09 371.66Z" fill="url(#paint15_linear)"/>
<path d="M1103.99 339.54C1103.99 339.54 1096.43 315.07 1088.06 311.34C1088.06 311.34 1089.71 340.19 1102.06 345.52L1103.99 339.54Z" fill="url(#paint16_linear)"/>
<path d="M1107.22 318.54L1108.74 275.4C1108.74 275.4 1093.09 307.92 1106.09 326.11L1107.22 318.54Z" fill="url(#paint17_linear)"/>
<path d="M1119.3 275.63C1119.3 275.63 1130.57 244.13 1133.3 242.37C1133.3 242.37 1111.2 262.81 1113.36 289.1L1119.3 275.63Z" fill="url(#paint18_linear)"/>
<path d="M1027.29 614.71C1027.29 614.71 1047.11 612.12 1046.52 640.13C1046.52 640.13 1028.61 643.05 1022.76 619.88L1027.29 614.71Z" fill="url(#paint19_linear)"/>
<path d="M1045.94 591.6C1045.94 591.6 1068.84 591.53 1066.94 620.2C1066.94 620.2 1047.71 623.64 1041.37 597.02L1045.94 591.6Z" fill="url(#paint20_linear)"/>
<path d="M1058.72 570.95C1058.72 570.95 1079.51 561.2 1092.81 586.37C1092.81 586.37 1073.61 594.49 1056.88 575.02L1058.72 570.95Z" fill="url(#paint21_linear)"/>
<path d="M1071.78 546.59C1071.78 546.59 1093.07 536.22 1105.57 560.8C1105.57 560.8 1083.39 568.44 1070.02 550.48L1071.78 546.59Z" fill="url(#paint22_linear)"/>
<path d="M1079.31 525.41C1079.31 525.41 1099.8 505.84 1116.15 525.63C1116.15 525.63 1095.22 541.74 1078.37 529.77L1079.31 525.41Z" fill="url(#paint23_linear)"/>
<path d="M1086.17 498.06C1086.17 498.06 1106.78 478.06 1123 498.98C1123 498.98 1099.87 515.41 1085.43 502.26L1086.17 498.06Z" fill="url(#paint24_linear)"/>
<path d="M1090.02 473.67C1090.02 473.67 1105.9 448.67 1124.6 454.25C1124.6 454.25 1108.12 480.72 1090.2 479.54L1090.02 473.67Z" fill="url(#paint25_linear)"/>
<path d="M1094.7 450.63C1094.7 450.63 1110.7 419.15 1125.84 424.63C1125.84 424.63 1114.3 448.83 1094.29 455.94L1094.7 450.63Z" fill="url(#paint26_linear)"/>
<path d="M1095.81 420.9C1095.81 420.9 1112.26 396.12 1127.67 399.15C1127.67 399.15 1114.22 424.28 1094.21 428.07L1095.81 420.9Z" fill="url(#paint27_linear)"/>
<path d="M1097.09 395.63C1097.09 395.63 1109.84 367.82 1120.2 367.63C1120.2 367.63 1114.08 395.24 1097.95 400.35L1097.09 395.63Z" fill="url(#paint28_linear)"/>
<path d="M1099.59 371.06C1099.59 371.06 1113.76 342.9 1124.41 342.84C1124.41 342.84 1117.16 366.92 1100.06 373.53L1099.59 371.06Z" fill="url(#paint29_linear)"/>
<path d="M1101.72 341.3C1101.72 341.3 1112.32 318 1121.1 315.36C1121.1 315.36 1115.8 343.76 1102.89 347.48L1101.72 341.3Z" fill="url(#paint30_linear)"/>
<path d="M1108.48 317.69L1132.17 281.6C1132.17 281.6 1126.1 317.2 1105.02 324.6L1108.48 317.69Z" fill="url(#paint31_linear)"/>
<path d="M1124.74 278.54C1124.74 278.54 1152.27 259.54 1153.27 256.47C1153.27 256.47 1139.27 283.08 1113.27 287.78L1124.74 278.54Z" fill="url(#paint32_linear)"/>
<path d="M1126.39 269.99C1126.39 269.99 1158 239.6 1166.07 239.63C1166.07 239.63 1140 240.82 1125.63 268.37L1126.39 269.99Z" fill="url(#paint33_linear)"/>
<path d="M1102.03 345.81L1103.18 345.96C1109.12 299.47 1117.78 271.96 1127.56 268.59L1127.18 267.49C1116.81 271.09 1108.09 298.18 1102.03 345.81Z" fill="#444053"/>
<path d="M1093.29 456.99L1095.03 457.13C1095.4 452.79 1095.68 448.35 1095.87 443.92C1097.53 405.44 1100.1 370.1 1103.48 343.61L1102.48 342.36C1099.09 368.91 1095.79 405.31 1094.13 443.85C1093.94 448.25 1093.66 452.67 1093.29 456.99Z" fill="#444053"/>
<path d="M960.09 667.54C960.39 667.41 991.02 653.73 1022.81 621.11C1041.44 602.005 1056.91 580.065 1068.66 556.11C1083.36 526.18 1092.32 489.4 1095.32 453.67L1093.51 454.52C1086.76 534.72 1050.25 589.52 1021.22 619.37C989.74 651.7 959.45 665.24 959.15 665.37L960.09 667.54Z" fill="#444053"/>
<path d="M1039.4 85.23H78.52C76.2497 85.23 74.0724 86.1318 72.4671 87.7372C70.8618 89.3425 69.96 91.5197 69.96 93.79V118.73H1047.96V93.79C1047.96 91.5197 1047.06 89.3425 1045.45 87.7372C1043.85 86.1318 1041.67 85.23 1039.4 85.23V85.23Z" fill="#3F3D56"/>
<path d="M69.96 118.73V679.97C69.96 684.548 71.7784 688.938 75.0153 692.175C78.2522 695.412 82.6423 697.23 87.22 697.23H1030.7C1035.28 697.23 1039.67 695.412 1042.9 692.175C1046.14 688.938 1047.96 684.548 1047.96 679.97V118.73H69.96Z" fill="white"/>
<path opacity="0.8" d="M85.45 105.73C87.6591 105.73 89.45 103.939 89.45 101.73C89.45 99.5209 87.6591 97.73 85.45 97.73C83.2408 97.73 81.45 99.5209 81.45 101.73C81.45 103.939 83.2408 105.73 85.45 105.73Z" fill="#FA5959"/>
<path opacity="0.8" d="M96.45 105.73C98.6591 105.73 100.45 103.939 100.45 101.73C100.45 99.5209 98.6591 97.73 96.45 97.73C94.2408 97.73 92.45 99.5209 92.45 101.73C92.45 103.939 94.2408 105.73 96.45 105.73Z" fill="#FED253"/>
<path opacity="0.8" d="M107.45 105.73C109.659 105.73 111.45 103.939 111.45 101.73C111.45 99.5209 109.659 97.73 107.45 97.73C105.241 97.73 103.45 99.5209 103.45 101.73C103.45 103.939 105.241 105.73 107.45 105.73Z" fill="#8CCF4D"/>
<path opacity="0.05" d="M946.87 212.31H160.87V557.93H946.87V212.31Z" fill="black"/>
<path d="M940.87 214.93H166.87V552.93H940.87V214.93Z" fill="#3F3D56"/>
<path d="M377.87 301.92C362.641 301.92 347.754 306.436 335.091 314.897C322.429 323.358 312.559 335.383 306.731 349.453C300.903 363.523 299.379 379.005 302.35 393.942C305.321 408.879 312.654 422.599 323.423 433.367C334.191 444.136 347.912 451.469 362.848 454.44C377.785 457.412 393.267 455.887 407.337 450.059C421.407 444.231 433.432 434.362 441.893 421.699C450.354 409.036 454.87 394.149 454.87 378.92C454.87 368.808 452.878 358.795 449.009 349.453C445.139 340.111 439.467 331.623 432.317 324.473C425.167 317.323 416.679 311.651 407.337 307.781C397.995 303.912 387.982 301.92 377.87 301.92V301.92ZM391.68 380.77V417.23H364.46V380.77C360.693 377.919 357.917 373.956 356.523 369.442C355.13 364.928 355.189 360.09 356.693 355.612C358.197 351.133 361.07 347.24 364.905 344.482C368.741 341.724 373.346 340.24 378.07 340.24C382.794 340.24 387.399 341.724 391.235 344.482C395.071 347.24 397.943 351.133 399.447 355.612C400.951 360.09 401.01 364.928 399.617 369.442C398.223 373.956 395.447 377.919 391.68 380.77V380.77Z" fill="url(#paint34_linear)"/>
<path opacity="0.05" d="M377.87 301.92C362.641 301.92 347.754 306.436 335.091 314.897C322.429 323.358 312.559 335.383 306.731 349.453C300.903 363.523 299.379 379.005 302.35 393.942C305.321 408.879 312.654 422.599 323.423 433.367C334.191 444.136 347.912 451.469 362.848 454.44C377.785 457.412 393.267 455.887 407.337 450.059C421.407 444.231 433.432 434.362 441.893 421.699C450.354 409.036 454.87 394.149 454.87 378.92C454.87 368.808 452.878 358.795 449.009 349.453C445.139 340.111 439.467 331.623 432.317 324.473C425.167 317.323 416.679 311.651 407.337 307.781C397.995 303.912 387.982 301.92 377.87 301.92V301.92ZM391.68 380.77V417.23H364.46V380.77C360.693 377.919 357.917 373.956 356.523 369.442C355.13 364.928 355.189 360.09 356.693 355.612C358.197 351.133 361.07 347.24 364.905 344.482C368.741 341.724 373.346 340.24 378.07 340.24C382.794 340.24 387.399 341.724 391.235 344.482C395.071 347.24 397.943 351.133 399.447 355.612C400.951 360.09 401.01 364.928 399.617 369.442C398.223 373.956 395.447 377.919 391.68 380.77V380.77Z" fill="black"/>
<path d="M377.87 279.92C358.29 279.92 339.149 285.726 322.868 296.605C306.588 307.483 293.899 322.944 286.406 341.034C278.913 359.124 276.952 379.03 280.772 398.234C284.592 417.438 294.021 435.078 307.866 448.924C321.712 462.769 339.352 472.198 358.556 476.018C377.76 479.838 397.666 477.877 415.756 470.384C433.845 462.891 449.307 450.202 460.185 433.921C471.064 417.641 476.87 398.5 476.87 378.92C476.87 352.664 466.44 327.483 447.873 308.916C429.307 290.35 404.126 279.92 377.87 279.92V279.92ZM395.62 381.3V428.17H360.62V381.3C355.775 377.634 352.204 372.538 350.411 366.733C348.618 360.927 348.694 354.705 350.628 348.945C352.562 343.185 356.256 338.178 361.189 334.631C366.122 331.084 372.044 329.175 378.12 329.175C384.196 329.175 390.118 331.084 395.051 334.631C399.984 338.178 403.678 343.185 405.612 348.945C407.546 354.705 407.622 360.927 405.829 366.733C404.036 372.538 400.465 377.634 395.62 381.3V381.3Z" fill="url(#paint35_linear)"/>
<path d="M837.87 365.93H517.87V399.93H837.87V365.93Z" fill="white"/>
<path d="M837.87 427.93H768.87V461.93H837.87V427.93Z" fill="url(#paint36_linear)"/>
<path d="M549.37 382.42H543.58L548.73 377.28C548.822 377.185 548.874 377.058 548.874 376.925C548.874 376.793 548.822 376.665 548.73 376.57C548.684 376.523 548.628 376.486 548.567 376.461C548.506 376.435 548.441 376.422 548.375 376.422C548.309 376.422 548.244 376.435 548.183 376.461C548.122 376.486 548.067 376.523 548.02 376.57L542.87 381.72V375.92C542.87 375.787 542.817 375.66 542.724 375.566C542.63 375.473 542.503 375.42 542.37 375.42C542.238 375.423 542.113 375.476 542.019 375.569C541.926 375.663 541.873 375.788 541.87 375.92V381.72L536.73 376.54C536.684 376.493 536.628 376.456 536.567 376.431C536.506 376.405 536.441 376.392 536.375 376.392C536.309 376.392 536.244 376.405 536.183 376.431C536.122 376.456 536.067 376.493 536.02 376.54C535.928 376.635 535.876 376.763 535.876 376.895C535.876 377.028 535.928 377.155 536.02 377.25L541.17 382.39H535.37C535.238 382.393 535.113 382.446 535.019 382.539C534.926 382.633 534.873 382.758 534.87 382.89C534.87 383.023 534.923 383.15 535.017 383.244C535.11 383.337 535.238 383.39 535.37 383.39H541.17L536.02 388.54C535.928 388.635 535.876 388.763 535.876 388.895C535.876 389.028 535.928 389.155 536.02 389.25C536.116 389.34 536.243 389.39 536.375 389.39C536.507 389.39 536.634 389.34 536.73 389.25L541.87 384.1V389.89C541.87 390.023 541.923 390.15 542.017 390.244C542.11 390.337 542.238 390.39 542.37 390.39C542.503 390.39 542.63 390.337 542.724 390.244C542.817 390.15 542.87 390.023 542.87 389.89V384.1L548.02 389.25C548.116 389.34 548.243 389.39 548.375 389.39C548.507 389.39 548.634 389.34 548.73 389.25C548.822 389.155 548.874 389.028 548.874 388.895C548.874 388.763 548.822 388.635 548.73 388.54L543.58 383.39H549.37C549.503 383.39 549.63 383.337 549.724 383.244C549.817 383.15 549.87 383.023 549.87 382.89C549.862 382.763 549.806 382.643 549.713 382.556C549.62 382.468 549.498 382.42 549.37 382.42Z" fill="url(#paint37_linear)"/>
<path d="M570.37 382.42H564.58L569.73 377.28C569.822 377.185 569.874 377.058 569.874 376.925C569.874 376.793 569.822 376.665 569.73 376.57C569.684 376.523 569.628 376.486 569.567 376.461C569.506 376.435 569.441 376.422 569.375 376.422C569.309 376.422 569.244 376.435 569.183 376.461C569.122 376.486 569.067 376.523 569.02 376.57L563.87 381.72V375.92C563.87 375.787 563.817 375.66 563.724 375.566C563.63 375.473 563.503 375.42 563.37 375.42C563.238 375.423 563.113 375.476 563.019 375.569C562.926 375.663 562.873 375.788 562.87 375.92V381.72L557.73 376.54C557.684 376.493 557.628 376.456 557.567 376.431C557.506 376.405 557.441 376.392 557.375 376.392C557.309 376.392 557.244 376.405 557.183 376.431C557.122 376.456 557.067 376.493 557.02 376.54C556.928 376.635 556.876 376.763 556.876 376.895C556.876 377.028 556.928 377.155 557.02 377.25L562.17 382.39H556.37C556.238 382.393 556.113 382.446 556.019 382.539C555.926 382.633 555.873 382.758 555.87 382.89C555.87 383.023 555.923 383.15 556.017 383.244C556.11 383.337 556.238 383.39 556.37 383.39H562.17L557.02 388.54C556.928 388.635 556.876 388.763 556.876 388.895C556.876 389.028 556.928 389.155 557.02 389.25C557.116 389.34 557.243 389.39 557.375 389.39C557.507 389.39 557.634 389.34 557.73 389.25L562.87 384.1V389.89C562.87 390.023 562.923 390.15 563.017 390.244C563.11 390.337 563.238 390.39 563.37 390.39C563.503 390.39 563.63 390.337 563.724 390.244C563.817 390.15 563.87 390.023 563.87 389.89V384.1L569.02 389.25C569.116 389.34 569.243 389.39 569.375 389.39C569.507 389.39 569.634 389.34 569.73 389.25C569.822 389.155 569.874 389.028 569.874 388.895C569.874 388.763 569.822 388.635 569.73 388.54L564.58 383.39H570.37C570.503 383.39 570.63 383.337 570.724 383.244C570.817 383.15 570.87 383.023 570.87 382.89C570.862 382.763 570.806 382.643 570.713 382.556C570.62 382.468 570.498 382.42 570.37 382.42Z" fill="url(#paint38_linear)"/>
<path d="M591.37 382.42H585.58L590.73 377.28C590.822 377.185 590.874 377.058 590.874 376.925C590.874 376.793 590.822 376.665 590.73 376.57C590.684 376.523 590.628 376.486 590.567 376.461C590.506 376.435 590.441 376.422 590.375 376.422C590.309 376.422 590.244 376.435 590.183 376.461C590.122 376.486 590.067 376.523 590.02 376.57L584.87 381.72V375.92C584.87 375.787 584.817 375.66 584.724 375.566C584.63 375.473 584.503 375.42 584.37 375.42C584.238 375.423 584.113 375.476 584.019 375.569C583.926 375.663 583.873 375.788 583.87 375.92V381.72L578.73 376.54C578.684 376.493 578.628 376.456 578.567 376.431C578.506 376.405 578.441 376.392 578.375 376.392C578.309 376.392 578.244 376.405 578.183 376.431C578.122 376.456 578.067 376.493 578.02 376.54C577.928 376.635 577.876 376.763 577.876 376.895C577.876 377.028 577.928 377.155 578.02 377.25L583.17 382.39H577.37C577.238 382.393 577.113 382.446 577.019 382.539C576.926 382.633 576.873 382.758 576.87 382.89C576.87 383.023 576.923 383.15 577.017 383.244C577.11 383.337 577.238 383.39 577.37 383.39H583.17L578.02 388.54C577.928 388.635 577.876 388.763 577.876 388.895C577.876 389.028 577.928 389.155 578.02 389.25C578.116 389.34 578.243 389.39 578.375 389.39C578.507 389.39 578.634 389.34 578.73 389.25L583.87 384.1V389.89C583.87 390.023 583.923 390.15 584.017 390.244C584.11 390.337 584.238 390.39 584.37 390.39C584.503 390.39 584.63 390.337 584.724 390.244C584.817 390.15 584.87 390.023 584.87 389.89V384.1L590.02 389.25C590.116 389.34 590.243 389.39 590.375 389.39C590.507 389.39 590.634 389.34 590.73 389.25C590.822 389.155 590.874 389.028 590.874 388.895C590.874 388.763 590.822 388.635 590.73 388.54L585.58 383.39H591.37C591.503 383.39 591.63 383.337 591.724 383.244C591.817 383.15 591.87 383.023 591.87 382.89C591.862 382.763 591.806 382.643 591.713 382.556C591.62 382.468 591.498 382.42 591.37 382.42Z" fill="url(#paint39_linear)"/>
<path d="M612.37 382.42H606.58L611.73 377.28C611.822 377.185 611.874 377.058 611.874 376.925C611.874 376.793 611.822 376.665 611.73 376.57C611.684 376.523 611.628 376.486 611.567 376.461C611.506 376.435 611.441 376.422 611.375 376.422C611.309 376.422 611.244 376.435 611.183 376.461C611.122 376.486 611.067 376.523 611.02 376.57L605.87 381.72V375.92C605.87 375.787 605.817 375.66 605.724 375.566C605.63 375.473 605.503 375.42 605.37 375.42C605.238 375.423 605.113 375.476 605.019 375.569C604.926 375.663 604.873 375.788 604.87 375.92V381.72L599.73 376.54C599.684 376.493 599.628 376.456 599.567 376.431C599.506 376.405 599.441 376.392 599.375 376.392C599.309 376.392 599.244 376.405 599.183 376.431C599.122 376.456 599.067 376.493 599.02 376.54C598.928 376.635 598.876 376.763 598.876 376.895C598.876 377.028 598.928 377.155 599.02 377.25L604.17 382.39H598.37C598.238 382.393 598.113 382.446 598.019 382.539C597.926 382.633 597.873 382.758 597.87 382.89C597.87 383.023 597.923 383.15 598.017 383.244C598.11 383.337 598.238 383.39 598.37 383.39H604.17L599.02 388.54C598.928 388.635 598.876 388.763 598.876 388.895C598.876 389.028 598.928 389.155 599.02 389.25C599.116 389.34 599.243 389.39 599.375 389.39C599.507 389.39 599.634 389.34 599.73 389.25L604.87 384.1V389.89C604.87 390.023 604.923 390.15 605.017 390.244C605.11 390.337 605.238 390.39 605.37 390.39C605.503 390.39 605.63 390.337 605.724 390.244C605.817 390.15 605.87 390.023 605.87 389.89V384.1L611.02 389.25C611.116 389.34 611.243 389.39 611.375 389.39C611.507 389.39 611.634 389.34 611.73 389.25C611.822 389.155 611.874 389.028 611.874 388.895C611.874 388.763 611.822 388.635 611.73 388.54L606.58 383.39H612.37C612.503 383.39 612.63 383.337 612.724 383.244C612.817 383.15 612.87 383.023 612.87 382.89C612.862 382.763 612.806 382.643 612.713 382.556C612.62 382.468 612.498 382.42 612.37 382.42Z" fill="url(#paint40_linear)"/>
<path d="M633.37 382.42H627.58L632.73 377.28C632.822 377.185 632.874 377.058 632.874 376.925C632.874 376.793 632.822 376.665 632.73 376.57C632.684 376.523 632.628 376.486 632.567 376.461C632.506 376.435 632.441 376.422 632.375 376.422C632.309 376.422 632.244 376.435 632.183 376.461C632.122 376.486 632.067 376.523 632.02 376.57L626.87 381.72V375.92C626.87 375.787 626.817 375.66 626.724 375.566C626.63 375.473 626.503 375.42 626.37 375.42C626.238 375.423 626.113 375.476 626.019 375.569C625.926 375.663 625.873 375.788 625.87 375.92V381.72L620.73 376.54C620.684 376.493 620.628 376.456 620.567 376.431C620.506 376.405 620.441 376.392 620.375 376.392C620.309 376.392 620.244 376.405 620.183 376.431C620.122 376.456 620.067 376.493 620.02 376.54C619.928 376.635 619.876 376.763 619.876 376.895C619.876 377.028 619.928 377.155 620.02 377.25L625.17 382.39H619.37C619.238 382.393 619.113 382.446 619.019 382.539C618.926 382.633 618.873 382.758 618.87 382.89C618.87 383.023 618.923 383.15 619.017 383.244C619.11 383.337 619.238 383.39 619.37 383.39H625.17L620.02 388.54C619.928 388.635 619.876 388.763 619.876 388.895C619.876 389.028 619.928 389.155 620.02 389.25C620.116 389.34 620.243 389.39 620.375 389.39C620.507 389.39 620.634 389.34 620.73 389.25L625.87 384.1V389.89C625.87 390.023 625.923 390.15 626.017 390.244C626.11 390.337 626.238 390.39 626.37 390.39C626.503 390.39 626.63 390.337 626.724 390.244C626.817 390.15 626.87 390.023 626.87 389.89V384.1L632.02 389.25C632.116 389.34 632.243 389.39 632.375 389.39C632.507 389.39 632.634 389.34 632.73 389.25C632.822 389.155 632.874 389.028 632.874 388.895C632.874 388.763 632.822 388.635 632.73 388.54L627.58 383.39H633.37C633.503 383.39 633.63 383.337 633.724 383.244C633.817 383.15 633.87 383.023 633.87 382.89C633.862 382.763 633.806 382.643 633.713 382.556C633.62 382.468 633.498 382.42 633.37 382.42Z" fill="url(#paint41_linear)"/>
<path d="M654.37 382.42H648.58L653.73 377.28C653.822 377.185 653.874 377.058 653.874 376.925C653.874 376.793 653.822 376.665 653.73 376.57C653.684 376.523 653.628 376.486 653.567 376.461C653.506 376.435 653.441 376.422 653.375 376.422C653.309 376.422 653.244 376.435 653.183 376.461C653.122 376.486 653.067 376.523 653.02 376.57L647.87 381.72V375.92C647.87 375.787 647.817 375.66 647.724 375.566C647.63 375.473 647.503 375.42 647.37 375.42C647.238 375.423 647.113 375.476 647.019 375.569C646.926 375.663 646.873 375.788 646.87 375.92V381.72L641.73 376.54C641.684 376.493 641.628 376.456 641.567 376.431C641.506 376.405 641.441 376.392 641.375 376.392C641.309 376.392 641.244 376.405 641.183 376.431C641.122 376.456 641.067 376.493 641.02 376.54C640.928 376.635 640.876 376.763 640.876 376.895C640.876 377.028 640.928 377.155 641.02 377.25L646.17 382.39H640.37C640.238 382.393 640.113 382.446 640.019 382.539C639.926 382.633 639.873 382.758 639.87 382.89C639.87 383.023 639.923 383.15 640.017 383.244C640.11 383.337 640.238 383.39 640.37 383.39H646.17L641.02 388.54C640.928 388.635 640.876 388.763 640.876 388.895C640.876 389.028 640.928 389.155 641.02 389.25C641.116 389.34 641.243 389.39 641.375 389.39C641.507 389.39 641.634 389.34 641.73 389.25L646.87 384.1V389.89C646.87 390.023 646.923 390.15 647.017 390.244C647.11 390.337 647.238 390.39 647.37 390.39C647.503 390.39 647.63 390.337 647.724 390.244C647.817 390.15 647.87 390.023 647.87 389.89V384.1L653.02 389.25C653.116 389.34 653.243 389.39 653.375 389.39C653.507 389.39 653.634 389.34 653.73 389.25C653.822 389.155 653.874 389.028 653.874 388.895C653.874 388.763 653.822 388.635 653.73 388.54L648.58 383.39H654.37C654.503 383.39 654.63 383.337 654.724 383.244C654.817 383.15 654.87 383.023 654.87 382.89C654.862 382.763 654.806 382.643 654.713 382.556C654.62 382.468 654.498 382.42 654.37 382.42Z" fill="url(#paint42_linear)"/>
<path d="M675.37 382.42H669.58L674.73 377.28C674.822 377.185 674.874 377.058 674.874 376.925C674.874 376.793 674.822 376.665 674.73 376.57C674.684 376.523 674.628 376.486 674.567 376.461C674.506 376.435 674.441 376.422 674.375 376.422C674.309 376.422 674.244 376.435 674.183 376.461C674.122 376.486 674.067 376.523 674.02 376.57L668.87 381.72V375.92C668.87 375.787 668.817 375.66 668.724 375.566C668.63 375.473 668.503 375.42 668.37 375.42C668.238 375.423 668.113 375.476 668.019 375.569C667.926 375.663 667.873 375.788 667.87 375.92V381.72L662.73 376.54C662.684 376.493 662.628 376.456 662.567 376.431C662.506 376.405 662.441 376.392 662.375 376.392C662.309 376.392 662.244 376.405 662.183 376.431C662.122 376.456 662.067 376.493 662.02 376.54C661.928 376.635 661.876 376.763 661.876 376.895C661.876 377.028 661.928 377.155 662.02 377.25L667.17 382.39H661.37C661.238 382.393 661.113 382.446 661.019 382.539C660.926 382.633 660.873 382.758 660.87 382.89C660.87 383.023 660.923 383.15 661.017 383.244C661.11 383.337 661.238 383.39 661.37 383.39H667.17L662.02 388.54C661.928 388.635 661.876 388.763 661.876 388.895C661.876 389.028 661.928 389.155 662.02 389.25C662.116 389.34 662.243 389.39 662.375 389.39C662.507 389.39 662.634 389.34 662.73 389.25L667.87 384.1V389.89C667.87 390.023 667.923 390.15 668.017 390.244C668.11 390.337 668.238 390.39 668.37 390.39C668.503 390.39 668.63 390.337 668.724 390.244C668.817 390.15 668.87 390.023 668.87 389.89V384.1L674.02 389.25C674.116 389.34 674.243 389.39 674.375 389.39C674.507 389.39 674.634 389.34 674.73 389.25C674.822 389.155 674.874 389.028 674.874 388.895C674.874 388.763 674.822 388.635 674.73 388.54L669.58 383.39H675.37C675.503 383.39 675.63 383.337 675.724 383.244C675.817 383.15 675.87 383.023 675.87 382.89C675.862 382.763 675.806 382.643 675.713 382.556C675.62 382.468 675.498 382.42 675.37 382.42Z" fill="url(#paint43_linear)"/>
<path d="M696.37 382.42H690.58L695.73 377.28C695.822 377.185 695.874 377.058 695.874 376.925C695.874 376.793 695.822 376.665 695.73 376.57C695.684 376.523 695.628 376.486 695.567 376.461C695.506 376.435 695.441 376.422 695.375 376.422C695.309 376.422 695.244 376.435 695.183 376.461C695.122 376.486 695.067 376.523 695.02 376.57L689.87 381.72V375.92C689.87 375.787 689.817 375.66 689.724 375.566C689.63 375.473 689.503 375.42 689.37 375.42C689.238 375.423 689.113 375.476 689.019 375.569C688.926 375.663 688.873 375.788 688.87 375.92V381.72L683.73 376.54C683.684 376.493 683.628 376.456 683.567 376.431C683.506 376.405 683.441 376.392 683.375 376.392C683.309 376.392 683.244 376.405 683.183 376.431C683.122 376.456 683.067 376.493 683.02 376.54C682.928 376.635 682.876 376.763 682.876 376.895C682.876 377.028 682.928 377.155 683.02 377.25L688.17 382.39H682.37C682.238 382.393 682.113 382.446 682.019 382.539C681.926 382.633 681.873 382.758 681.87 382.89C681.87 383.023 681.923 383.15 682.017 383.244C682.11 383.337 682.238 383.39 682.37 383.39H688.17L683.02 388.54C682.928 388.635 682.876 388.763 682.876 388.895C682.876 389.028 682.928 389.155 683.02 389.25C683.116 389.34 683.243 389.39 683.375 389.39C683.507 389.39 683.634 389.34 683.73 389.25L688.87 384.1V389.89C688.87 390.023 688.923 390.15 689.017 390.244C689.11 390.337 689.238 390.39 689.37 390.39C689.503 390.39 689.63 390.337 689.724 390.244C689.817 390.15 689.87 390.023 689.87 389.89V384.1L695.02 389.25C695.116 389.34 695.243 389.39 695.375 389.39C695.507 389.39 695.634 389.34 695.73 389.25C695.822 389.155 695.874 389.028 695.874 388.895C695.874 388.763 695.822 388.635 695.73 388.54L690.58 383.39H696.37C696.503 383.39 696.63 383.337 696.724 383.244C696.817 383.15 696.87 383.023 696.87 382.89C696.862 382.763 696.806 382.643 696.713 382.556C696.62 382.468 696.498 382.42 696.37 382.42Z" fill="url(#paint44_linear)"/>
<path d="M717.37 382.42H711.58L716.73 377.28C716.822 377.185 716.874 377.058 716.874 376.925C716.874 376.793 716.822 376.665 716.73 376.57C716.684 376.523 716.628 376.486 716.567 376.461C716.506 376.435 716.441 376.422 716.375 376.422C716.309 376.422 716.244 376.435 716.183 376.461C716.122 376.486 716.067 376.523 716.02 376.57L710.87 381.72V375.92C710.87 375.787 710.817 375.66 710.724 375.566C710.63 375.473 710.503 375.42 710.37 375.42C710.238 375.423 710.113 375.476 710.019 375.569C709.926 375.663 709.873 375.788 709.87 375.92V381.72L704.73 376.54C704.684 376.493 704.628 376.456 704.567 376.431C704.506 376.405 704.441 376.392 704.375 376.392C704.309 376.392 704.244 376.405 704.183 376.431C704.122 376.456 704.067 376.493 704.02 376.54C703.928 376.635 703.876 376.763 703.876 376.895C703.876 377.028 703.928 377.155 704.02 377.25L709.17 382.39H703.37C703.238 382.393 703.113 382.446 703.019 382.539C702.926 382.633 702.873 382.758 702.87 382.89C702.87 383.023 702.923 383.15 703.017 383.244C703.11 383.337 703.238 383.39 703.37 383.39H709.17L704.02 388.54C703.928 388.635 703.876 388.763 703.876 388.895C703.876 389.028 703.928 389.155 704.02 389.25C704.116 389.34 704.243 389.39 704.375 389.39C704.507 389.39 704.634 389.34 704.73 389.25L709.87 384.1V389.89C709.87 390.023 709.923 390.15 710.017 390.244C710.11 390.337 710.238 390.39 710.37 390.39C710.503 390.39 710.63 390.337 710.724 390.244C710.817 390.15 710.87 390.023 710.87 389.89V384.1L716.02 389.25C716.116 389.34 716.243 389.39 716.375 389.39C716.507 389.39 716.634 389.34 716.73 389.25C716.822 389.155 716.874 389.028 716.874 388.895C716.874 388.763 716.822 388.635 716.73 388.54L711.58 383.39H717.37C717.503 383.39 717.63 383.337 717.724 383.244C717.817 383.15 717.87 383.023 717.87 382.89C717.862 382.763 717.806 382.643 717.713 382.556C717.62 382.468 717.498 382.42 717.37 382.42Z" fill="url(#paint45_linear)"/>
<path d="M738.37 382.42H732.58L737.73 377.28C737.822 377.185 737.874 377.058 737.874 376.925C737.874 376.793 737.822 376.665 737.73 376.57C737.684 376.523 737.628 376.486 737.567 376.461C737.506 376.435 737.441 376.422 737.375 376.422C737.309 376.422 737.244 376.435 737.183 376.461C737.122 376.486 737.067 376.523 737.02 376.57L731.87 381.72V375.92C731.87 375.787 731.817 375.66 731.724 375.566C731.63 375.473 731.503 375.42 731.37 375.42C731.238 375.423 731.113 375.476 731.019 375.569C730.926 375.663 730.873 375.788 730.87 375.92V381.72L725.73 376.54C725.684 376.493 725.628 376.456 725.567 376.431C725.506 376.405 725.441 376.392 725.375 376.392C725.309 376.392 725.244 376.405 725.183 376.431C725.122 376.456 725.067 376.493 725.02 376.54C724.928 376.635 724.876 376.763 724.876 376.895C724.876 377.028 724.928 377.155 725.02 377.25L730.17 382.39H724.37C724.238 382.393 724.113 382.446 724.019 382.539C723.926 382.633 723.873 382.758 723.87 382.89C723.87 383.023 723.923 383.15 724.017 383.244C724.11 383.337 724.238 383.39 724.37 383.39H730.17L725.02 388.54C724.928 388.635 724.876 388.763 724.876 388.895C724.876 389.028 724.928 389.155 725.02 389.25C725.116 389.34 725.243 389.39 725.375 389.39C725.507 389.39 725.634 389.34 725.73 389.25L730.87 384.1V389.89C730.87 390.023 730.923 390.15 731.017 390.244C731.11 390.337 731.238 390.39 731.37 390.39C731.503 390.39 731.63 390.337 731.724 390.244C731.817 390.15 731.87 390.023 731.87 389.89V384.1L737.02 389.25C737.116 389.34 737.243 389.39 737.375 389.39C737.507 389.39 737.634 389.34 737.73 389.25C737.822 389.155 737.874 389.028 737.874 388.895C737.874 388.763 737.822 388.635 737.73 388.54L732.58 383.39H738.37C738.503 383.39 738.63 383.337 738.724 383.244C738.817 383.15 738.87 383.023 738.87 382.89C738.862 382.763 738.806 382.643 738.713 382.556C738.62 382.468 738.498 382.42 738.37 382.42Z" fill="url(#paint46_linear)"/>
<path d="M759.37 382.42H753.58L758.73 377.28C758.822 377.185 758.874 377.058 758.874 376.925C758.874 376.793 758.822 376.665 758.73 376.57C758.684 376.523 758.628 376.486 758.567 376.461C758.506 376.435 758.441 376.422 758.375 376.422C758.309 376.422 758.244 376.435 758.183 376.461C758.122 376.486 758.067 376.523 758.02 376.57L752.87 381.72V375.92C752.87 375.787 752.817 375.66 752.724 375.566C752.63 375.473 752.503 375.42 752.37 375.42C752.238 375.423 752.113 375.476 752.019 375.569C751.926 375.663 751.873 375.788 751.87 375.92V381.72L746.73 376.54C746.684 376.493 746.628 376.456 746.567 376.431C746.506 376.405 746.441 376.392 746.375 376.392C746.309 376.392 746.244 376.405 746.183 376.431C746.122 376.456 746.067 376.493 746.02 376.54C745.928 376.635 745.876 376.763 745.876 376.895C745.876 377.028 745.928 377.155 746.02 377.25L751.17 382.39H745.37C745.238 382.393 745.113 382.446 745.019 382.539C744.926 382.633 744.873 382.758 744.87 382.89C744.87 383.023 744.923 383.15 745.017 383.244C745.11 383.337 745.238 383.39 745.37 383.39H751.17L746.02 388.54C745.928 388.635 745.876 388.763 745.876 388.895C745.876 389.028 745.928 389.155 746.02 389.25C746.116 389.34 746.243 389.39 746.375 389.39C746.507 389.39 746.634 389.34 746.73 389.25L751.87 384.1V389.89C751.87 390.023 751.923 390.15 752.017 390.244C752.11 390.337 752.238 390.39 752.37 390.39C752.503 390.39 752.63 390.337 752.724 390.244C752.817 390.15 752.87 390.023 752.87 389.89V384.1L758.02 389.25C758.116 389.34 758.243 389.39 758.375 389.39C758.507 389.39 758.634 389.34 758.73 389.25C758.822 389.155 758.874 389.028 758.874 388.895C758.874 388.763 758.822 388.635 758.73 388.54L753.58 383.39H759.37C759.503 383.39 759.63 383.337 759.724 383.244C759.817 383.15 759.87 383.023 759.87 382.89C759.862 382.763 759.806 382.643 759.713 382.556C759.62 382.468 759.498 382.42 759.37 382.42Z" fill="url(#paint47_linear)"/>
<defs>
<linearGradient id="paint0_linear" x1="0.000125606" y1="380.996" x2="1166.18" y2="380.996" gradientUnits="userSpaceOnUse">
<stop stop-color="#FF7171"/>
<stop offset="1" stop-color="#FF9163"/>
</linearGradient>
<linearGradient id="paint1_linear" x1="968.06" y1="645.303" x2="992.53" y2="645.303" gradientUnits="userSpaceOnUse">
<stop stop-color="#FF7171"/>
<stop offset="1" stop-color="#FF9163"/>
</linearGradient>
<linearGradient id="paint2_linear" x1="985.943" y1="657.828" x2="994.826" y2="657.828" gradientUnits="userSpaceOnUse">
<stop stop-color="#FF7171"/>
<stop offset="1" stop-color="#FF9163"/>
</linearGradient>
<linearGradient id="paint3_linear" x1="981.11" y1="630.245" x2="1009.37" y2="630.245" gradientUnits="userSpaceOnUse">
<stop stop-color="#FF7171"/>
<stop offset="1" stop-color="#FF9163"/>
</linearGradient>
<linearGradient id="paint4_linear" x1="1003.07" y1="646.81" x2="1016.62" y2="646.81" gradientUnits="userSpaceOnUse">
<stop stop-color="#FF7171"/>
<stop offset="1" stop-color="#FF9163"/>
</linearGradient>
<linearGradient id="paint5_linear" x1="1000.11" y1="608.307" x2="1026.55" y2="608.307" gradientUnits="userSpaceOnUse">
<stop stop-color="#FF7171"/>
<stop offset="1" stop-color="#FF9163"/>
</linearGradient>
<linearGradient id="paint6_linear" x1="1013.23" y1="586.563" x2="1045" y2="586.563" gradientUnits="userSpaceOnUse">
<stop stop-color="#FF7171"/>
<stop offset="1" stop-color="#FF9163"/>
</linearGradient>
<linearGradient id="paint7_linear" x1="1024.4" y1="562.871" x2="1058.5" y2="562.871" gradientUnits="userSpaceOnUse">
<stop stop-color="#FF7171"/>
<stop offset="1" stop-color="#FF9163"/>
</linearGradient>
<linearGradient id="paint8_linear" x1="1038.32" y1="539.792" x2="1071.32" y2="539.792" gradientUnits="userSpaceOnUse">
<stop stop-color="#FF7171"/>
<stop offset="1" stop-color="#FF9163"/>
</linearGradient>
<linearGradient id="paint9_linear" x1="1049.84" y1="515.6" x2="1079.58" y2="515.6" gradientUnits="userSpaceOnUse">
<stop stop-color="#FF7171"/>
<stop offset="1" stop-color="#FF9163"/>
</linearGradient>
<linearGradient id="paint10_linear" x1="1056.33" y1="490.094" x2="1087.33" y2="490.094" gradientUnits="userSpaceOnUse">
<stop stop-color="#FF7171"/>
<stop offset="1" stop-color="#FF9163"/>
</linearGradient>
<linearGradient id="paint11_linear" x1="1063.41" y1="463.674" x2="1092.09" y2="463.674" gradientUnits="userSpaceOnUse">
<stop stop-color="#FF7171"/>
<stop offset="1" stop-color="#FF9163"/>
</linearGradient>
<linearGradient id="paint12_linear" x1="1069.31" y1="437.836" x2="1095.17" y2="437.836" gradientUnits="userSpaceOnUse">
<stop stop-color="#FF7171"/>
<stop offset="1" stop-color="#FF9163"/>
</linearGradient>
<linearGradient id="paint13_linear" x1="1071.91" y1="411.643" x2="1096.91" y2="411.643" gradientUnits="userSpaceOnUse">
<stop stop-color="#FF7171"/>
<stop offset="1" stop-color="#FF9163"/>
</linearGradient>
<linearGradient id="paint14_linear" x1="1076.8" y1="384.153" x2="1098.8" y2="384.153" gradientUnits="userSpaceOnUse">
<stop stop-color="#FF7171"/>
<stop offset="1" stop-color="#FF9163"/>
</linearGradient>
<linearGradient id="paint15_linear" x1="1082.57" y1="356.299" x2="1100.09" y2="356.299" gradientUnits="userSpaceOnUse">
<stop stop-color="#FF7171"/>
<stop offset="1" stop-color="#FF9163"/>
</linearGradient>
<linearGradient id="paint16_linear" x1="1088.06" y1="328.535" x2="1103.99" y2="328.535" gradientUnits="userSpaceOnUse">
<stop stop-color="#FF7171"/>
<stop offset="1" stop-color="#FF9163"/>
</linearGradient>
<linearGradient id="paint17_linear" x1="1100.93" y1="300.911" x2="1108.74" y2="300.911" gradientUnits="userSpaceOnUse">
<stop stop-color="#FF7171"/>
<stop offset="1" stop-color="#FF9163"/>
</linearGradient>
<linearGradient id="paint18_linear" x1="1113.21" y1="265.878" x2="1133.3" y2="265.878" gradientUnits="userSpaceOnUse">
<stop stop-color="#FF7171"/>
<stop offset="1" stop-color="#FF9163"/>
</linearGradient>
<linearGradient id="paint19_linear" x1="1022.76" y1="627.526" x2="1046.53" y2="627.526" gradientUnits="userSpaceOnUse">
<stop stop-color="#FF7171"/>
<stop offset="1" stop-color="#FF9163"/>
</linearGradient>
<linearGradient id="paint20_linear" x1="1041.37" y1="606.061" x2="1067.05" y2="606.061" gradientUnits="userSpaceOnUse">
<stop stop-color="#FF7171"/>
<stop offset="1" stop-color="#FF9163"/>
</linearGradient>
<linearGradient id="paint21_linear" x1="1056.88" y1="578.629" x2="1092.81" y2="578.629" gradientUnits="userSpaceOnUse">
<stop stop-color="#FF7171"/>
<stop offset="1" stop-color="#FF9163"/>
</linearGradient>
<linearGradient id="paint22_linear" x1="1070.02" y1="553.472" x2="1105.57" y2="553.472" gradientUnits="userSpaceOnUse">
<stop stop-color="#FF7171"/>
<stop offset="1" stop-color="#FF9163"/>
</linearGradient>
<linearGradient id="paint23_linear" x1="1078.37" y1="525.539" x2="1116.15" y2="525.539" gradientUnits="userSpaceOnUse">
<stop stop-color="#FF7171"/>
<stop offset="1" stop-color="#FF9163"/>
</linearGradient>
<linearGradient id="paint24_linear" x1="1085.43" y1="498.454" x2="1123" y2="498.454" gradientUnits="userSpaceOnUse">
<stop stop-color="#FF7171"/>
<stop offset="1" stop-color="#FF9163"/>
</linearGradient>
<linearGradient id="paint25_linear" x1="1090.02" y1="466.588" x2="1124.6" y2="466.588" gradientUnits="userSpaceOnUse">
<stop stop-color="#FF7171"/>
<stop offset="1" stop-color="#FF9163"/>
</linearGradient>
<linearGradient id="paint26_linear" x1="1094.29" y1="440.063" x2="1125.84" y2="440.063" gradientUnits="userSpaceOnUse">
<stop stop-color="#FF7171"/>
<stop offset="1" stop-color="#FF9163"/>
</linearGradient>
<linearGradient id="paint27_linear" x1="1094.21" y1="413.571" x2="1127.67" y2="413.571" gradientUnits="userSpaceOnUse">
<stop stop-color="#FF7171"/>
<stop offset="1" stop-color="#FF9163"/>
</linearGradient>
<linearGradient id="paint28_linear" x1="1097.09" y1="384.09" x2="1120.2" y2="384.09" gradientUnits="userSpaceOnUse">
<stop stop-color="#FF7171"/>
<stop offset="1" stop-color="#FF9163"/>
</linearGradient>
<linearGradient id="paint29_linear" x1="1099.59" y1="358.279" x2="1124.41" y2="358.279" gradientUnits="userSpaceOnUse">
<stop stop-color="#FF7171"/>
<stop offset="1" stop-color="#FF9163"/>
</linearGradient>
<linearGradient id="paint30_linear" x1="1101.72" y1="331.519" x2="1121.1" y2="331.519" gradientUnits="userSpaceOnUse">
<stop stop-color="#FF7171"/>
<stop offset="1" stop-color="#FF9163"/>
</linearGradient>
<linearGradient id="paint31_linear" x1="1105.02" y1="303.232" x2="1132.17" y2="303.232" gradientUnits="userSpaceOnUse">
<stop stop-color="#FF7171"/>
<stop offset="1" stop-color="#FF9163"/>
</linearGradient>
<linearGradient id="paint32_linear" x1="1113.27" y1="272.221" x2="1153.27" y2="272.221" gradientUnits="userSpaceOnUse">
<stop stop-color="#FF7171"/>
<stop offset="1" stop-color="#FF9163"/>
</linearGradient>
<linearGradient id="paint33_linear" x1="1125.63" y1="254.903" x2="1166.07" y2="254.903" gradientUnits="userSpaceOnUse">
<stop stop-color="#FF7171"/>
<stop offset="1" stop-color="#FF9163"/>
</linearGradient>
<linearGradient id="paint34_linear" x1="300.87" y1="379.392" x2="454.87" y2="379.392" gradientUnits="userSpaceOnUse">
<stop stop-color="#FF7171"/>
<stop offset="1" stop-color="#FF9163"/>
</linearGradient>
<linearGradient id="paint35_linear" x1="278.87" y1="379.527" x2="476.87" y2="379.527" gradientUnits="userSpaceOnUse">
<stop stop-color="#FF7171"/>
<stop offset="1" stop-color="#FF9163"/>
</linearGradient>
<linearGradient id="paint36_linear" x1="768.87" y1="445.034" x2="837.87" y2="445.034" gradientUnits="userSpaceOnUse">
<stop stop-color="#FF7171"/>
<stop offset="1" stop-color="#FF9163"/>
</linearGradient>
<linearGradient id="paint37_linear" x1="534.87" y1="382.951" x2="549.87" y2="382.951" gradientUnits="userSpaceOnUse">
<stop stop-color="#FF7171"/>
<stop offset="1" stop-color="#FF9163"/>
</linearGradient>
<linearGradient id="paint38_linear" x1="555.87" y1="382.951" x2="570.87" y2="382.951" gradientUnits="userSpaceOnUse">
<stop stop-color="#FF7171"/>
<stop offset="1" stop-color="#FF9163"/>
</linearGradient>
<linearGradient id="paint39_linear" x1="576.87" y1="382.951" x2="591.87" y2="382.951" gradientUnits="userSpaceOnUse">
<stop stop-color="#FF7171"/>
<stop offset="1" stop-color="#FF9163"/>
</linearGradient>
<linearGradient id="paint40_linear" x1="597.87" y1="382.951" x2="612.87" y2="382.951" gradientUnits="userSpaceOnUse">
<stop stop-color="#FF7171"/>
<stop offset="1" stop-color="#FF9163"/>
</linearGradient>
<linearGradient id="paint41_linear" x1="618.87" y1="382.951" x2="633.87" y2="382.951" gradientUnits="userSpaceOnUse">
<stop stop-color="#FF7171"/>
<stop offset="1" stop-color="#FF9163"/>
</linearGradient>
<linearGradient id="paint42_linear" x1="639.87" y1="382.951" x2="654.87" y2="382.951" gradientUnits="userSpaceOnUse">
<stop stop-color="#FF7171"/>
<stop offset="1" stop-color="#FF9163"/>
</linearGradient>
<linearGradient id="paint43_linear" x1="660.87" y1="382.951" x2="675.87" y2="382.951" gradientUnits="userSpaceOnUse">
<stop stop-color="#FF7171"/>
<stop offset="1" stop-color="#FF9163"/>
</linearGradient>
<linearGradient id="paint44_linear" x1="681.87" y1="382.951" x2="696.87" y2="382.951" gradientUnits="userSpaceOnUse">
<stop stop-color="#FF7171"/>
<stop offset="1" stop-color="#FF9163"/>
</linearGradient>
<linearGradient id="paint45_linear" x1="702.87" y1="382.951" x2="717.87" y2="382.951" gradientUnits="userSpaceOnUse">
<stop stop-color="#FF7171"/>
<stop offset="1" stop-color="#FF9163"/>
</linearGradient>
<linearGradient id="paint46_linear" x1="723.87" y1="382.951" x2="738.87" y2="382.951" gradientUnits="userSpaceOnUse">
<stop stop-color="#FF7171"/>
<stop offset="1" stop-color="#FF9163"/>
</linearGradient>
<linearGradient id="paint47_linear" x1="744.87" y1="382.951" x2="759.87" y2="382.951" gradientUnits="userSpaceOnUse">
<stop stop-color="#FF7171"/>
<stop offset="1" stop-color="#FF9163"/>
</linearGradient>
</defs>
</svg>
