<svg width="154" height="387" viewBox="0 0 154 387" fill="none" xmlns="http://www.w3.org/2000/svg">
<path d="M152.36 85.07C152.332 83.8612 152.181 82.6584 151.91 81.48C151.01 78.1 148.98 74.01 145.64 72.99C142.191 71.9342 138.861 70.5268 135.7 68.79C135.1 58.07 137.56 47.1 134.88 36.71C133.88 32.91 132.23 29.27 131.79 25.38C131.24 20.54 132.56 15.38 130.63 10.92C129.11 7.4 125.77 4.91998 122.18 3.61998C118.59 2.31998 114.72 1.96998 110.91 1.61998C106.11 1.22998 90.57 -0.609991 85.15 3.68001C84.7761 3.97022 84.4402 4.30618 84.15 4.68001V4.68001C84.0302 4.84494 83.9232 5.01877 83.83 5.2L83.78 5.27998C83.6713 5.48843 83.581 5.70594 83.5099 5.93001V5.93001C83.4343 6.17534 83.3775 6.42606 83.34 6.68001C83.34 6.76001 83.34 6.84 83.34 6.92C83.34 7 83.34 7.27 83.34 7.45V7.71999C83.34 7.89999 83.34 8.08001 83.34 8.27001C83.34 8.46001 83.34 8.41 83.34 8.48C83.41 9.38 83.54 10.28 83.54 11.17C83.5506 11.6131 83.5104 12.0561 83.42 12.49C83.087 13.6694 82.5227 14.7708 81.7599 15.73V15.73L81.58 15.99C81.47 16.15 81.3599 16.3 81.2599 16.46C81.1599 16.62 81.0799 16.74 80.9999 16.88C80.9199 17.02 80.84 17.11 80.77 17.24C80.6734 17.4048 80.5866 17.5751 80.5099 17.75C80.5099 17.85 80.4 17.94 80.36 18.04C80.2349 18.3104 80.1344 18.5915 80.0599 18.88C79.8257 19.7488 79.8052 20.6615 79.9999 21.54C80.2696 22.6618 80.7333 23.7278 81.37 24.69C81.62 25.1 81.89 25.5 82.17 25.9L82.87 26.85C82.7393 27.7778 82.6691 28.7131 82.66 29.65C82.6605 32.7814 83.3717 35.8719 84.7402 38.6884C86.1086 41.505 88.0985 43.9742 90.5599 45.91C90.9561 50.1331 90.9126 54.3859 90.43 58.6C90.34 59.48 90.23 60.37 90.11 61.25C89.99 62.13 89.9 62.71 89.78 63.44C88.3167 63.6496 86.8252 63.5369 85.41 63.11C84.7571 62.8188 84.0896 62.5618 83.41 62.34C80.5 61.61 77.53 64.51 74.65 63.63C74.65 63.77 74.57 63.9 74.52 64.03C73.9188 63.6564 73.2277 63.4525 72.52 63.44C70.81 63.36 69.42 62.12 68.18 60.95L64.37 57.36C64.1216 57.1402 63.9 56.8918 63.71 56.62C63.5052 56.2311 63.3506 55.8178 63.2499 55.39C62.6099 53.32 61.0599 51.67 59.5599 50.1C59.2757 49.7419 58.8987 49.4687 58.47 49.31C58.3042 49.2851 58.1357 49.2851 57.97 49.31C57.8679 49.1703 57.7577 49.0367 57.6399 48.91C57.3811 48.6129 57.1039 48.3324 56.8099 48.07C54.9899 46.39 54.81 44.95 53.23 43.07C51.8519 41.277 50.6021 39.389 49.49 37.42C49.36 36.37 49.18 35.29 48.96 34.2C48.4558 31.7045 47.7227 29.2609 46.77 26.9L44.77 22.47L44.54 22.7C43.09 20.54 41.54 19.36 40.15 19.64C37.82 20.12 36.67 24.64 37.04 30.55L37.84 36.55C37.84 36.7 37.9099 36.85 37.9499 37C37.806 37.711 37.7324 38.4345 37.73 39.16C37.73 40 38.51 40.62 38.92 41.37C39.5762 42.3859 39.9236 43.5705 39.92 44.78C39.87 45.21 39.74 45.62 39.72 46.04C39.7744 46.9795 40.101 47.8829 40.66 48.64L45.66 57.04L46.66 58.8L46.72 58.88C47.0356 59.4941 47.4953 60.0226 48.0599 60.42C48.2559 62.5233 48.8141 64.5769 49.71 66.49C49.88 66.87 50.07 67.23 50.27 67.59C51.6144 69.7998 53.1972 71.8554 54.99 73.72L57.37 76.39C59.72 79.01 62.07 81.64 64.62 84.06C65.5328 85.031 66.6357 85.8037 67.86 86.33C68.4597 86.5697 69.112 86.647 69.7512 86.554C70.3903 86.4609 70.9935 86.2008 71.4999 85.8C71.4999 87.04 71.4999 88.28 71.4999 89.52C71.8712 89.5428 72.2297 89.6644 72.5383 89.872C72.847 90.0797 73.0945 90.3659 73.2556 90.7012C73.4166 91.0366 73.4852 91.4088 73.4543 91.7795C73.4235 92.1502 73.2942 92.506 73.08 92.81C70.98 98.2 68.86 103.64 65.68 108.47C67.9246 109.799 70.0055 111.386 71.8799 113.2C73.0963 114.548 74.1782 116.012 75.11 117.57C75.2 118.31 75.2699 119.04 75.3099 119.77C76.0499 131.69 71.4399 143.52 67.3099 154.88C66.1199 158.1 64.82 161.47 64.92 164.82C64.1363 165.303 63.3877 165.841 62.68 166.43C63.5 168.57 63.18 170.48 63.09 172.77C63.0602 174.143 62.7788 175.499 62.2599 176.77C61.8252 177.651 61.3445 178.509 60.8199 179.34C58.2299 183.91 57.6599 189.34 57.1399 194.56C56.8299 197.71 58.05 201.56 56.62 204.38C54.15 209.22 51.96 214.38 51.62 219.76C51.6081 220.971 51.4537 222.176 51.16 223.35C50.85 224.35 50.3 225.2 50.02 226.18C49.7317 227.493 49.6641 228.845 49.8199 230.18C50.0102 234.973 49.2979 239.76 47.72 244.29C46.47 247.86 45.0899 251.68 46.0699 255.35C43.6574 257.884 42.1675 261.156 41.84 264.64C41.8142 265.531 41.707 266.418 41.52 267.29C41.2144 268.181 40.8119 269.036 40.3199 269.84C38.3069 273.506 37.3644 277.664 37.6 281.84C34.6 285.91 33.1 290.93 32.21 295.92C31.32 300.91 30.93 305.99 29.79 310.92C28.27 317.44 25.52 324.03 24.98 330.71C21.74 332.78 20.34 336.79 19.72 340.58C19.1 344.37 19 348.35 17.41 351.85C16.59 353.67 15.4099 355.3 14.6299 357.16C14.0829 358.641 13.6811 360.171 13.43 361.73C12.95 364.17 12.53 366.89 13.12 369.23C12.2717 370.128 11.2819 370.882 10.1899 371.46C10.3499 370.84 10.48 370.22 10.59 369.59C8.00996 371.93 3.32995 371.11 1.26996 373.92C0.651534 374.826 0.410072 375.937 0.596737 377.018C0.783403 378.098 1.38353 379.064 2.26996 379.71C2.91451 380.103 3.61143 380.402 4.33996 380.6C9.33996 382.2 14.48 383.81 19.62 382.96C20.2277 382.894 20.816 382.707 21.35 382.41C22.0186 381.918 22.5686 381.282 22.96 380.55C23.73 379.33 24.4999 378.11 25.2599 376.89C27.1017 377.44 28.9752 377.877 30.87 378.2C31.06 379.8 31.2 381.4 31.27 383C32.27 383.2 33.61 383.26 34.08 382.33C34.2225 381.978 34.2807 381.598 34.2499 381.22C34.2499 380.51 34.35 379.57 34.41 378.61H34.61C37.661 378.733 40.6966 378.119 43.46 376.82C42.39 367.96 45.92 359.3 48.98 350.92C52.21 342.1 54.98 333.12 57.77 324.14C59.77 317.82 61.9799 311.7 63.9399 305.37C66.4066 297.37 68.8833 289.37 71.37 281.37C72.45 277.85 73.54 274.37 74.78 270.87C77.3903 263.788 80.4877 256.895 84.05 250.24C85.05 248.35 86.05 246.48 86.87 244.52C87.87 242.13 88.5799 239.63 89.3799 237.16C91.1232 232.092 93.2218 227.153 95.66 222.38C95.73 222.25 95.78 222.13 95.85 222.01C96.66 225.32 97.4699 228.68 98.0099 232.01C98.7408 236.093 98.7983 240.268 98.18 244.37C97.7 247.16 96.79 249.92 96.9 252.75C97.05 256.66 99.14 260.21 100.17 263.98C100.834 266.801 101.209 269.683 101.29 272.58C101.57 277.08 104.01 282.13 102.29 286.3C96.94 299.51 99.53 314.43 96.48 328.3C94.91 335.42 90.1 342.11 90.48 349.39C90.7466 354.557 91.2 359.71 91.84 364.85C91.9941 366.472 92.4165 368.057 93.09 369.54C93.489 370.32 93.947 371.069 94.46 371.78C94.02 371.95 93.65 372.4 93.33 373.35C92.51 375.85 93.33 378.95 95.55 380.35C96.4545 380.834 97.4299 381.171 98.4399 381.35C99.7996 381.737 101.206 381.932 102.62 381.93C103.06 381.906 103.497 381.853 103.93 381.77C105.476 382.419 107.054 382.987 108.66 383.47C108.66 383.88 108.74 384.29 108.79 384.7C108.793 384.914 108.84 385.126 108.93 385.32C109.02 385.515 109.149 385.689 109.31 385.83C109.56 385.946 109.836 385.995 110.11 385.97H115.54C115.54 385.52 115.54 385.06 115.54 384.61C116.161 384.675 116.789 384.609 117.384 384.416C117.978 384.223 118.525 383.907 118.99 383.49C119.471 382.878 119.812 382.168 119.99 381.41C121.47 376.39 122.94 371.367 124.4 366.34C126.151 360.784 126.879 354.956 126.55 349.14C124.62 330.71 128.86 312.22 127.48 293.74C126.649 282.633 127.221 271.465 129.18 260.5C129.63 258.02 130.18 255.5 130.38 253.03C130.82 248.37 130.28 243.66 130.61 239.03C130.72 237.41 130.94 235.8 131.14 234.19C132.51 224.197 133.228 214.126 133.29 204.04C133.259 200.698 133.052 197.36 132.67 194.04C133.713 193.774 134.659 193.22 135.4 192.44C136.29 191.28 136.06 189.65 136.05 188.17C136.05 184.63 137.54 181.29 138.74 177.95C140.28 173.343 141.542 168.648 142.52 163.89C143.553 160.056 144.117 156.11 144.2 152.14C144.2 151.74 144.18 151.34 144.14 150.94C144.517 150.679 144.831 150.337 145.06 149.94C145.321 149.354 145.483 148.729 145.54 148.09C145.9 145.54 146.27 142.98 146.63 140.42C146.897 138.587 147.16 136.757 147.42 134.93L150.6 112.74C150.87 110.81 151.15 108.89 151.42 106.97L152.25 101.23C152.34 100.55 152.44 99.87 152.51 99.23C154.95 95.15 152.62 89.71 152.36 85.07ZM125.83 168.15C124.65 165.35 123.55 162.48 123.83 159.46H123.72C123.983 158.531 123.937 157.541 123.59 156.64C123.28 155.91 122.74 155.29 122.41 154.56C122.055 153.669 121.872 152.719 121.87 151.76C121.622 145.678 122.102 139.588 123.3 133.62C123.43 132.92 123.57 132.21 123.7 131.51C124.119 131.268 124.503 130.968 124.84 130.62C125.366 130.02 125.801 129.346 126.13 128.62C127.26 126.35 128.29 124.04 129.24 121.69C129.55 120.93 130 120.05 130.77 119.86C130.61 125.71 131.21 131.68 128.83 136.96C128.378 137.811 128.042 138.719 127.83 139.66C127.61 141.15 128.23 142.66 128.01 144.14C127.9 144.91 127.57 145.62 127.44 146.38C127.341 146.753 127.343 147.146 127.445 147.518C127.547 147.89 127.745 148.229 128.02 148.5C128.152 148.593 128.297 148.667 128.45 148.72C128.39 149.12 128.34 149.53 128.3 149.92C128.22 150.74 128.18 151.51 128.13 151.99C127.9 154.436 127.81 156.894 127.86 159.35C127.86 162 127.96 164.65 127.92 167.35C127.957 168.125 127.827 168.899 127.54 169.62C127.342 169.992 127.085 170.329 126.78 170.62C126.49 169.72 126.17 168.93 125.83 168.15Z" fill="url(#paint0_linear)"/>
<path d="M46.8923 52.1195C49.9438 51.4943 50.9822 43.9829 49.2117 35.3425C47.4412 26.702 43.5323 20.2044 40.4808 20.8297C37.4293 21.4549 36.3908 28.9663 38.1613 37.6068C39.9318 46.2472 43.8408 52.7448 46.8923 52.1195Z" fill="#FBBEBE"/>
<path d="M93.4901 373.54C92.6701 376.02 93.49 379.12 95.71 380.47C96.6094 380.949 97.5775 381.287 98.58 381.47C99.9367 381.853 101.34 382.045 102.75 382.04C104.48 381.96 106.14 381.28 107.87 381.04C108.07 380.99 108.281 381.018 108.46 381.12C108.547 381.213 108.611 381.324 108.649 381.445C108.688 381.566 108.698 381.694 108.68 381.82C108.699 382.803 108.772 383.785 108.9 384.76C108.901 384.974 108.949 385.186 109.038 385.381C109.128 385.576 109.258 385.749 109.42 385.89C109.67 386.006 109.946 386.055 110.22 386.03H115.64C115.763 381.268 115.241 376.512 114.09 371.89C114.015 371.536 113.88 371.198 113.69 370.89C113.23 370.386 112.626 370.037 111.96 369.89C110.635 369.339 109.204 369.089 107.77 369.16C106.02 369.39 104.56 370.52 103.07 371.46C101.58 372.4 99.5501 373.23 97.7401 372.75C95.9301 372.27 94.4201 370.76 93.4901 373.54Z" fill="#3F3D56"/>
<path d="M13.9101 369.15C12.3863 370.782 10.5175 372.052 8.44005 372.87L7.52006 373.31C7.39277 373.358 7.28418 373.446 7.21007 373.56C7.19249 373.638 7.19235 373.718 7.20964 373.796C7.22693 373.874 7.2612 373.947 7.31004 374.01C8.0755 375.194 9.20677 376.096 10.5317 376.578C11.8567 377.059 13.3028 377.095 14.6501 376.68C15.2455 376.531 15.7972 376.243 16.2601 375.84C17.0223 374.936 17.459 373.802 17.5 372.62C17.8028 371.401 17.7507 370.121 17.3501 368.93C15.9601 365.8 15.4501 367.22 13.9101 369.15Z" fill="#FBBEBE"/>
<path d="M34.69 381.47C34.7208 381.848 34.6626 382.228 34.52 382.58C34.05 383.5 32.74 383.45 31.72 383.25C31.5655 379.857 31.1543 376.481 30.49 373.15C28.55 373.06 27.15 374.9 26.11 376.55L23.43 380.8C23.0424 381.532 22.4956 382.167 21.83 382.66C21.2942 382.953 20.7067 383.14 20.1 383.21C14.98 384.06 9.81004 382.45 4.87004 380.85C4.14235 380.655 3.44557 380.359 2.80003 379.97C1.91847 379.323 1.32187 378.359 1.13542 377.282C0.948976 376.204 1.18717 375.096 1.80003 374.19C3.87003 371.39 8.52002 372.19 11.1 369.87C10.8308 371.502 10.3883 373.101 9.78001 374.64C13.23 374.12 15.55 370.96 18.33 368.85C19.0285 368.257 19.8695 367.858 20.77 367.69C21.4439 367.633 22.1225 367.705 22.77 367.9C25.9756 368.707 28.9745 370.183 31.57 372.23C32.62 373.06 34.26 374.23 34.72 375.51C35.21 377.04 34.69 379.84 34.69 381.47Z" fill="#3F3D56"/>
<path d="M103.48 51.53C114.89 51.53 124.14 42.2802 124.14 30.87C124.14 19.4598 114.89 10.21 103.48 10.21C92.0698 10.21 82.8201 19.4598 82.8201 30.87C82.8201 42.2802 92.0698 51.53 103.48 51.53Z" fill="#FBBEBE"/>
<path d="M144.18 152.85C144.097 156.8 143.536 160.725 142.51 164.54C141.532 169.278 140.27 173.953 138.73 178.54C137.54 181.87 136.05 185.21 136.06 188.74C136.06 190.21 136.3 191.84 135.4 193C134.598 193.814 133.588 194.392 132.48 194.67C131.927 194.817 131.416 195.091 130.989 195.472C130.562 195.852 130.23 196.328 130.02 196.86C129.081 195.457 128.378 193.91 127.94 192.28C126.147 186.787 124.48 181.263 122.94 175.71C122.799 175.39 122.738 175.041 122.763 174.693C122.787 174.344 122.896 174.007 123.08 173.71C123.334 173.489 123.63 173.323 123.95 173.22C124.975 172.802 125.914 172.199 126.72 171.44C127.098 171.104 127.41 170.701 127.64 170.25C127.931 169.533 128.064 168.763 128.03 167.99C128.03 165.34 128.03 162.7 127.96 160.05C127.918 157.603 128.012 155.156 128.24 152.72C128.24 152.24 128.33 151.47 128.41 150.65C128.56 149.08 128.86 147.26 129.71 146.65C130.98 145.8 134.78 146.94 136.22 147.14C138.7 147.48 141.22 147.88 143.64 148.35C143.992 149.824 144.173 151.334 144.18 152.85Z" fill="#3F3D56"/>
<path d="M60.7601 54C59.9601 55.6 58.04 56.37 56.56 57.38L51.4901 60.86C51.1514 61.1652 50.7543 61.3988 50.323 61.5466C49.8916 61.6944 49.4348 61.7534 48.9801 61.72C48.5675 61.5676 48.1895 61.3344 47.8684 61.0338C47.5473 60.7333 47.2894 60.3716 47.1101 59.97C47.1132 59.9434 47.1132 59.9166 47.1101 59.89L46.06 58.13L41.06 49.75C40.5042 48.9996 40.1808 48.1025 40.1301 47.17C40.1301 46.74 40.2801 46.34 40.3201 45.91C40.3336 44.7022 39.9853 43.5181 39.3201 42.51C38.9201 41.76 38.1201 41.14 38.1401 40.3C38.1018 39.1962 38.2924 38.0965 38.7001 37.07C39.2247 36.1204 39.9773 35.3163 40.8901 34.73C41.3601 34.39 41.8401 34.07 42.3401 33.73C42.6055 33.5487 42.8997 33.4135 43.2101 33.33C44.0401 33.16 44.8601 33.85 45.7001 33.88C49.3101 36.3 50.7001 40.88 53.5401 44.18C55.1401 46.06 55.3001 47.5 57.1101 49.18C57.4001 49.44 57.6801 49.72 57.9501 50.01C58.3079 50.4003 58.6107 50.8377 58.8501 51.31C59.1801 52.17 61.1701 53.18 60.7601 54Z" fill="#3F3D56"/>
<path d="M96.22 51.54C97.71 54.69 98.87 58.15 98.44 61.61C98.352 62.5473 98.0546 63.4529 97.57 64.26C96.13 66.47 93.11 66.87 90.48 67C89.9259 66.9535 89.3681 67.0179 88.8392 67.1896C88.3103 67.3613 87.8211 67.6369 87.4 68C87.0486 68.5107 86.8767 69.1235 86.9111 69.7425C86.9454 70.3614 87.1842 70.9514 87.59 71.42C88.4352 72.322 89.4846 73.0079 90.65 73.42C94.81 75.25 99.3 76.76 103.82 76.34C105.92 76.14 107.96 75.53 110.05 75.22C112.328 74.9732 114.618 74.8464 116.91 74.84C119.63 74.74 122.34 74.47 125.05 74.2L132.23 73.49C132.622 73.4956 133.003 73.3568 133.3 73.1C133.83 72.48 133.15 71.57 132.49 71.1C128.68 68.28 123.83 66.34 121.66 62.1C120.66 60.1 120.35 57.72 119.61 55.56C118.87 53.4 117.69 51.45 117.23 49.25C116.985 47.3201 116.874 45.3753 116.9 43.43C116.925 41.4684 116.211 39.5692 114.9 38.11C113.47 36.78 111.4 36.44 109.46 36.36C104.68 36.15 99.59 37.29 96.2 40.66C95.29 41.57 94.51 42.66 93.57 43.48C92.63 44.3 91.35 44.54 91.97 45.62C92.59 46.7 93.81 47.37 94.47 48.32C95.1381 49.3451 95.7233 50.4218 96.22 51.54V51.54Z" fill="#FBBEBE"/>
<path d="M136.95 80.63C135.689 88.3302 133.638 95.8801 130.83 103.16C129.418 106.447 128.216 109.821 127.23 113.26C126.46 116.36 126.61 119.68 125.9 122.79C125.02 126.66 124.14 130.54 123.43 134.44C122.239 140.395 121.762 146.472 122.01 152.54C122.012 153.496 122.196 154.442 122.55 155.33C122.88 156.05 123.41 156.67 123.72 157.41C123.952 158.06 124.047 158.751 123.999 159.439C123.95 160.128 123.76 160.799 123.44 161.41C122.927 162.555 122.231 163.608 121.38 164.53C112.06 167.31 102.09 166.4 92.3801 166.99C83.4301 167.53 74.3801 169.37 65.5601 167.84C64.5601 163.84 66.2301 159.65 67.6601 155.75C71.8101 144.42 76.4001 132.62 75.6601 120.75C75.5825 119.366 75.4256 117.987 75.1901 116.62C73.7401 108.21 75.3201 99.5 77.8501 91.35C79.4201 86.27 79.3501 80.86 78.9901 75.57C78.8119 73.8523 78.7885 72.1219 78.9201 70.4C79.0648 68.6417 79.718 66.9635 80.8001 65.57C80.8001 65.5 80.8901 65.43 80.9401 65.36C80.9901 65.29 81.3801 65.3 81.6901 65.36C81.7692 65.3936 81.8542 65.4109 81.9401 65.4109C82.026 65.4109 82.111 65.3936 82.1901 65.36L82.3001 65.29C82.3425 65.2599 82.3931 65.2437 82.4451 65.2437C82.4971 65.2437 82.5478 65.2599 82.5901 65.29C82.8201 65.43 82.9501 65.91 83.4501 66C84.1889 66.1118 84.9334 66.1819 85.6801 66.21C86.5782 66.2367 87.4705 66.3641 88.3401 66.59H88.4601C89.7605 66.8093 91.0954 66.6958 92.3401 66.26C93.1685 66.053 93.9679 65.744 94.7201 65.34C94.9401 65.1 96.3201 64.88 96.6001 64.71C97.5101 64.16 97.3101 61.58 97.5001 60.52C97.6051 59.4569 97.8575 58.4136 98.2501 57.42C98.7056 56.6867 99.3339 56.0763 100.08 55.6422C100.826 55.2081 101.668 54.9636 102.53 54.93C104.252 54.889 105.973 55.0433 107.66 55.39C111.39 55.92 115.21 55.83 118.87 56.69C120.71 57.12 122.72 57.77 124.41 56.93C124.87 57.04 124.94 57.44 124.94 57.93C124.897 58.3955 124.803 58.8549 124.66 59.3C124.02 62.06 126.19 64.6 128.19 66.6C129.035 67.5428 130.032 68.3371 131.14 68.95C132.14 69.41 133.14 69.6 134.14 70.1C134.95 70.5322 135.638 71.1616 136.14 71.93C136.717 72.8111 137.105 73.8018 137.28 74.84C137.495 76.7749 137.383 78.7321 136.95 80.63Z" fill="#3F3D56"/>
<path opacity="0.1" d="M136.95 80.63C135.689 88.3303 133.638 95.8801 130.83 103.16C129.418 106.447 128.216 109.821 127.23 113.26C126.46 116.36 126.61 119.68 125.9 122.79C125.02 126.66 124.14 130.54 123.43 134.44C123.22 134.56 123 134.67 122.78 134.77C121.536 135.364 120.217 135.788 118.86 136.03C116.422 136.325 113.953 136.244 111.54 135.79L97.27 133.88C91.57 133.11 85.5 132.18 81.27 128.32C78.92 126.2 77.38 123.4 75.69 120.7C75.6124 119.315 75.4555 117.937 75.22 116.57C73.77 108.16 75.35 99.45 77.88 91.3C79.45 86.22 79.38 80.81 79.02 75.52C78.8418 73.8022 78.8184 72.072 78.95 70.35C79.0947 68.5917 79.7479 66.9134 80.83 65.52C81.1221 65.4343 81.4194 65.3676 81.72 65.32V65.32C81.9213 65.2793 82.1251 65.2526 82.33 65.24H82.62C82.9569 65.2413 83.2925 65.2815 83.62 65.36C84.3013 65.5769 84.9692 65.8341 85.62 66.13H85.74C86.5974 66.4124 87.4979 66.541 88.4 66.51C89.72 66.51 91.08 66.3 92.4 66.21C94.0306 65.9554 95.6995 66.2547 97.14 67.06C98.0697 67.8072 98.9514 68.6121 99.78 69.47C100.781 70.2559 101.906 70.8677 103.11 71.28C111.718 74.5657 121.268 74.3648 129.73 70.72C130.543 70.2578 131.465 70.023 132.4 70.04C133.091 70.1752 133.745 70.4546 134.32 70.86C134.92 71.21 135.51 71.55 136.12 71.86C136.697 72.7411 137.085 73.7318 137.26 74.77C137.489 76.7268 137.384 78.7083 136.95 80.63V80.63Z" fill="black"/>
<path d="M145.66 74.01C141.678 72.7937 137.852 71.1156 134.26 69.01C133.683 68.6074 133.03 68.3283 132.34 68.19C131.403 68.1789 130.479 68.4133 129.66 68.87C121.201 72.5142 111.655 72.7151 103.05 69.43C101.848 69.0138 100.723 68.4023 99.72 67.62C98.8889 66.7647 98.0073 65.9599 97.08 65.21C93.79 63.08 89.24 65.58 85.56 64.21C84.9073 63.9184 84.2397 63.6615 83.56 63.44C80.65 62.71 77.69 65.61 74.83 64.73C73.7659 67.6222 72.9791 70.6089 72.48 73.65C72.0733 77.1423 71.8563 80.6541 71.83 84.17C71.83 86.28 71.73 88.39 71.83 90.5C72.1825 90.5577 72.5191 90.6879 72.8186 90.8824C73.1181 91.0769 73.374 91.3315 73.57 91.63C73.7013 91.9785 73.7551 92.3513 73.7274 92.7227C73.6998 93.094 73.5915 93.4548 73.41 93.78C71.32 99.15 69.2 104.58 66.03 109.39C68.2642 110.721 70.3378 112.305 72.21 114.11C75.71 117.81 77.43 123 81.21 126.42C85.47 130.27 91.54 131.21 97.21 131.97L111.48 133.88C113.897 134.332 116.368 134.417 118.81 134.13C120.164 133.883 121.479 133.456 122.72 132.86C123.531 132.521 124.27 132.033 124.9 131.42C125.427 130.821 125.862 130.147 126.19 129.42C127.32 127.16 128.35 124.85 129.3 122.51C129.63 121.68 130.13 120.71 131.03 120.64C136.33 115.86 141.33 110.96 146.63 106.18C148.76 104.415 150.67 102.4 152.32 100.18C154.95 96.29 152.56 90.78 152.32 86.08C152.291 84.8778 152.14 83.6817 151.87 82.51C151.01 79.1 148.99 75.02 145.66 74.01Z" fill="url(#paint1_linear)"/>
<path opacity="0.1" d="M60.7601 54C59.9601 55.6 58.0401 56.37 56.5601 57.38L51.4901 60.86C51.1514 61.1652 50.7544 61.3988 50.323 61.5466C49.8917 61.6944 49.4349 61.7534 48.9801 61.72C48.5675 61.5676 48.1896 61.3344 47.8684 61.0338C47.5473 60.7333 47.2895 60.3716 47.1101 59.97C47.1101 59.74 47.1101 59.49 47.1101 59.25C47.0716 58.4406 47.18 57.6308 47.4301 56.86C47.9266 55.7292 48.6963 54.7395 49.6701 53.98C51.5528 52.1972 53.792 50.8339 56.2401 49.98C56.6218 49.8315 57.0366 49.7901 57.4401 49.86C57.5956 49.9006 57.7439 49.9647 57.8801 50.05C58.2379 50.4403 58.5408 50.8777 58.7801 51.35C59.1801 52.17 61.1701 53.18 60.7601 54Z" fill="black"/>
<path d="M72.7001 64.54C71.0001 64.46 69.6101 63.2301 68.3701 62.0601L64.5801 58.54C64.3264 58.3256 64.1043 58.0765 63.9201 57.8C63.7153 57.4112 63.5607 56.9979 63.4601 56.5701C62.6565 54.5501 61.3971 52.743 59.7801 51.29C59.4982 50.9318 59.1201 50.6612 58.6901 50.51C58.2835 50.435 57.864 50.4766 57.4801 50.6301C55.0313 51.4826 52.7918 52.8461 50.9101 54.6301C49.9369 55.3902 49.1672 56.3796 48.6701 57.51C48.4187 58.2805 48.3102 59.0905 48.3501 59.9C48.3736 62.5422 48.9671 65.1482 50.0901 67.54C50.2601 67.91 50.4501 68.28 50.6501 68.64C51.9845 70.8452 53.5609 72.8946 55.3501 74.7501L57.7301 77.41C60.0701 80.03 62.4101 82.6501 64.9501 85.0601C65.8606 86.0312 66.9642 86.801 68.1901 87.3201C68.8054 87.5712 69.4782 87.6481 70.1343 87.5422C70.7905 87.4364 71.4049 87.1519 71.9101 86.72C72.3891 86.1655 72.7498 85.519 72.9701 84.8201C74.5101 80.8201 75.9701 76.66 76.0601 72.35C76.0816 70.624 76.0082 68.898 75.8401 67.18C75.6901 65.36 74.4001 64.65 72.7001 64.54Z" fill="url(#paint2_linear)"/>
<path d="M133.3 204.54C133.242 214.599 132.527 224.644 131.16 234.61C130.96 236.22 130.74 237.83 130.63 239.44C130.3 244.11 130.84 248.8 130.4 253.44C130.17 255.95 129.65 258.44 129.21 260.89C127.256 271.825 126.685 282.962 127.51 294.04C128.89 312.47 124.66 330.91 126.58 349.29C126.813 352.864 126.615 356.453 125.99 359.98C125.632 362.168 125.114 364.328 124.44 366.44C122.98 371.447 121.513 376.447 120.04 381.44C119.867 382.2 119.525 382.91 119.04 383.52C118.53 383.961 117.931 384.288 117.285 384.48C116.638 384.671 115.958 384.722 115.29 384.63C109.52 384.45 104.09 381.96 98.85 379.53C98.2474 379.292 97.6895 378.954 97.2 378.53C96.11 377.4 96.2 375.62 95.72 374.13C95.24 372.64 93.94 371.24 93.2 369.71C92.5916 368.263 92.2234 366.726 92.11 365.16C91.4433 360.04 90.99 354.9 90.75 349.74C90.37 342.48 95.17 335.8 96.75 328.74C99.75 314.86 97.21 299.98 102.54 286.81C104.22 282.65 101.78 277.61 101.54 273.13C101.454 270.24 101.078 267.366 100.42 264.55C99.42 260.79 97.31 257.25 97.16 253.35C97.05 250.53 97.96 247.78 98.43 245C99.0536 240.909 98.9961 236.743 98.26 232.67C97.73 229.31 96.92 225.95 96.11 222.67L95.93 223.04C93.4935 227.802 91.3983 232.731 89.66 237.79C88.86 240.24 88.16 242.74 87.16 245.12C86.34 247.12 85.33 248.95 84.34 250.83C80.7891 257.46 77.6985 264.326 75.09 271.38C73.85 274.84 72.76 278.38 71.68 281.85L64.27 305.85C62.27 312.16 60.08 318.26 58.12 324.56C55.35 333.56 52.58 342.48 49.36 351.28C46.36 359.63 42.79 368.28 43.86 377.1C41.1028 378.396 38.0743 379.01 35.03 378.89C29.876 378.434 24.8197 377.207 20.03 375.25C18.12 374.54 16.14 373.74 14.85 372.17C12.63 369.46 13.18 365.49 13.85 362.04C14.1024 360.485 14.5043 358.958 15.05 357.48C15.81 355.64 17.05 354.01 17.83 352.19C19.4 348.7 19.5 344.75 20.12 340.96C20.74 337.17 22.12 333.17 25.36 331.11C25.91 324.45 28.65 317.88 30.16 311.37C31.3 306.44 31.68 301.37 32.58 296.37C33.48 291.37 34.93 286.37 37.95 282.32C37.7117 278.144 38.6544 273.985 40.67 270.32C41.157 269.515 41.5559 268.66 41.86 267.77C42.0465 266.901 42.1536 266.018 42.18 265.13C42.5107 261.655 43.9964 258.391 46.4 255.86C45.4 252.21 46.79 248.4 48.04 244.86C49.6144 240.343 50.3267 235.57 50.14 230.79C49.9849 229.455 50.0491 228.104 50.33 226.79C50.61 225.79 51.16 224.94 51.48 223.98C51.7653 222.804 51.9162 221.6 51.93 220.39C52.32 214.98 54.51 209.88 56.93 205.05C58.37 202.23 57.15 198.4 57.45 195.26C57.97 190.04 58.54 184.64 61.13 180.09C61.61 179.23 62.13 178.41 62.56 177.52C63.0811 176.249 63.3625 174.893 63.39 173.52C63.48 171.23 63.8 169.33 62.98 167.2C68.33 162.75 75.63 161.5 82.59 161.2C89.55 160.9 96.59 161.53 103.4 160.05C105.4 159.6 107.4 158.98 109.51 158.68C114.3 157.98 119.16 159.07 123.89 160.15C123.56 163.15 124.66 166.03 125.89 168.82C130.692 180.121 133.211 192.261 133.3 204.54V204.54Z" fill="#33313F"/>
<path opacity="0.1" d="M109.75 206.83L98.26 232.67C97.73 229.31 96.92 225.95 96.11 222.67L95.9301 223.04V222.5L102.19 208.73L109.75 206.83Z" fill="black"/>
<path opacity="0.1" d="M144.18 152.85C143.517 153.346 142.726 153.641 141.9 153.7C140.633 153.745 139.368 153.572 138.16 153.19L129.16 150.94C128.878 150.871 128.603 150.773 128.34 150.65C128.49 149.08 128.79 147.26 129.64 146.65C130.91 145.8 134.71 146.94 136.15 147.14C138.63 147.48 141.15 147.88 143.57 148.35C143.945 149.822 144.15 151.332 144.18 152.85V152.85Z" fill="black"/>
<path d="M151.79 93.35C151.98 94.18 152.25 95 152.41 95.84C152.679 97.9009 152.608 99.992 152.2 102.03L151.38 107.75L150.56 113.5L147.39 135.63L146.61 141.11L145.51 148.76C145.458 149.396 145.296 150.019 145.03 150.6C144.702 151.144 144.245 151.597 143.699 151.92C143.152 152.243 142.534 152.425 141.9 152.45C140.634 152.49 139.369 152.318 138.16 151.94L129.16 149.68C128.766 149.61 128.391 149.456 128.06 149.23C127.785 148.961 127.586 148.624 127.485 148.253C127.383 147.883 127.381 147.492 127.48 147.12C127.61 146.36 127.94 145.65 128.05 144.89C128.27 143.41 127.65 141.89 127.87 140.42C128.086 139.484 128.422 138.58 128.87 137.73C131.87 131.1 130.13 123.36 131.15 116.16C132.068 110.493 134.462 105.168 138.09 100.72C140.329 97.9122 142.901 95.387 145.75 93.2C146.87 92.33 148.65 90.54 150.06 90.2C151.87 89.82 151.49 92.09 151.79 93.35Z" fill="url(#paint3_linear)"/>
<path d="M83.6801 7.21002C83.0201 9.31002 84.0501 11.62 83.5801 13.76C83.0701 16.12 80.8501 17.76 80.2201 20.13C79.2201 23.74 82.2801 27.03 84.5201 30.03C92.8201 41.17 91.7301 56.59 88.8901 70.18C86.605 81.0833 83.4447 91.7846 79.4401 102.18C78.1901 105.41 76.8101 108.69 74.3501 111.11C78.9501 109.79 83.8401 108.46 88.4501 109.74C94.2901 111.36 99.3301 117.03 105.25 115.74C108.81 114.95 111.31 111.79 114.51 110.04C120.51 106.81 127.74 108.84 134.43 109.88C135.872 110.22 137.38 110.144 138.78 109.66C139.85 109.085 140.758 108.249 141.42 107.23C144.406 103.4 146.194 98.7728 146.56 93.93C146.718 91.5186 146.362 89.101 145.516 86.8374C144.67 84.5739 143.352 82.516 141.65 80.8C140.23 79.46 138.53 78.38 137.44 76.8C136.38 74.9547 135.812 72.868 135.79 70.74C135 59.74 137.68 48.51 134.92 37.87C133.92 34.08 132.29 30.45 131.85 26.57C131.3 21.74 132.61 16.57 130.69 12.15C129.18 8.63999 125.85 6.14999 122.26 4.86999C118.67 3.58999 114.83 3.22999 111.02 2.86999C105.54 2.40999 85.9701 0.0600185 83.6801 7.21002Z" fill="#33313F"/>
<g opacity="0.1">
<path opacity="0.1" d="M88.8901 70.18C86.6162 81.0382 83.4728 91.6959 79.4901 102.05C80.1801 100.68 80.7601 99.24 81.3101 97.81C85.3193 87.4161 88.4796 76.7144 90.7601 65.81C93.6101 52.21 94.7001 36.81 86.4001 25.66C84.4001 23 81.8301 20.12 81.9201 17C81.1809 17.9436 80.6062 19.0052 80.2201 20.14C79.2201 23.75 82.2801 27.04 84.5201 30.04C92.8201 41.17 91.7301 56.59 88.8901 70.18Z" fill="black"/>
<path opacity="0.1" d="M83.7001 12.75C84.5027 11.7533 85.1007 10.6081 85.4601 9.38C85.6147 7.89446 85.5744 6.39509 85.3401 4.92001C84.5698 5.49973 83.9915 6.29758 83.6801 7.21002C83.0901 8.98002 83.7701 10.9 83.7001 12.75Z" fill="black"/>
<path opacity="0.1" d="M143.3 102.83C142.638 103.846 141.73 104.679 140.66 105.25C139.262 105.744 137.751 105.82 136.31 105.47C129.62 104.47 122.31 102.41 116.39 105.64C113.18 107.38 110.69 110.54 107.12 111.34C101.21 112.66 96.1701 106.99 90.3301 105.34C86.1901 104.19 81.8301 105.14 77.6601 106.34C76.8315 108.107 75.7127 109.723 74.3501 111.12C78.9501 109.8 83.8401 108.47 88.4501 109.75C94.2901 111.37 99.3301 117.04 105.25 115.75C108.81 114.96 111.31 111.8 114.51 110.05C120.51 106.82 127.74 108.85 134.43 109.89C135.872 110.23 137.38 110.154 138.78 109.67C139.85 109.095 140.758 108.259 141.42 107.24C143.232 104.849 144.632 102.173 145.56 99.32C144.892 100.543 144.137 101.716 143.3 102.83Z" fill="black"/>
</g>
<defs>
<linearGradient id="paint0_linear" x1="0.59995" y1="193.42" x2="153.6" y2="193.42" gradientUnits="userSpaceOnUse">
<stop stop-color="#808080" stop-opacity="0.25"/>
<stop offset="0.54" stop-color="#808080" stop-opacity="0.12"/>
<stop offset="1" stop-color="#808080" stop-opacity="0.1"/>
</linearGradient>
<linearGradient id="paint1_linear" x1="66.03" y1="99.0263" x2="153.544" y2="99.0263" gradientUnits="userSpaceOnUse">
<stop stop-color="#FF7171"/>
<stop offset="1" stop-color="#FF9163"/>
</linearGradient>
<linearGradient id="paint2_linear" x1="48.342" y1="69.1449" x2="76.0637" y2="69.1449" gradientUnits="userSpaceOnUse">
<stop stop-color="#FF7171"/>
<stop offset="1" stop-color="#FF9163"/>
</linearGradient>
<linearGradient id="paint3_linear" x1="127.407" y1="121.498" x2="152.57" y2="121.498" gradientUnits="userSpaceOnUse">
<stop stop-color="#FF7171"/>
<stop offset="1" stop-color="#FF9163"/>
</linearGradient>
</defs>
</svg>
