<svg width="383" height="487" viewBox="0 0 383 487" fill="none" xmlns="http://www.w3.org/2000/svg">
<path d="M43.4196 485.238C43.3639 484.993 37.9796 460.44 48.9757 440.048C59.9718 419.656 83.444 410.663 83.6798 410.574L84.7526 410.172L85.006 411.29C85.0617 411.535 90.4459 436.088 79.4498 456.48C68.4542 476.872 44.9816 485.865 44.7458 485.954L43.6725 486.356L43.4196 485.238ZM83.2814 412.9C78.5797 414.923 60.0236 423.774 50.7365 440.997C41.4484 458.222 44.2506 478.591 45.1442 483.628C49.8439 481.61 68.3927 472.772 77.6891 455.531C86.9767 438.307 84.1754 417.94 83.2814 412.9V412.9Z" fill="#F1F1F1"/>
<path d="M71.0468 449.327C51.2862 461.216 43.6758 484.83 43.6758 484.83C43.6758 484.83 68.1036 489.169 87.8641 477.28C107.625 465.391 115.235 441.777 115.235 441.777C115.235 441.777 90.8073 437.439 71.0468 449.327Z" fill="#F1F1F1"/>
<path d="M370.296 258.743C370.597 257.187 370.554 255.585 370.168 254.048C369.783 252.511 369.066 251.077 368.067 249.848C367.068 248.618 365.811 247.622 364.386 246.931C362.96 246.24 361.4 245.869 359.816 245.846L350.665 222.833L335.324 224.983L348.704 257.3C348.841 259.964 349.95 262.485 351.822 264.386C353.694 266.286 356.197 267.434 358.859 267.612C361.52 267.79 364.155 266.985 366.263 265.35C368.371 263.716 369.806 261.365 370.296 258.743V258.743Z" fill="#9F616A"/>
<path d="M342.033 250.657L337.279 239.322L307.658 182.937L309.268 78.6045L309.578 78.5635C328.532 76.0592 341.356 163.392 341.893 167.111L360.608 231.119L365.063 245.228L342.033 250.657Z" fill="url(#paint0_linear)"/>
<path d="M296.518 470.658L310.92 470.657L317.771 415.106L296.515 415.107L296.518 470.658Z" fill="#9F616A"/>
<path d="M292.844 465.956L321.207 465.955H321.208C326.002 465.955 330.599 467.859 333.989 471.249C337.378 474.639 339.283 479.236 339.283 484.03V484.617L292.845 484.619L292.844 465.956Z" fill="#2F2E41"/>
<path d="M164.095 448.715L175.912 456.949L213.294 415.291L195.854 403.138L164.095 448.715Z" fill="#9F616A"/>
<path d="M163.77 442.757L187.04 458.973L187.041 458.973C190.974 461.714 193.657 465.905 194.5 470.624C195.343 475.343 194.277 480.204 191.536 484.137L191.201 484.619L153.1 458.069L163.77 442.757Z" fill="#2F2E41"/>
<path d="M288.603 457.6L287.98 353.39L278.918 287.864L262.023 345.488L261.991 345.536L200.766 434.421L176.942 422.35L177.073 422.04C178.529 418.577 212.835 337.247 222.056 337.247C222.861 337.303 223.668 337.163 224.407 336.838C225.146 336.513 225.796 336.014 226.299 335.382C229.005 331.768 226.801 324.1 226.778 324.023C224.139 313.077 230.776 309.349 232.098 308.727L235.653 235.33L236.022 235.355L332.411 242.116L328.368 333.882L319.669 454.114L319.37 454.147L288.603 457.6Z" fill="#2F2E41"/>
<path d="M333.884 258.38L333.467 258.346L229.803 249.99L230.059 215.69L235.132 126.132L235.161 126.069L255.824 81.2108L270.471 74.5782L291.842 73.4536L291.894 73.4667L311.396 78.2986L331.684 223.937L333.884 258.38Z" fill="url(#paint1_linear)"/>
<path d="M295.19 61.9572C308.417 54.7268 313.278 38.1431 306.047 24.9165C298.817 11.6898 282.233 6.82884 269.007 14.0592C255.78 21.2896 250.919 37.8733 258.149 51.0999C265.38 64.3266 281.963 69.1876 295.19 61.9572Z" fill="#9F616A"/>
<path d="M254.649 44.8596V34.2253C254.649 34.2253 246.073 24.1249 255.507 21.5806C255.507 21.5806 258.08 -3.86223 280.377 8.0111C280.377 8.0111 311.251 2.92254 307.82 20.7325C307.82 20.7325 315.539 16.0829 312.966 27.9563L307.99 47.0821C307.99 47.0821 310.393 34.4481 302.675 32.7519L298.387 30.2076C298.387 30.2076 286.38 42.0809 268.371 27.6633C268.371 27.6633 260.653 25.8211 261.51 33.454C262.368 41.0869 254.649 44.8596 254.649 44.8596Z" fill="#2F2E41"/>
<path d="M279.257 232.766C279.274 231.181 278.944 229.613 278.289 228.17C277.634 226.727 276.671 225.445 275.468 224.415C274.264 223.385 272.849 222.631 271.323 222.206C269.796 221.782 268.195 221.697 266.633 221.959L253.501 200.962L238.795 205.83L257.756 235.221C258.369 237.817 259.913 240.098 262.095 241.632C264.278 243.166 266.947 243.846 269.597 243.543C272.247 243.241 274.695 241.976 276.475 239.99C278.255 238.004 279.245 235.433 279.257 232.766V232.766Z" fill="#9F616A"/>
<path d="M245.339 226.147L221.582 177.912L221.603 177.795C221.699 177.261 231.262 124.161 238.576 104.644C245.936 85.0021 256.011 81.0585 256.437 80.9003L256.649 80.8212L265.683 89.4864L253.169 173.013L266.658 213.297L245.339 226.147Z" fill="url(#paint2_linear)"/>
<path d="M382 486.316H1C0.734784 486.316 0.480429 486.211 0.292892 486.023C0.105356 485.835 0 485.581 0 485.316C0 485.051 0.105356 484.796 0.292892 484.609C0.480429 484.421 0.734784 484.316 1 484.316H382C382.265 484.316 382.52 484.421 382.707 484.609C382.895 484.796 383 485.051 383 485.316C383 485.581 382.895 485.835 382.707 486.023C382.52 486.211 382.265 486.316 382 486.316Z" fill="#CBCBCB"/>
<defs>
<linearGradient id="paint0_linear" x1="307.658" y1="165.112" x2="365.063" y2="165.112" gradientUnits="userSpaceOnUse">
<stop stop-color="#FF7171"/>
<stop offset="1" stop-color="#FF9163"/>
</linearGradient>
<linearGradient id="paint1_linear" x1="229.803" y1="166.484" x2="333.884" y2="166.484" gradientUnits="userSpaceOnUse">
<stop stop-color="#FF7171"/>
<stop offset="1" stop-color="#FF9163"/>
</linearGradient>
<linearGradient id="paint2_linear" x1="221.582" y1="153.93" x2="266.658" y2="153.93" gradientUnits="userSpaceOnUse">
<stop stop-color="#FF7171"/>
<stop offset="1" stop-color="#FF9163"/>
</linearGradient>
</defs>
</svg>
