<svg width="791" height="442" viewBox="0 0 791 442" fill="none" xmlns="http://www.w3.org/2000/svg">
<path opacity="0.1" d="M8.53925 298.753C21.0596 350.31 47.5533 394.87 89.4304 416.461C176.454 461.357 372.713 438.202 519.19 411.62C594.94 397.897 661.544 359.97 709.924 306.557L8.53925 298.753Z" fill="url(#paint0_linear)"/>
<path opacity="0.1" d="M776.656 56.0836H696.278C695.383 56.1129 694.491 55.9615 693.655 55.6383C692.82 55.3151 692.058 54.8267 691.414 54.2023C690.77 53.5778 690.259 52.83 689.909 52.0033C689.56 51.1766 689.38 50.2879 689.38 49.39C689.38 48.4921 689.56 47.6034 689.909 46.7767C690.259 45.9499 690.77 45.2021 691.414 44.5777C692.058 43.9532 692.82 43.4649 693.655 43.1417C694.491 42.8185 695.383 42.667 696.278 42.6964H710.166C709.271 42.7257 708.379 42.5742 707.543 42.251C706.708 41.9278 705.945 41.4395 705.302 40.815C704.658 40.1906 704.146 39.4428 703.797 38.6161C703.448 37.7893 703.267 36.9006 703.267 36.0027C703.267 35.1048 703.448 34.2161 703.797 33.3894C704.146 32.5627 704.658 31.8149 705.302 31.1904C705.945 30.566 706.708 30.0776 707.543 29.7544C708.379 29.4312 709.271 29.2798 710.166 29.3091H700.245C699.35 29.3384 698.458 29.187 697.622 28.8638C696.787 28.5406 696.024 28.0523 695.381 27.4278C694.737 26.8033 694.226 26.0555 693.876 25.2288C693.527 24.4021 693.346 23.5134 693.346 22.6155C693.346 21.7176 693.527 20.8289 693.876 20.0022C694.226 19.1755 694.737 18.4276 695.381 17.8032C696.024 17.1787 696.787 16.6904 697.622 16.3672C698.458 16.044 699.35 15.8926 700.245 15.9219H742.193C732.878 11.7522 722.031 8.78201 709.432 7.23266C595.104 -6.93283 554.266 2.43467 539.859 12.0735C522.054 23.9542 502.255 32.6934 481.074 36.9059C410.495 50.9358 278.518 67.8144 158.905 31.5011C99.4581 13.4515 55.2593 43.953 28.7727 94.9245H790.615C789.618 80.1092 786.641 66.4221 781.172 54.4557C779.9 55.5056 778.304 56.0809 776.656 56.0836Z" fill="url(#paint1_linear)"/>
<path opacity="0.1" d="M490.19 218.687L489.143 218.623L478.204 218.001L373.397 212.097L362.073 211.454L195.177 202.058L148.4 199.409L141 198.995L134.427 198.624L1.72353 191.148C-1.37052 221.137 -0.32081 251.41 4.84295 281.111L116.508 285.045L125.361 285.366L126.928 285.416L179.936 287.265L182.785 287.358L188.896 287.572L242.31 289.457L249.632 289.721L275.143 290.621H275.627L279.38 290.757L292.164 291.206L303.381 291.599L324.747 292.349H325.196L327.097 292.42L329.12 292.492H329.561L363.619 293.691L373.162 294.034H373.561L378.154 294.191L379.009 294.227H379.351L383.389 294.369L395.717 294.805L400.346 294.969L406.293 295.176H406.514L414.676 295.469L438.278 296.304L444.773 296.526H445.485L476.95 297.632L495.225 298.275L517.966 299.082L521.612 299.21L527.502 299.417L548.91 300.167L710.401 305.879C729.956 284.225 746.451 259.98 759.421 233.823L490.19 218.687ZM186.553 268.666C184.854 268.67 183.211 268.062 181.923 266.952C181.336 266.448 180.84 265.847 180.456 265.175C179.903 264.199 179.611 263.098 179.609 261.976C179.608 260.668 180.009 259.392 180.755 258.32C180.986 257.993 181.244 257.685 181.524 257.399C182.183 256.735 182.966 256.208 183.83 255.85C184.693 255.493 185.618 255.31 186.553 255.314H200.44C199.537 255.356 198.635 255.214 197.788 254.896C196.941 254.579 196.167 254.092 195.513 253.466C194.859 252.84 194.339 252.088 193.983 251.254C193.628 250.421 193.444 249.524 193.444 248.617C193.444 247.711 193.628 246.814 193.983 245.98C194.339 245.147 194.859 244.394 195.513 243.768C196.167 243.142 196.941 242.656 197.788 242.338C198.635 242.02 199.537 241.878 200.44 241.92H190.519C190.304 241.931 190.087 241.931 189.871 241.92C188.105 241.834 186.446 241.048 185.258 239.735C184.07 238.422 183.45 236.69 183.536 234.919C183.622 233.149 184.406 231.485 185.716 230.294C187.025 229.103 188.753 228.482 190.519 228.568H270.884C271.786 228.527 272.687 228.669 273.533 228.986C274.379 229.303 275.152 229.789 275.805 230.415C276.459 231.04 276.979 231.792 277.334 232.624C277.689 233.457 277.872 234.353 277.872 235.259C277.872 236.164 277.689 237.06 277.334 237.893C276.979 238.725 276.459 239.477 275.805 240.102C275.152 240.728 274.379 241.214 273.533 241.531C272.687 241.848 271.786 241.99 270.884 241.949H280.804C281.708 241.907 282.61 242.049 283.457 242.367C284.304 242.684 285.077 243.171 285.731 243.797C286.385 244.423 286.906 245.175 287.262 246.009C287.617 246.842 287.801 247.739 287.801 248.646C287.801 249.552 287.617 250.449 287.262 251.283C286.906 252.116 286.385 252.869 285.731 253.495C285.077 254.121 284.304 254.607 283.457 254.925C282.61 255.243 281.708 255.385 280.804 255.343H266.917C267.819 255.301 268.72 255.443 269.566 255.761C270.412 256.078 271.185 256.564 271.838 257.189C272.492 257.815 273.012 258.566 273.367 259.399C273.722 260.231 273.905 261.127 273.905 262.033C273.905 262.939 273.722 263.835 273.367 264.667C273.012 265.5 272.492 266.251 271.838 266.877C271.185 267.502 270.412 267.988 269.566 268.305C268.72 268.623 267.819 268.765 266.917 268.723L186.553 268.666Z" fill="url(#paint2_linear)"/>
<path opacity="0.1" d="M790.644 95.3958L236.299 108.383L175.371 109.811L20.2762 113.445C10.8966 136.664 4.68626 162.91 1.83035 190.127H777.148C782.199 174.169 785.941 157.824 788.336 141.255C790.644 125.255 791.577 109.797 790.644 95.3958ZM158.214 154.564H144.326C146.131 154.533 147.874 155.22 149.175 156.473C150.476 157.727 151.229 159.445 151.27 161.254C151.27 161.389 151.27 161.525 151.27 161.661C151.197 162.704 150.879 163.714 150.344 164.611C149.808 165.508 149.069 166.266 148.187 166.823C147.039 167.56 145.704 167.952 144.341 167.951H63.9765C63.0814 167.98 62.1895 167.829 61.3539 167.506C60.5182 167.182 59.756 166.694 59.1124 166.07C58.4689 165.445 57.9571 164.697 57.6076 163.871C57.2581 163.044 57.078 162.155 57.078 161.257C57.078 160.36 57.2581 159.471 57.6076 158.644C57.9571 157.817 58.4689 157.07 59.1124 156.445C59.756 155.821 60.5182 155.332 61.3539 155.009C62.1895 154.686 63.0814 154.534 63.9765 154.564H77.8715C76.9763 154.593 76.0844 154.442 75.2488 154.118C74.4132 153.795 73.6509 153.307 73.0074 152.682C72.3638 152.058 71.8521 151.31 71.5026 150.483C71.1531 149.657 70.973 148.768 70.973 147.87C70.973 146.972 71.1531 146.084 71.5026 145.257C71.8521 144.43 72.3638 143.682 73.0074 143.058C73.6509 142.433 74.4132 141.945 75.2488 141.622C76.0844 141.299 76.9763 141.147 77.8715 141.177H67.9506C67.0554 141.206 66.1635 141.054 65.3279 140.731C64.4923 140.408 63.73 139.92 63.0865 139.295C62.4429 138.671 61.9312 137.923 61.5817 137.096C61.2322 136.27 61.0521 135.381 61.0521 134.483C61.0521 133.585 61.2322 132.696 61.5817 131.87C61.9312 131.043 62.4429 130.295 63.0865 129.671C63.73 129.046 64.4923 128.558 65.3279 128.235C66.1635 127.911 67.0554 127.76 67.9506 127.789H148.315C149.21 127.76 150.102 127.911 150.937 128.235C151.773 128.558 152.535 129.046 153.179 129.671C153.822 130.295 154.334 131.043 154.684 131.87C155.033 132.696 155.213 133.585 155.213 134.483C155.213 135.381 155.033 136.27 154.684 137.096C154.334 137.923 153.822 138.671 153.179 139.295C152.535 139.92 151.773 140.408 150.937 140.731C150.102 141.054 149.21 141.206 148.315 141.177H158.236C159.385 141.174 160.517 141.453 161.533 141.99C162.619 142.541 163.534 143.38 164.177 144.417C164.82 145.453 165.167 146.646 165.179 147.867C165.138 149.676 164.385 151.395 163.084 152.65C161.783 153.905 160.04 154.593 158.236 154.564H158.214Z" fill="url(#paint3_linear)"/>
<defs>
<linearGradient id="paint0_linear" x1="8.53925" y1="370.725" x2="709.924" y2="370.725" gradientUnits="userSpaceOnUse">
<stop stop-color="#FF7171"/>
<stop offset="1" stop-color="#FF9163"/>
</linearGradient>
<linearGradient id="paint1_linear" x1="28.7727" y1="47.7512" x2="790.615" y2="47.7512" gradientUnits="userSpaceOnUse">
<stop stop-color="#FF7171"/>
<stop offset="1" stop-color="#FF9163"/>
</linearGradient>
<linearGradient id="paint2_linear" x1="-0.0107094" y1="248.866" x2="759.421" y2="248.866" gradientUnits="userSpaceOnUse">
<stop stop-color="#FF7171"/>
<stop offset="1" stop-color="#FF9163"/>
</linearGradient>
<linearGradient id="paint3_linear" x1="1.83036" y1="143.052" x2="791.002" y2="143.052" gradientUnits="userSpaceOnUse">
<stop stop-color="#FF7171"/>
<stop offset="1" stop-color="#FF9163"/>
</linearGradient>
</defs>
</svg>
