<svg width="517" height="261" viewBox="0 0 517 261" fill="none" xmlns="http://www.w3.org/2000/svg">
<g clip-path="url(#clip0)">
<path opacity="0.3" d="M115.65 223.367C169.543 223.367 213.232 179.671 213.232 125.77C213.232 71.8696 169.543 28.1743 115.65 28.1743C61.7575 28.1743 18.0687 71.8696 18.0687 125.77C18.0687 179.671 61.7575 223.367 115.65 223.367Z" stroke="#FF9800" stroke-width="4" stroke-miterlimit="10" stroke-dasharray="12 12"/>
<path opacity="0.3" d="M373.008 204.062C426.901 204.062 470.59 160.366 470.59 106.466C470.59 52.5647 426.901 8.86938 373.008 8.86938C319.115 8.86938 275.427 52.5647 275.427 106.466C275.427 160.366 319.115 204.062 373.008 204.062Z" stroke="#FF9800" stroke-width="4" stroke-miterlimit="10" stroke-dasharray="12 12"/>
<path d="M410.733 144.18C406.529 139.709 404.186 133.805 404.181 127.669C404.205 123.436 405.325 119.281 407.432 115.609C409.538 111.938 412.56 108.875 416.201 106.718C414.572 104.351 413.697 101.547 413.692 98.6741C413.692 90.5822 420.48 84.024 428.855 84.024C432.09 83.991 435.249 84.9983 437.868 86.8973C440.487 88.7964 442.427 91.4868 443.401 94.5719C445.468 91.3189 448.328 88.6444 451.711 86.7994C455.095 84.9544 458.892 83.9994 462.746 84.024C475.222 84.024 485.34 93.7997 485.34 105.854C485.341 108.429 484.873 110.983 483.956 113.389C484.412 113.356 484.873 113.319 485.34 113.319C495.355 113.319 503.473 121.164 503.473 130.843C503.473 131.434 503.442 132.025 503.381 132.613C511.392 135.948 517 143.643 517 152.604C517 164.621 506.92 174.365 494.481 174.365C493.175 174.363 491.871 174.252 490.583 174.032C490.648 174.756 490.69 175.491 490.69 176.231C490.69 189.717 479.377 200.651 465.421 200.651C460.298 200.666 455.288 199.152 451.031 196.302C447.586 199.127 443.266 200.665 438.811 200.651C428.383 200.651 419.933 192.484 419.933 182.419C419.933 181.985 419.971 181.556 420.003 181.127H419.933C408.77 181.127 399.72 172.381 399.72 161.591C399.743 157.949 400.787 154.387 402.734 151.309C404.681 148.231 407.452 145.761 410.733 144.18Z" fill="url(#paint0_linear)"/>
<path d="M412.775 144.099C408.755 139.819 406.514 134.169 406.508 128.296C406.531 124.244 407.602 120.267 409.619 116.752C411.635 113.238 414.527 110.305 418.014 108.241C416.451 105.971 415.613 103.28 415.612 100.524C415.612 92.7809 422.11 86.5014 430.126 86.5014C433.223 86.4706 436.249 87.4343 438.758 89.2509C441.267 91.0674 443.128 93.641 444.066 96.5935C446.043 93.4868 448.775 90.9321 452.007 89.1682C455.239 87.4042 458.865 86.4885 462.547 86.5068C474.493 86.5068 484.171 95.8643 484.171 107.42C484.172 109.885 483.724 112.329 482.847 114.633C483.286 114.601 483.726 114.568 484.171 114.568C493.757 114.568 501.526 122.076 501.526 131.342C501.525 131.908 501.495 132.474 501.435 133.037C509.102 136.254 514.469 143.595 514.469 152.17C514.469 163.672 504.818 172.997 492.916 172.997C491.658 172.997 490.402 172.892 489.163 172.681C489.227 173.373 489.264 174.075 489.264 174.783C489.264 187.69 478.434 198.153 465.078 198.153C460.175 198.166 455.38 196.717 451.304 193.991C448.02 196.688 443.903 198.163 439.653 198.163C429.675 198.163 421.585 190.345 421.585 180.703C421.585 180.285 421.617 179.877 421.649 179.464H421.585C410.899 179.464 402.234 171.094 402.234 160.766C402.257 157.28 403.257 153.87 405.12 150.924C406.983 147.977 409.636 145.613 412.775 144.099Z" fill="#009688"/>
<path d="M457.186 119.652H450.114V249.546H457.186V119.652Z" fill="url(#paint1_linear)"/>
<path d="M455.727 119.652H451.813V249.546H455.727V119.652Z" fill="#795548"/>
<path d="M432.374 133.528L429.579 136.268L452.771 159.93L455.566 157.189L432.374 133.528Z" fill="#795548"/>
<path d="M477.084 160.402L453.043 177.276L455.291 180.481L479.333 163.606L477.084 160.402Z" fill="#795548"/>
<path d="M457.427 146.458C459.838 143.7 461.629 140.456 462.679 136.945C463.729 133.435 464.013 129.74 463.512 126.111C463.012 122.481 461.738 119.001 459.777 115.906C457.816 112.811 455.214 110.173 452.146 108.171C453.732 105.715 454.574 102.852 454.569 99.9287C454.569 91.6598 448.017 84.9568 439.932 84.9568C436.737 84.9804 433.637 86.0455 431.102 87.9907C428.566 89.9358 426.735 92.6548 425.885 95.7353C423.98 92.4675 421.255 89.7539 417.98 87.8634C414.704 85.9729 410.992 84.9709 407.21 84.9568C395.162 84.9568 385.394 94.947 385.394 107.27C385.39 109.895 385.842 112.5 386.729 114.97C386.289 114.938 385.844 114.901 385.394 114.901C375.743 114.901 367.882 122.944 367.882 132.811C367.882 133.422 367.915 134.023 367.974 134.618C364.038 136.383 360.699 139.253 358.364 142.88C356.029 146.508 354.799 150.735 354.822 155.049C354.822 167.334 364.558 177.292 376.563 177.292C377.821 177.291 379.077 177.177 380.316 176.955C380.252 177.695 380.214 178.445 380.214 179.201C380.214 192.983 391.136 204.158 404.615 204.158C409.596 204.16 414.452 202.606 418.507 199.713C421.77 202.575 425.962 204.155 430.302 204.158C440.372 204.158 448.532 195.809 448.532 185.513C448.532 185.068 448.494 184.628 448.468 184.188H448.532C459.314 184.188 468.048 175.249 468.048 164.224C468.065 160.576 467.085 156.992 465.213 153.861C463.341 150.73 460.648 148.17 457.427 146.458Z" fill="url(#paint2_linear)"/>
<path d="M454.607 146.341C456.868 143.751 458.548 140.707 459.532 137.413C460.516 134.119 460.782 130.652 460.312 127.246C459.842 123.841 458.647 120.575 456.807 117.671C454.967 114.767 452.526 112.292 449.647 110.412C451.136 108.107 451.926 105.419 451.921 102.674C451.921 94.9095 445.771 88.6194 438.179 88.6194C435.184 88.6463 432.28 89.6478 429.905 91.4726C427.53 93.2973 425.814 95.8459 425.016 98.7329C423.228 95.6646 420.67 93.1167 417.595 91.3417C414.52 89.5668 411.034 88.6265 407.483 88.614C396.176 88.614 387.007 97.9929 387.007 109.56C387.005 112.024 387.429 114.469 388.262 116.788C387.849 116.756 387.431 116.724 387.007 116.724C377.93 116.724 370.574 124.231 370.574 133.535C370.574 134.109 370.601 134.672 370.66 135.23C366.969 136.89 363.839 139.586 361.65 142.991C359.461 146.396 358.307 150.363 358.328 154.411C358.328 165.94 367.443 175.287 378.74 175.287C379.925 175.286 381.107 175.18 382.273 174.971C382.214 175.668 382.177 176.37 382.177 177.078C382.177 190.018 392.428 200.501 405.076 200.501C409.751 200.503 414.31 199.044 418.116 196.329C421.179 199.016 425.113 200.498 429.187 200.501C438.634 200.501 446.296 192.667 446.296 182.998C446.296 182.58 446.264 182.167 446.237 181.754H446.296C456.414 181.754 464.617 173.362 464.617 163.012C464.63 159.584 463.704 156.218 461.939 153.279C460.174 150.34 457.639 147.94 454.607 146.341Z" fill="#00897B"/>
<path d="M418.48 119.604H413.161V251.937H418.48V119.604Z" fill="url(#paint3_linear)"/>
<path d="M417.349 121.464H414.673V251.938H417.349V121.464Z" fill="#795548"/>
<path d="M436.381 136.171L414.421 159.888L416.384 161.706L438.344 137.989L436.381 136.171Z" fill="#795548"/>
<path d="M393.449 163.236L391.854 165.385L414.62 182.295L416.215 180.146L393.449 163.236Z" fill="#795548"/>
<path d="M354.945 185.154C352.081 182.104 350.485 178.077 350.484 173.893C350.501 171.009 351.265 168.178 352.7 165.676C354.136 163.175 356.195 161.088 358.677 159.618C357.563 158.001 356.967 156.085 356.966 154.122C356.966 148.609 361.593 144.137 367.298 144.137C369.502 144.114 371.655 144.801 373.44 146.094C375.225 147.388 376.547 149.221 377.212 151.322C378.621 149.106 380.57 147.284 382.876 146.027C385.182 144.77 387.77 144.12 390.396 144.137C398.899 144.137 405.794 150.797 405.794 159.012C405.796 160.768 405.476 162.509 404.851 164.149C405.162 164.149 405.473 164.101 405.794 164.101C412.62 164.101 418.126 169.463 418.126 176.043C418.126 176.446 418.104 176.849 418.062 177.25C420.784 178.347 423.118 180.228 424.771 182.654C426.423 185.079 427.318 187.941 427.343 190.876C427.343 199.064 420.475 205.703 411.998 205.703C411.099 205.703 410.203 205.628 409.317 205.478C409.365 205.971 409.392 206.47 409.392 206.974C409.392 216.165 401.682 223.597 392.171 223.597C388.7 223.613 385.302 222.6 382.407 220.685C380.056 222.601 377.113 223.64 374.08 223.624C366.976 223.624 361.213 218.058 361.213 211.194C361.213 210.894 361.213 210.604 361.261 210.314H361.213C353.604 210.314 347.439 204.357 347.439 197.005C347.457 194.525 348.171 192.101 349.497 190.006C350.824 187.911 352.711 186.23 354.945 185.154Z" fill="url(#paint4_linear)"/>
<path d="M356.334 185.1C353.587 182.187 352.053 178.337 352.044 174.332C352.061 171.571 352.792 168.862 354.166 166.467C355.541 164.073 357.512 162.075 359.888 160.669C358.823 159.122 358.253 157.287 358.253 155.408C358.253 150.132 362.682 145.853 368.14 145.853C370.25 145.83 372.312 146.487 374.02 147.726C375.729 148.965 376.994 150.72 377.63 152.733C378.978 150.611 380.843 148.867 383.05 147.664C385.257 146.46 387.733 145.837 390.246 145.853C398.385 145.853 404.985 152.229 404.985 160.095C404.987 161.776 404.682 163.442 404.084 165.013C404.385 165.013 404.679 164.97 404.985 164.97C411.515 164.97 416.813 170.085 416.813 176.397C416.813 176.782 416.793 177.167 416.754 177.55C419.359 178.6 421.593 180.4 423.175 182.722C424.756 185.044 425.614 187.782 425.638 190.591C425.638 198.431 419.059 204.786 410.947 204.786C410.095 204.785 409.245 204.713 408.406 204.571C408.449 205.043 408.475 205.52 408.475 206.003C408.475 214.797 401.098 221.929 391.994 221.929C388.654 221.937 385.387 220.95 382.611 219.093C380.365 220.934 377.548 221.937 374.644 221.929C367.845 221.929 362.312 216.604 362.312 210.03C362.312 209.746 362.312 209.467 362.355 209.188H362.312C355.031 209.188 349.128 203.483 349.128 196.447C349.147 194.071 349.832 191.748 351.106 189.742C352.38 187.736 354.191 186.128 356.334 185.1Z" fill="#009688"/>
<path d="M386.6 168.439H381.78V256.957H386.6V168.439Z" fill="url(#paint5_linear)"/>
<path d="M385.603 168.439H382.938V256.957H385.603V168.439Z" fill="#795548"/>
<path d="M369.687 177.892L367.784 179.758L383.586 195.88L385.489 194.014L369.687 177.892Z" fill="#795548"/>
<path d="M400.162 196.204L383.779 207.703L385.31 209.885L401.693 198.386L400.162 196.204Z" fill="#795548"/>
<path d="M400.288 187.781C401.91 185.932 403.115 183.755 403.822 181.398C404.528 179.042 404.72 176.561 404.384 174.124C404.048 171.686 403.192 169.35 401.874 167.273C400.555 165.196 398.806 163.426 396.744 162.085C397.802 160.433 398.36 158.512 398.353 156.551C398.41 154.157 397.589 151.825 396.045 149.995C394.501 148.164 392.341 146.963 389.972 146.616C387.603 146.27 385.189 146.803 383.186 148.114C381.183 149.426 379.729 151.425 379.099 153.735C377.821 151.544 375.994 149.723 373.797 148.455C371.601 147.186 369.111 146.513 366.574 146.501C358.489 146.501 351.932 153.205 351.932 161.479C351.929 163.241 352.232 164.99 352.827 166.648C352.532 166.648 352.232 166.6 351.932 166.6C350.371 166.617 348.828 166.942 347.393 167.556C345.957 168.17 344.657 169.06 343.566 170.176C342.474 171.293 341.613 172.613 341.032 174.063C340.451 175.512 340.161 177.061 340.179 178.622C340.179 179.03 340.179 179.438 340.238 179.834C337.596 181.019 335.355 182.947 333.788 185.382C332.222 187.817 331.396 190.656 331.413 193.551C331.413 201.793 337.949 208.48 346.007 208.48C346.854 208.48 347.699 208.405 348.532 208.255C348.489 208.754 348.463 209.253 348.463 209.762C348.463 219.012 355.797 226.514 364.837 226.514C368.18 226.516 371.439 225.474 374.161 223.533C376.352 225.454 379.166 226.513 382.08 226.514C383.705 226.496 385.311 226.158 386.805 225.519C388.3 224.88 389.654 223.953 390.79 222.791C391.926 221.629 392.822 220.254 393.427 218.745C394.032 217.237 394.334 215.624 394.315 213.998C394.315 213.698 394.315 213.403 394.272 213.108H394.315C401.554 213.108 407.419 207.108 407.419 199.702C407.43 197.254 406.771 194.849 405.514 192.748C404.257 190.647 402.45 188.93 400.288 187.781Z" fill="url(#paint6_linear)"/>
<path d="M398.396 187.706C399.916 185.968 401.045 183.923 401.707 181.711C402.369 179.498 402.548 177.169 402.233 174.882C401.917 172.594 401.114 170.4 399.877 168.45C398.641 166.499 397 164.837 395.066 163.575C396.066 162.029 396.596 160.226 396.594 158.385C396.648 156.137 395.878 153.948 394.429 152.23C392.98 150.511 390.952 149.383 388.728 149.058C386.504 148.733 384.237 149.233 382.357 150.464C380.476 151.695 379.112 153.572 378.52 155.741C377.32 153.682 375.602 151.973 373.538 150.782C371.474 149.591 369.134 148.96 366.751 148.952C359.159 148.952 353.009 155.248 353.009 163.012C353.007 164.667 353.292 166.309 353.851 167.865C353.572 167.865 353.315 167.823 353.009 167.823C350.055 167.856 347.234 169.061 345.167 171.172C343.099 173.283 341.953 176.129 341.981 179.084C341.981 179.47 341.981 179.85 342.034 180.22C339.555 181.332 337.452 183.141 335.982 185.425C334.511 187.71 333.736 190.373 333.75 193.09C333.75 200.828 339.884 207.102 347.449 207.102C348.244 207.101 349.037 207.029 349.819 206.888C349.776 207.354 349.755 207.826 349.755 208.303C349.755 216.985 356.639 224.026 365.127 224.026C368.266 224.028 371.327 223.05 373.882 221.227C375.937 223.032 378.579 224.027 381.313 224.026C384.393 223.991 387.333 222.734 389.486 220.532C391.64 218.33 392.831 215.363 392.798 212.282C392.798 212.004 392.798 211.746 392.755 211.451H392.798C394.432 211.433 396.045 211.093 397.548 210.451C399.05 209.809 400.411 208.877 401.553 207.709C402.695 206.541 403.596 205.159 404.204 203.643C404.812 202.126 405.116 200.505 405.098 198.871C405.102 196.576 404.48 194.324 403.299 192.356C402.118 190.389 400.423 188.781 398.396 187.706Z" fill="#00897B"/>
<path d="M374.15 169.758H370.579V258.581H374.15V169.758Z" fill="url(#paint7_linear)"/>
<path d="M373.389 171.008H371.593V258.582H373.389V171.008Z" fill="#795548"/>
<path d="M386.159 180.872L371.42 196.791L372.738 198.012L387.477 182.093L386.159 180.872Z" fill="#795548"/>
<path d="M357.342 199.045L356.271 200.487L371.552 211.837L372.623 210.395L357.342 199.045Z" fill="#795548"/>
<path d="M368.483 126.194H217.285V260.791H368.483V126.194Z" fill="url(#paint8_linear)"/>
<path d="M364.73 126.194H118.095V256.501H364.73V126.194Z" fill="white"/>
<path d="M376.531 139.064H134.185V75.7871H367.684C370.03 75.7871 372.281 76.7193 373.94 78.3786C375.599 80.0379 376.531 82.2885 376.531 84.6351V139.064Z" fill="url(#paint9_linear)"/>
<path d="M134.18 78.2915H365.598C367.945 78.2915 370.195 79.2237 371.854 80.883C373.513 82.5423 374.445 84.7929 374.445 87.1395V137.434H134.18V78.2915Z" fill="#227093"/>
<path opacity="0.7" d="M134.18 78.2915H365.598C367.945 78.2915 370.195 79.2237 371.854 80.883C373.513 82.5423 374.445 84.7929 374.445 87.1395V137.434H134.18V78.2915Z" fill="white"/>
<path d="M133.644 7.14282L50.0025 66.0544V115.694V260.786H217.285V115.694V66.0544L133.644 7.14282Z" fill="url(#paint10_linear)"/>
<path d="M213.532 65.0624L134.18 7.14282L54.8279 65.0624V113.855H213.532V65.0624Z" fill="#227093"/>
<path opacity="0.5" d="M213.532 65.0624L134.18 7.14282L54.8279 65.0624V113.855H213.532V65.0624Z" fill="white"/>
<path d="M213.532 113.86H54.8279V256.501H213.532V113.86Z" fill="white"/>
<path d="M223.719 94.0139L134.18 30.067L43.5685 94.0139L37.6707 71.5239L134.18 1.27075L230.689 71.5239L223.719 94.0139Z" fill="url(#paint11_linear)"/>
<path d="M222.899 90.7215L134.18 26.1418L45.4666 90.7215L41.6759 70.4998L134.18 3.16919L226.689 70.4998L222.899 90.7215Z" fill="#227093"/>
<path opacity="0.2" d="M222.899 90.7215L134.18 26.1418L45.4666 90.7215L41.6759 70.4998L134.18 3.16919L226.689 70.4998L222.899 90.7215Z" fill="black"/>
<path d="M179.218 144.962H89.1423V256.501H179.218V144.962Z" fill="#F2F2F2"/>
<path d="M179.218 144.962H89.1423V164.267H179.218V144.962Z" fill="#227093"/>
<path d="M179.218 237.196H89.1423V256.501H179.218V237.196Z" fill="#227093"/>
<path d="M285.024 216.395C285.237 216.395 285.442 216.311 285.593 216.16C285.743 216.009 285.828 215.804 285.828 215.591C285.828 215.378 285.743 215.173 285.593 215.022C285.442 214.871 285.237 214.787 285.024 214.787C284.811 214.787 284.606 214.871 284.455 215.022C284.304 215.173 284.22 215.378 284.22 215.591C284.22 215.804 284.304 216.009 284.455 216.16C284.606 216.311 284.811 216.395 285.024 216.395Z" fill="#00FF00"/>
<path d="M306.824 174.992H262.859V256.501H306.824V174.992Z" fill="#F2F2F2"/>
<path d="M359.368 157.832H318.084V187.862H359.368V157.832Z" fill="#F2F2F2"/>
<path opacity="0.2" d="M359.368 157.832H318.084V171.238H359.368V157.832Z" fill="#227093"/>
<path d="M32.5451 201.139C30.1466 198.604 28.8045 195.25 28.7919 191.76C28.8081 189.356 29.4456 186.997 30.6424 184.912C31.8393 182.827 33.5549 181.087 35.6226 179.861C34.6948 178.514 34.1975 176.917 34.1964 175.282C34.2359 173.036 35.165 170.899 36.7796 169.338C38.3942 167.777 40.5622 166.922 42.8072 166.959C44.6482 166.938 46.447 167.511 47.9378 168.591C49.4286 169.672 50.5322 171.203 51.0856 172.96C52.2606 171.112 53.8855 169.593 55.808 168.546C57.7305 167.498 59.8876 166.956 62.0769 166.97C69.165 166.97 74.9126 172.525 74.9126 179.373C74.914 180.839 74.6469 182.293 74.1245 183.663C74.3872 183.663 74.6606 183.626 74.9126 183.626C80.6013 183.626 85.2123 188.082 85.2123 193.578C85.2117 193.913 85.1938 194.248 85.1587 194.581C87.4273 195.496 89.3736 197.063 90.7508 199.085C92.1281 201.107 92.8745 203.492 92.8955 205.939C92.8955 212.765 87.1693 218.299 80.1027 218.299C79.3606 218.298 78.6199 218.236 77.8883 218.111C77.9259 218.524 77.9473 218.937 77.9473 219.361C77.9473 227.024 71.5134 233.233 63.5942 233.233C60.6836 233.241 57.8367 232.38 55.4178 230.761C53.4605 232.367 51.0057 233.241 48.4745 233.233C42.5767 233.233 37.7512 228.595 37.7512 222.868C37.7512 222.621 37.7512 222.374 37.7887 222.133H37.7512C31.4084 222.133 26.2666 217.162 26.2666 211.038C26.2803 208.966 26.8761 206.938 27.9863 205.188C29.0964 203.438 30.6761 202.035 32.5451 201.139Z" fill="url(#paint12_linear)"/>
<path d="M33.6871 201.096C31.4035 198.665 30.1307 195.455 30.127 192.12C30.1403 189.818 30.7493 187.56 31.8946 185.564C33.04 183.567 34.6827 181.902 36.6628 180.73C35.7751 179.439 35.3002 177.91 35.3009 176.343C35.3191 175.279 35.5468 174.228 35.9711 173.251C36.3953 172.274 37.0078 171.391 37.7736 170.651C38.5394 169.911 39.4434 169.329 40.434 168.938C41.4246 168.548 42.4825 168.356 43.5471 168.375C45.3054 168.357 47.0228 168.905 48.4465 169.937C49.8702 170.969 50.925 172.431 51.4555 174.107C52.5799 172.339 54.1351 170.885 55.9751 169.882C57.8151 168.88 59.8797 168.361 61.975 168.375C68.7575 168.375 74.2585 173.689 74.2585 180.247C74.2599 181.647 74.0055 183.036 73.5079 184.344C73.7545 184.344 74.0065 184.307 74.2585 184.307C79.7059 184.307 84.1185 188.596 84.1185 193.836C84.119 194.156 84.1029 194.476 84.0703 194.795C86.2409 195.673 88.1025 197.174 89.4196 199.11C90.7367 201.046 91.45 203.329 91.4693 205.67C91.4693 212.207 85.9897 217.505 79.2234 217.505C78.5046 217.505 77.7872 217.444 77.0787 217.323C77.1163 217.714 77.1377 218.117 77.1377 218.519C77.1377 225.849 70.9879 231.796 63.3959 231.796C60.6198 231.796 57.9063 230.971 55.6001 229.426C53.7274 230.962 51.3787 231.798 48.957 231.791C43.2898 231.791 38.6949 227.351 38.6949 221.87C38.6949 221.634 38.6948 221.398 38.7324 221.168H38.6949C32.6255 221.168 27.7035 216.411 27.7035 210.545C27.7194 208.568 28.2882 206.636 29.3457 204.966C30.4033 203.296 31.9071 201.955 33.6871 201.096Z" fill="#009688"/>
<path d="M58.9189 187.208H54.8976V261H58.9189V187.208Z" fill="url(#paint13_linear)"/>
<path d="M58.0825 187.208H55.8628V261H58.0825V187.208Z" fill="#795548"/>
<path d="M44.8159 195.087L43.2308 196.641L56.405 210.082L57.9901 208.527L44.8159 195.087Z" fill="#795548"/>
<path d="M70.2223 210.355L56.5645 219.941L57.8396 221.758L71.4974 212.172L70.2223 210.355Z" fill="#795548"/>
<path d="M6.2731 201.139C3.87466 198.604 2.53251 195.25 2.51996 191.76C2.53613 189.356 3.1736 186.997 4.37047 184.912C5.56734 182.827 7.28294 181.087 9.35067 179.861C8.42284 178.514 7.92553 176.917 7.92448 175.282C7.96396 173.036 8.89307 170.899 10.5077 169.338C12.1223 167.777 14.2902 166.922 16.5352 166.959C18.3762 166.938 20.1751 167.511 21.6658 168.591C23.1566 169.672 24.2602 171.203 24.8136 172.96C25.9886 171.112 27.6135 169.593 29.536 168.546C31.4585 167.498 33.6156 166.956 35.8049 166.97C42.893 166.97 48.6407 172.525 48.6407 179.373C48.642 180.839 48.3749 182.293 47.8525 183.663C48.1152 183.663 48.3887 183.626 48.6407 183.626C54.3293 183.626 58.9403 188.082 58.9403 193.578C58.9397 193.913 58.9218 194.248 58.8867 194.581C61.1554 195.496 63.1016 197.063 64.4789 199.085C65.8562 201.107 66.6025 203.492 66.6235 205.939C66.6235 212.765 60.8973 218.299 53.8307 218.299C53.0886 218.298 52.3479 218.236 51.6164 218.111C51.6539 218.524 51.6753 218.937 51.6753 219.361C51.6753 227.024 45.2414 233.233 37.3223 233.233C34.4116 233.241 31.5648 232.38 29.1458 230.761C27.1885 232.367 24.7337 233.241 22.2025 233.233C16.3047 233.233 11.4792 228.595 11.4792 222.868C11.4792 222.621 11.4792 222.374 11.5168 222.133H11.4792C5.13643 222.133 -0.00537109 217.162 -0.00537109 211.038C0.00827903 208.966 0.604162 206.938 1.71429 205.188C2.82442 203.438 4.40409 202.035 6.2731 201.139Z" fill="url(#paint14_linear)"/>
<path d="M7.41512 201.096C5.13155 198.665 3.85871 195.455 3.85501 192.12C3.8683 189.818 4.47729 187.56 5.62267 185.564C6.76804 183.567 8.41076 181.902 10.3908 180.73C9.50314 179.439 9.02824 177.91 9.02897 176.343C9.04712 175.279 9.27483 174.228 9.69909 173.251C10.1234 172.274 10.7359 171.391 11.5016 170.651C12.2674 169.911 13.1714 169.329 14.162 168.938C15.1527 168.548 16.2105 168.356 17.2751 168.375C19.0334 168.357 20.7508 168.905 22.1745 169.937C23.5983 170.969 24.653 172.431 25.1835 174.107C26.308 172.339 27.8631 170.885 29.7031 169.882C31.5431 168.88 33.6077 168.361 35.703 168.375C42.4855 168.375 47.9865 173.689 47.9865 180.247C47.9879 181.647 47.7335 183.036 47.2359 184.344C47.4825 184.344 47.7345 184.307 47.9865 184.307C53.4339 184.307 57.8466 188.596 57.8466 193.836C57.847 194.156 57.8309 194.476 57.7983 194.795C59.9689 195.673 61.8305 197.174 63.1476 199.11C64.4647 201.046 65.178 203.329 65.1973 205.67C65.1973 212.207 59.7178 217.505 52.9514 217.505C52.2326 217.505 51.5152 217.444 50.8067 217.323C50.8443 217.714 50.8657 218.117 50.8657 218.519C50.8657 225.849 44.7159 231.796 37.1239 231.796C34.3478 231.796 31.6344 230.971 29.3281 229.426C27.4554 230.962 25.1068 231.798 22.685 231.791C17.0178 231.791 12.4229 227.351 12.4229 221.87C12.4229 221.634 12.4229 221.398 12.4604 221.168H12.4229C6.35352 221.168 1.43155 216.411 1.43155 210.545C1.44738 208.568 2.01627 206.636 3.07378 204.966C4.13128 203.296 5.63517 201.955 7.41512 201.096Z" fill="#009688"/>
<path d="M32.6469 187.208H28.6257V261H32.6469V187.208Z" fill="url(#paint15_linear)"/>
<path d="M31.8105 187.208H29.5908V261H31.8105V187.208Z" fill="#795548"/>
<path d="M18.5486 195.087L16.9635 196.642L30.1377 210.083L31.7228 208.528L18.5486 195.087Z" fill="#795548"/>
<path d="M43.9509 210.358L30.2931 219.945L31.5682 221.762L45.226 212.176L43.9509 210.358Z" fill="#795548"/>
<path d="M66.0391 201.724C67.3931 200.18 68.3994 198.363 68.9896 196.396C69.5799 194.429 69.7404 192.358 69.4602 190.324C69.18 188.29 68.4657 186.339 67.3657 184.605C66.2657 182.871 64.8058 181.394 63.0849 180.274C63.9727 178.9 64.4438 177.298 64.4414 175.662C64.4906 173.666 63.8072 171.72 62.5201 170.193C61.233 168.666 59.4314 167.663 57.4555 167.374C55.4797 167.085 53.4663 167.53 51.7958 168.624C50.1253 169.718 48.9133 171.386 48.3887 173.313C47.3231 171.485 45.7983 169.966 43.9655 168.908C42.1326 167.85 40.0551 167.289 37.9389 167.281C36.3171 167.297 34.7145 167.633 33.2227 168.269C31.731 168.906 30.3794 169.83 29.2454 170.99C28.1113 172.149 27.2172 173.521 26.614 175.027C26.0109 176.533 25.7106 178.143 25.7304 179.765C25.7304 181.227 25.9825 182.678 26.4757 184.054C26.2291 184.054 25.9824 184.017 25.7304 184.017C24.4242 184.03 23.1335 184.302 21.9326 184.816C20.7316 185.33 19.6442 186.076 18.7328 187.012C17.8214 187.948 17.104 189.055 16.622 190.269C16.14 191.484 15.9028 192.781 15.924 194.088C15.924 194.431 15.924 194.769 15.9723 195.101C13.7705 196.089 11.9032 197.696 10.5973 199.725C9.29134 201.755 8.60307 204.12 8.61613 206.534C8.58605 209.796 9.84926 212.937 12.1293 215.269C14.4093 217.602 17.5204 218.936 20.7817 218.98C21.4882 218.98 22.1933 218.917 22.8888 218.792C22.8512 219.205 22.8298 219.623 22.8298 220.047C22.8298 227.758 28.942 233.989 36.4805 233.989C39.2676 233.989 41.9851 233.119 44.2548 231.501C46.0807 233.103 48.4262 233.987 50.855 233.989C53.5882 233.955 56.1961 232.838 58.1062 230.882C60.0162 228.927 61.0721 226.293 61.0421 223.559C61.0421 223.307 61.0421 223.066 61.0046 222.819H61.0421C63.971 222.785 66.7666 221.59 68.8146 219.495C70.8625 217.401 71.9952 214.579 71.9637 211.65C71.9724 209.613 71.4252 207.612 70.3812 205.863C69.3373 204.114 67.836 202.683 66.0391 201.724Z" fill="url(#paint16_linear)"/>
<path d="M64.4628 201.659C65.7293 200.21 66.67 198.506 67.2213 196.663C67.7726 194.819 67.9217 192.878 67.6583 190.972C67.395 189.065 66.7255 187.237 65.6951 185.612C64.6647 183.987 63.2973 182.602 61.6855 181.55C62.5177 180.261 62.9591 178.758 62.9562 177.223C63.0061 175.347 62.3665 173.518 61.1585 172.082C59.9505 170.646 58.2579 169.703 56.4014 169.431C54.5448 169.16 52.6532 169.578 51.0846 170.608C49.516 171.638 48.3794 173.207 47.89 175.019C46.8895 173.302 45.4579 171.876 43.7369 170.883C42.0159 169.89 40.0652 169.363 38.0783 169.356C35.0095 169.399 32.0827 170.656 29.9399 172.854C27.797 175.051 26.6129 178.009 26.6473 181.078C26.6462 182.457 26.8838 183.825 27.3496 185.122C27.1191 185.122 26.8832 185.084 26.6473 185.084C24.181 185.112 21.8269 186.119 20.1026 187.883C18.3783 189.647 17.4249 192.023 17.4521 194.49C17.4521 194.812 17.4521 195.128 17.5003 195.439C15.4343 196.366 13.6818 197.872 12.4559 199.776C11.23 201.68 10.5833 203.899 10.5946 206.164C10.5617 209.227 11.7461 212.178 13.8876 214.368C16.029 216.558 18.9523 217.808 22.0148 217.843C22.6782 217.843 23.3403 217.784 23.9933 217.666C23.9611 218.058 23.9397 218.449 23.9397 218.846C23.9397 226.085 29.6766 231.952 36.7539 231.952C39.3699 231.953 41.921 231.138 44.0511 229.619C45.764 231.118 47.9623 231.945 50.2384 231.946C51.51 231.932 52.7665 231.668 53.9359 231.168C55.1054 230.669 56.165 229.943 57.0542 229.034C57.9434 228.125 58.6448 227.049 59.1184 225.869C59.592 224.689 59.8284 223.426 59.8143 222.155C59.8143 221.919 59.8143 221.688 59.7821 221.457H59.8143C61.176 221.442 62.5214 221.159 63.7736 220.623C65.0258 220.088 66.1602 219.311 67.1122 218.337C68.0641 217.363 68.8149 216.211 69.3217 214.946C69.8285 213.682 70.0813 212.331 70.0657 210.969C70.0683 209.054 69.5478 207.174 68.5604 205.534C67.5729 203.893 66.156 202.553 64.4628 201.659Z" fill="#00897B"/>
<path d="M44.2441 186.698H41.2684V260.748H44.2441V186.698Z" fill="url(#paint17_linear)"/>
<path d="M43.6115 187.739H42.1156V260.748H43.6115V187.739Z" fill="#795548"/>
<path d="M54.2743 195.965L41.9868 209.236L43.0843 210.253L55.3719 196.981L54.2743 195.965Z" fill="#795548"/>
<path d="M30.2354 211.111L29.3435 212.312L42.0845 221.776L42.9764 220.575L30.2354 211.111Z" fill="#795548"/>
<path d="M382.461 28.303C374.878 20.4134 365.794 14.1207 355.744 9.79528C345.693 5.46982 334.879 3.19903 323.937 3.11659C312.996 3.03414 302.149 5.14169 292.034 9.3152C281.919 13.4887 272.742 19.6438 265.041 27.4182C233.992 58.724 233.467 109.694 263.835 141.638C277.174 155.689 295.055 164.565 314.311 166.694C333.567 168.823 352.955 164.067 369.041 153.269L428.34 214.937C428.703 215.316 429.137 215.619 429.618 215.829C430.098 216.04 430.615 216.154 431.14 216.164C431.664 216.175 432.185 216.082 432.674 215.89C433.162 215.699 433.608 215.413 433.986 215.049L448.757 200.844C449.136 200.481 449.439 200.047 449.65 199.567C449.86 199.086 449.974 198.569 449.984 198.044C449.995 197.52 449.902 196.999 449.711 196.51C449.519 196.022 449.234 195.576 448.87 195.198L389.57 133.53C400.941 117.952 406.461 98.8658 405.16 79.6226C403.86 60.3793 395.823 42.2092 382.461 28.303ZM363.99 127.465C355.627 135.511 345.066 140.896 333.643 142.939C322.22 144.982 310.448 143.591 299.815 138.943C289.182 134.294 280.167 126.597 273.908 116.824C267.649 107.05 264.429 95.6405 264.654 84.0367C264.879 72.4329 268.539 61.1564 275.172 51.6332C281.804 42.11 291.112 34.7678 301.917 30.535C312.722 26.3022 324.539 25.369 335.874 27.8534C347.209 30.3377 357.554 36.1281 365.598 44.4922C370.94 50.0458 375.136 56.5974 377.946 63.7728C380.756 70.9483 382.126 78.607 381.976 86.3118C381.827 94.0165 380.162 101.616 377.075 108.677C373.989 115.739 369.543 122.123 363.99 127.465Z" fill="url(#paint18_linear)"/>
<path d="M279.871 68.8481C273.271 68.8481 273.261 79.1011 279.871 79.1011C286.482 79.1011 286.477 68.8481 279.871 68.8481Z" fill="url(#paint19_linear)"/>
<path d="M325.863 35.9979C308.106 35.5958 291.94 44.5081 283.351 57.9839C280.547 62.3703 288.509 66.2474 291.297 61.8824C298.412 50.7446 311.934 43.6501 326.544 44.0416C341.868 44.4277 355.813 53.1952 363.196 65.3626C366.001 69.9796 373.335 65.7809 370.553 61.1906C361.593 46.4064 344.211 36.4108 325.863 35.9979Z" fill="url(#paint20_linear)"/>
<path d="M388.895 25.1819C381.312 17.2924 372.228 10.9996 362.178 6.67418C352.127 2.34873 341.313 0.07794 330.371 -0.00450719C319.43 -0.0869544 308.583 2.0206 298.468 6.1941C288.353 10.3676 279.176 16.5227 271.475 24.2971C240.426 55.6029 239.9 106.573 270.269 138.517C283.608 152.568 301.489 161.444 320.745 163.573C340.001 165.702 359.389 160.946 375.475 150.148L434.774 211.816C435.137 212.194 435.571 212.498 436.052 212.708C436.532 212.919 437.049 213.033 437.574 213.043C438.098 213.054 438.619 212.961 439.108 212.769C439.596 212.578 440.042 212.292 440.42 211.928L455.197 197.718C455.575 197.355 455.878 196.921 456.089 196.44C456.299 195.96 456.413 195.442 456.424 194.918C456.434 194.394 456.341 193.872 456.15 193.384C455.959 192.895 455.673 192.449 455.309 192.071L396.01 130.403C407.378 114.825 412.896 95.74 411.595 76.4979C410.294 57.2558 402.257 39.0872 388.895 25.1819ZM370.424 124.344C362.061 132.39 351.5 137.775 340.077 139.818C328.654 141.861 316.882 140.47 306.249 135.822C295.616 131.173 286.6 123.476 280.342 113.702C274.083 103.929 270.863 92.5194 271.088 80.9156C271.313 69.3118 274.973 58.0353 281.606 48.5121C288.238 38.9889 297.546 31.6467 308.351 27.4139C319.156 23.1812 330.973 22.2479 342.308 24.7323C353.643 27.2166 363.987 33.007 372.032 41.3711C377.374 46.9247 381.57 53.4763 384.38 60.6517C387.19 67.8272 388.559 75.4859 388.41 83.1907C388.261 90.8954 386.595 98.4953 383.509 105.556C380.423 112.618 375.977 119.001 370.424 124.344Z" fill="#227093"/>
<path d="M286.305 65.7112C279.705 65.7112 279.695 75.9641 286.305 75.9641C292.916 75.9641 292.911 65.7112 286.305 65.7112Z" fill="#227093"/>
<path d="M332.297 32.8771C314.54 32.4749 298.374 41.3873 289.785 54.863C286.981 59.2495 294.943 63.1265 297.731 58.7615C304.846 47.6238 318.368 40.5293 332.978 40.9207C348.302 41.3068 362.247 50.0744 369.63 62.2417C372.435 66.8588 379.769 62.66 376.987 58.0698C368.027 43.2963 350.645 33.2954 332.297 32.8771Z" fill="#227093"/>
</g>
<defs>
<linearGradient id="paint0_linear" x1="458.365" y1="200.635" x2="458.365" y2="84.0025" gradientUnits="userSpaceOnUse">
<stop stop-color="#808080" stop-opacity="0.25"/>
<stop offset="0.54" stop-color="#808080" stop-opacity="0.12"/>
<stop offset="1" stop-color="#808080" stop-opacity="0.1"/>
</linearGradient>
<linearGradient id="paint1_linear" x1="6433.8" y1="60568.4" x2="6433.8" y2="29102.9" gradientUnits="userSpaceOnUse">
<stop stop-color="#808080" stop-opacity="0.25"/>
<stop offset="0.54" stop-color="#808080" stop-opacity="0.12"/>
<stop offset="1" stop-color="#808080" stop-opacity="0.1"/>
</linearGradient>
<linearGradient id="paint2_linear" x1="103808" y1="75204.5" x2="103808" y2="48706" gradientUnits="userSpaceOnUse">
<stop stop-color="#808080" stop-opacity="0.25"/>
<stop offset="0.54" stop-color="#808080" stop-opacity="0.12"/>
<stop offset="1" stop-color="#808080" stop-opacity="0.1"/>
</linearGradient>
<linearGradient id="paint3_linear" x1="4538.05" y1="62292.7" x2="4538.05" y2="29635.4" gradientUnits="userSpaceOnUse">
<stop stop-color="#808080" stop-opacity="0.25"/>
<stop offset="0.54" stop-color="#808080" stop-opacity="0.12"/>
<stop offset="1" stop-color="#808080" stop-opacity="0.1"/>
</linearGradient>
<linearGradient id="paint4_linear" x1="69772.2" y1="53121.2" x2="69772.2" y2="41340.3" gradientUnits="userSpaceOnUse">
<stop stop-color="#808080" stop-opacity="0.25"/>
<stop offset="0.54" stop-color="#808080" stop-opacity="0.12"/>
<stop offset="1" stop-color="#808080" stop-opacity="0.1"/>
</linearGradient>
<linearGradient id="paint5_linear" x1="3835.67" y1="42584.3" x2="3835.67" y2="27972.7" gradientUnits="userSpaceOnUse">
<stop stop-color="#808080" stop-opacity="0.25"/>
<stop offset="0.54" stop-color="#808080" stop-opacity="0.12"/>
<stop offset="1" stop-color="#808080" stop-opacity="0.1"/>
</linearGradient>
<linearGradient id="paint6_linear" x1="63820.6" y1="53904.7" x2="63820.6" y2="41966" gradientUnits="userSpaceOnUse">
<stop stop-color="#808080" stop-opacity="0.25"/>
<stop offset="0.54" stop-color="#808080" stop-opacity="0.12"/>
<stop offset="1" stop-color="#808080" stop-opacity="0.1"/>
</linearGradient>
<linearGradient id="paint7_linear" x1="2850.5" y1="43001.2" x2="2850.5" y2="28288.5" gradientUnits="userSpaceOnUse">
<stop stop-color="#808080" stop-opacity="0.25"/>
<stop offset="0.54" stop-color="#808080" stop-opacity="0.12"/>
<stop offset="1" stop-color="#808080" stop-opacity="0.1"/>
</linearGradient>
<linearGradient id="paint8_linear" x1="82810.6" y1="65584.7" x2="82810.6" y2="31800.9" gradientUnits="userSpaceOnUse">
<stop stop-color="#808080" stop-opacity="0.25"/>
<stop offset="0.54" stop-color="#808080" stop-opacity="0.12"/>
<stop offset="1" stop-color="#808080" stop-opacity="0.1"/>
</linearGradient>
<linearGradient id="paint9_linear" x1="151011" y1="32270.3" x2="151011" y2="24803.7" gradientUnits="userSpaceOnUse">
<stop stop-color="#808080" stop-opacity="0.25"/>
<stop offset="0.54" stop-color="#808080" stop-opacity="0.12"/>
<stop offset="1" stop-color="#808080" stop-opacity="0.1"/>
</linearGradient>
<linearGradient id="paint10_linear" x1="41746.9" y1="123361" x2="41746.9" y2="3388.2" gradientUnits="userSpaceOnUse">
<stop stop-color="#808080" stop-opacity="0.25"/>
<stop offset="0.54" stop-color="#808080" stop-opacity="0.12"/>
<stop offset="1" stop-color="#808080" stop-opacity="0.1"/>
</linearGradient>
<linearGradient id="paint11_linear" x1="48342.5" y1="16261.9" x2="48342.5" y2="221.073" gradientUnits="userSpaceOnUse">
<stop stop-color="#808080" stop-opacity="0.25"/>
<stop offset="0.54" stop-color="#808080" stop-opacity="0.12"/>
<stop offset="1" stop-color="#808080" stop-opacity="0.1"/>
</linearGradient>
<linearGradient id="paint12_linear" x1="17178.5" y1="45523.2" x2="17178.5" y2="37334.2" gradientUnits="userSpaceOnUse">
<stop stop-color="#808080" stop-opacity="0.25"/>
<stop offset="0.54" stop-color="#808080" stop-opacity="0.12"/>
<stop offset="1" stop-color="#808080" stop-opacity="0.1"/>
</linearGradient>
<linearGradient id="paint13_linear" x1="481.71" y1="36103.4" x2="481.71" y2="25948.9" gradientUnits="userSpaceOnUse">
<stop stop-color="#808080" stop-opacity="0.25"/>
<stop offset="0.54" stop-color="#808080" stop-opacity="0.12"/>
<stop offset="1" stop-color="#808080" stop-opacity="0.1"/>
</linearGradient>
<linearGradient id="paint14_linear" x1="13887.5" y1="45523.2" x2="13887.5" y2="37334.2" gradientUnits="userSpaceOnUse">
<stop stop-color="#808080" stop-opacity="0.25"/>
<stop offset="0.54" stop-color="#808080" stop-opacity="0.12"/>
<stop offset="1" stop-color="#808080" stop-opacity="0.1"/>
</linearGradient>
<linearGradient id="paint15_linear" x1="258.398" y1="36103.4" x2="258.398" y2="25948.9" gradientUnits="userSpaceOnUse">
<stop stop-color="#808080" stop-opacity="0.25"/>
<stop offset="0.54" stop-color="#808080" stop-opacity="0.12"/>
<stop offset="1" stop-color="#808080" stop-opacity="0.1"/>
</linearGradient>
<linearGradient id="paint16_linear" x1="14039.1" y1="45919.4" x2="14039.1" y2="37621.5" gradientUnits="userSpaceOnUse">
<stop stop-color="#808080" stop-opacity="0.25"/>
<stop offset="0.54" stop-color="#808080" stop-opacity="0.12"/>
<stop offset="1" stop-color="#808080" stop-opacity="0.1"/>
</linearGradient>
<linearGradient id="paint17_linear" x1="278.581" y1="36193.4" x2="278.581" y2="25967.9" gradientUnits="userSpaceOnUse">
<stop stop-color="#808080" stop-opacity="0.25"/>
<stop offset="0.54" stop-color="#808080" stop-opacity="0.12"/>
<stop offset="1" stop-color="#808080" stop-opacity="0.1"/>
</linearGradient>
<linearGradient id="paint18_linear" x1="345.701" y1="216.181" x2="345.701" y2="3.12104" gradientUnits="userSpaceOnUse">
<stop stop-color="#B3B3B3" stop-opacity="0.25"/>
<stop offset="0.54" stop-color="#B3B3B3" stop-opacity="0.1"/>
<stop offset="1" stop-color="#B3B3B3" stop-opacity="0.05"/>
</linearGradient>
<linearGradient id="paint19_linear" x1="279.871" y1="79.1065" x2="279.871" y2="68.8481" gradientUnits="userSpaceOnUse">
<stop stop-opacity="0.12"/>
<stop offset="0.55" stop-opacity="0.09"/>
<stop offset="1" stop-opacity="0.02"/>
</linearGradient>
<linearGradient id="paint20_linear" x1="67131.3" y1="11805.2" x2="67131.3" y2="9970" gradientUnits="userSpaceOnUse">
<stop stop-opacity="0.12"/>
<stop offset="0.55" stop-opacity="0.09"/>
<stop offset="1" stop-opacity="0.02"/>
</linearGradient>
<clipPath id="clip0">
<rect width="517" height="261" fill="white"/>
</clipPath>
</defs>
</svg>
