<svg width="326" height="149" viewBox="0 0 326 149" fill="none" xmlns="http://www.w3.org/2000/svg">
<g clip-path="url(#clip0)">
<path d="M149 74.5C149.011 84.0704 147.174 93.553 143.588 102.426C143.58 102.446 143.573 102.464 143.564 102.484V102.486C141.154 108.428 137.984 114.032 134.133 119.158C133.39 120.15 132.624 121.121 131.834 122.072C131.545 122.42 131.252 122.766 130.959 123.108C129.449 124.86 127.86 126.539 126.193 128.144C125.805 128.519 125.413 128.889 125.016 129.255C124.924 129.341 124.831 129.425 124.739 129.511C122.797 131.285 120.763 132.955 118.644 134.514C117.222 135.566 115.763 136.564 114.267 137.51C113.938 137.719 113.608 137.925 113.275 138.127C112.697 138.48 112.115 138.824 111.527 139.161C110.76 139.602 109.983 140.028 109.197 140.441C108.88 140.611 108.56 140.774 108.241 140.937C107.773 141.178 107.304 141.409 106.83 141.636C106.748 141.676 106.667 141.715 106.585 141.753C106.277 141.903 105.964 142.048 105.651 142.194C101.575 144.074 97.3353 145.578 92.9857 146.688C92.9615 146.694 92.9394 146.699 92.9152 146.705C92.6309 146.778 92.3443 146.849 92.0578 146.917C91.844 146.97 91.628 147.021 91.412 147.069C91.3853 147.078 91.3581 147.085 91.3304 147.089C90.8874 147.193 90.4444 147.292 89.9969 147.382C89.7456 147.435 89.4944 147.488 89.2431 147.539C89.091 147.572 88.9367 147.6 88.7846 147.629C88.5929 147.667 88.4033 147.702 88.2116 147.739C88.1058 147.761 88 147.779 87.892 147.797C87.6495 147.841 87.407 147.885 87.1668 147.927C86.7568 147.997 86.3424 148.065 85.9303 148.127C85.6305 148.173 85.3329 148.218 85.0332 148.259C84.6805 148.31 84.3279 148.356 83.973 148.4C83.876 148.416 83.779 148.427 83.682 148.438C83.5564 148.453 83.4308 148.469 83.3051 148.484C83.0517 148.515 82.7982 148.544 82.5425 148.57C82.4103 148.586 82.2802 148.599 82.148 148.612C81.8967 148.639 81.6454 148.663 81.3942 148.685C81.0702 148.716 80.7461 148.742 80.4199 148.769C80.0232 148.799 79.6286 148.828 79.2297 148.852C78.974 148.868 78.7183 148.883 78.4604 148.896C77.8036 148.932 77.1468 148.956 76.4855 148.974C76.1571 148.982 75.8265 148.989 75.4959 148.993H75.4893C75.1608 148.998 74.8302 149 74.4996 149C71.1491 149.001 67.8023 148.778 64.4818 148.33C62.0462 148.004 59.6496 147.561 57.2919 147.003C57.1971 146.981 57.1023 146.959 57.0097 146.935C56.7717 146.88 56.5358 146.82 56.3 146.761C56.0906 146.708 55.8834 146.653 55.674 146.597C50.2775 145.193 45.0572 143.183 40.1128 140.604C40.0885 140.591 40.0621 140.578 40.0378 140.565C39.8946 140.49 39.7535 140.417 39.6124 140.34C39.3017 140.177 38.9923 140.011 38.6845 139.842C36.9322 138.879 35.2247 137.848 33.5621 136.752C33.1345 136.472 32.7113 136.187 32.2925 135.899C32.158 135.806 32.0258 135.713 31.8935 135.621C31.7547 135.524 31.6158 135.427 31.4792 135.33C31.1155 135.072 30.754 134.811 30.3947 134.547C28.9069 133.454 27.4632 132.307 26.0636 131.107C21.1026 126.858 16.7188 121.979 13.0239 116.592C11.7345 114.715 10.531 112.776 9.4135 110.778C3.22053 99.6911 -0.0209917 87.1993 -0.000390696 74.5C-0.000390696 33.3553 33.3549 0 74.4996 0C115.644 0 149 33.3553 149 74.5Z" fill="#227093"/>
<path opacity="0.2" d="M86.4795 146.935C86.7175 146.88 86.9534 146.82 87.1892 146.761C87.3986 146.708 87.6058 146.653 87.8152 146.597C87.8262 146.159 87.8417 145.676 87.8571 145.154C87.9871 141.063 88.2935 134.477 89.0165 126.542C89.0561 126.117 89.0958 125.688 89.1355 125.257C89.3934 122.568 89.6953 119.74 90.0568 116.808C90.0678 116.712 90.0811 116.617 90.0921 116.52C90.3852 114.144 90.7181 111.704 91.0928 109.217C91.3551 107.478 91.6386 105.72 91.9436 103.943C91.9656 103.819 91.9876 103.694 92.0097 103.57C92.0979 103.057 92.1882 102.545 92.2808 102.03C92.5387 100.595 92.8142 99.1511 93.1029 97.7074C94.1191 92.629 95.3291 87.5198 96.7728 82.5495C98.2394 77.3948 100.046 72.3429 102.18 67.4269C103.835 63.608 105.806 59.9341 108.073 56.4436C108.107 56.3929 108.14 56.3445 108.173 56.2938C111.071 51.9274 114.384 48.2222 118.166 45.4516L117.382 44.3804C113.758 47.0364 110.434 50.5703 107.41 54.9823C107.395 55.0043 107.381 55.0242 107.366 55.0462C105.092 58.4184 103.107 61.9768 101.432 65.6834C99.1901 70.6414 97.2987 75.7506 95.7722 80.9735C94.3262 85.8271 93.0295 91.0854 91.8818 96.7486C91.4785 98.7433 91.0935 100.787 90.7269 102.881C90.6652 103.238 90.6035 103.595 90.5417 103.954C90.5417 103.958 90.5395 103.965 90.5395 103.969C90.4448 104.52 90.3544 105.071 90.2618 105.629C90.0326 107.033 89.8166 108.426 89.6138 109.808C89.3008 111.937 89.0179 114.03 88.7652 116.086C88.6814 116.764 88.6006 117.438 88.5227 118.107C88.4125 119.05 88.3082 119.981 88.2098 120.899C88.0709 122.178 87.9438 123.429 87.8284 124.653L87.7954 124.99C87.7777 125.184 87.7601 125.378 87.7425 125.57C86.8476 135.222 86.5677 143.018 86.4795 146.935Z" fill="black"/>
<path opacity="0.2" d="M103.376 140.604C103.401 140.591 103.427 140.578 103.451 140.565C103.905 140.329 104.355 140.089 104.805 139.842C104.952 138.083 105.151 136.15 105.411 134.118C105.466 133.699 105.521 133.273 105.583 132.846C105.614 132.617 105.647 132.385 105.68 132.151C105.94 130.362 106.248 128.515 106.619 126.659C108.124 119.085 110.624 111.344 114.774 106.566C114.997 106.308 115.224 106.061 115.46 105.821C116.044 105.213 116.679 104.657 117.357 104.157L116.573 103.088C115.626 103.788 114.754 104.585 113.972 105.466C113.696 105.772 113.427 106.091 113.165 106.423C109.345 111.23 106.96 118.347 105.475 125.394C105.087 127.232 104.761 129.068 104.483 130.855C104.412 131.323 104.345 131.786 104.28 132.244C103.85 135.273 103.566 138.133 103.376 140.604Z" fill="black"/>
<path opacity="0.2" d="M125.578 45.4209C129.241 45.4209 132.21 42.4517 132.21 38.7889C132.21 35.1262 129.241 32.157 125.578 32.157C121.916 32.157 118.947 35.1262 118.947 38.7889C118.947 42.4517 121.916 45.4209 125.578 45.4209Z" fill="black"/>
<path opacity="0.2" d="M123.443 102.51C127.105 102.51 130.075 99.5408 130.075 95.878C130.075 92.2153 127.105 89.2461 123.443 89.2461C119.78 89.2461 116.811 92.2153 116.811 95.878C116.811 99.5408 119.78 102.51 123.443 102.51Z" fill="black"/>
<path opacity="0.2" d="M99.2493 49.9285C100.656 57.8628 97.5511 65.0472 97.5511 65.0472C97.5511 65.0472 92.1665 59.3675 90.7601 51.4332C89.3538 43.4988 92.4583 36.3145 92.4583 36.3145C92.4583 36.3145 97.843 41.9941 99.2493 49.9285Z" fill="black"/>
<path opacity="0.2" d="M121.29 68.7628C113.722 71.5301 106.117 69.7542 106.117 69.7542C106.117 69.7542 110.783 63.4917 118.351 60.7243C125.919 57.957 133.523 59.7329 133.523 59.7329C133.523 59.7329 128.858 65.9955 121.29 68.7628Z" fill="black"/>
<path opacity="0.2" d="M122.573 119.318C117.269 121.257 111.931 119.992 111.931 119.992C111.931 119.992 115.194 115.582 120.498 113.642C125.803 111.702 131.14 112.968 131.14 112.968C131.14 112.968 127.878 117.378 122.573 119.318Z" fill="black"/>
<path d="M96.9734 118.202L97.2423 118.341C97.2159 118.627 97.1519 118.803 96.9734 118.202Z" fill="#2F2E41"/>
<path d="M97.3289 118.294C97.3311 118.325 97.3355 118.358 97.3377 118.389L97.2423 118.34C97.2445 118.312 97.2467 118.281 97.2512 118.25C97.2734 117.864 97.2468 117.408 97.3289 118.294Z" fill="#2F2E41"/>
<path d="M68.6994 107.75C88.6888 107.75 104.893 91.545 104.893 71.5556C104.893 51.5662 88.6888 35.3616 68.6994 35.3616C48.71 35.3616 32.5054 51.5662 32.5054 71.5556C32.5054 91.545 48.71 107.75 68.6994 107.75Z" fill="#2F2E41"/>
<path d="M71.6789 106.274C83.7844 106.274 93.5978 96.4607 93.5978 84.3552C93.5978 72.2497 83.7844 62.4363 71.6789 62.4363C59.5733 62.4363 49.7599 72.2497 49.7599 84.3552C49.7599 96.4607 59.5733 106.274 71.6789 106.274Z" fill="#D0CDE1"/>
<path d="M121.728 126.366L121.702 126.372L116.604 127.596L105.988 130.143L104.54 130.492L88.3971 134.364L87.0261 134.695L47.8608 144.093C45.2132 143.081 42.6263 141.916 40.1132 140.604C40.089 140.591 40.0625 140.578 40.0383 140.565C39.895 140.49 39.7539 140.417 39.6129 140.34C39.3021 140.177 38.9928 140.011 38.6849 139.842C36.9326 138.878 35.2251 137.848 33.5625 136.752C33.1349 136.472 32.7117 136.187 32.2929 135.899C32.1585 135.806 32.0262 135.713 31.894 135.621C31.7551 135.524 31.6162 135.427 31.4796 135.33C31.1159 135.072 30.7544 134.811 30.3951 134.547C34.1995 127.633 43.2585 123.037 52.3175 120.522C59.1548 118.622 60.658 112.378 60.528 106.821C60.4949 105.554 60.3874 104.29 60.2062 103.035C59.93 101.038 59.4906 99.0663 58.8925 97.1409L80.8127 97.8726L83.0741 103.083C83.0122 103.656 82.9923 104.232 83.0146 104.807C83.1865 109.081 85.8249 111.845 89.0804 113.628C89.5036 113.859 89.9378 114.075 90.3786 114.276C95.7171 116.703 102.001 116.868 102.001 116.868C103.915 116.656 105.847 116.693 107.752 116.976C108.215 117.046 108.664 117.131 109.101 117.229C111.649 117.799 114.056 118.876 116.178 120.397C116.989 120.973 117.756 121.609 118.473 122.299C119.747 123.492 120.843 124.861 121.728 126.366Z" fill="#D0CDE1"/>
<path d="M125.017 129.255C124.924 129.341 124.832 129.425 124.739 129.511C122.797 131.285 120.763 132.955 118.645 134.514C117.223 135.566 115.764 136.564 114.267 137.51C113.939 137.719 113.608 137.925 113.275 138.127C112.698 138.48 112.115 138.824 111.527 139.161C110.76 139.602 109.984 140.028 109.198 140.441C108.88 140.611 108.561 140.774 108.241 140.937C107.774 141.177 107.304 141.409 106.83 141.636C106.749 141.676 106.667 141.715 106.586 141.753L105.653 140.979L116.603 127.596L118.805 124.904C118.805 124.904 119.685 124.904 121.702 126.372C122.816 127.202 123.87 128.111 124.854 129.092C124.906 129.147 124.962 129.2 125.017 129.255Z" fill="#D0CDE1"/>
<path d="M124.863 129.105C124.833 129.244 124.792 129.38 124.739 129.511C122.797 131.285 120.763 132.955 118.645 134.514C116.807 135.177 114.9 135.63 112.96 135.866C112.96 135.866 113.125 136.694 113.275 138.127C112.698 138.48 112.115 138.824 111.527 139.161C110.76 139.602 109.984 140.028 109.198 140.441C108.88 140.611 108.561 140.774 108.241 140.937C107.774 141.178 107.304 141.409 106.83 141.636C106.749 141.676 106.667 141.715 106.586 141.753C106.277 141.903 105.964 142.048 105.651 142.194C101.575 144.074 97.3358 145.578 92.9862 146.688C92.962 146.695 92.9399 146.699 92.9157 146.706C92.6313 146.778 92.3448 146.849 92.0583 146.917C91.8445 146.97 91.6285 147.021 91.4125 147.069C91.3858 147.078 91.3586 147.085 91.3309 147.089C90.8879 147.193 90.4448 147.292 89.9974 147.382C89.7461 147.435 89.4949 147.488 89.2436 147.539C89.0915 147.572 88.9372 147.6 88.7851 147.629C88.5934 147.667 88.4038 147.702 88.2121 147.739C88.1063 147.761 88.0005 147.779 87.8924 147.797C87.65 147.841 87.4075 147.885 87.1673 147.927C86.7573 147.997 86.3429 148.066 85.9308 148.127C85.631 148.174 85.3334 148.218 85.0337 148.259C84.681 148.31 84.3283 148.356 83.9735 148.401C83.8765 148.416 83.7795 148.427 83.6825 148.438C83.5569 148.453 83.4313 148.469 83.3056 148.484C83.0522 148.515 82.7987 148.544 82.543 148.57C82.4107 148.586 82.2807 148.599 82.1485 148.612C81.8972 148.639 81.6459 148.663 81.3946 148.685C81.0706 148.716 80.7466 148.742 80.4204 148.769C80.0237 148.799 79.6291 148.828 79.2302 148.852C78.9745 148.868 78.7188 148.883 78.4609 148.896C77.8041 148.932 77.1473 148.956 76.486 148.974C76.1576 148.982 75.827 148.989 75.4964 148.993H75.4897C75.1613 148.998 74.8307 149 74.5001 149C71.1496 149.001 67.8027 148.778 64.4822 148.33C62.0467 148.004 59.65 147.562 57.2923 147.003C57.1976 146.981 57.1028 146.959 57.0102 146.935C56.7722 146.88 56.5363 146.82 56.3005 146.761C56.0911 146.708 55.8839 146.653 55.6745 146.598C50.278 145.193 45.0577 143.183 40.1133 140.604C40.089 140.591 40.0626 140.578 40.0383 140.565C39.895 140.49 39.754 140.417 39.6129 140.34C51.7115 137.521 70.8302 133.075 87.4208 129.266C87.8858 129.161 88.348 129.055 88.8072 128.949C94.9347 127.543 100.674 126.233 105.53 125.138C106.033 125.026 106.525 124.915 107.007 124.807C112.224 123.635 116.275 122.744 118.473 122.299C119.065 122.164 119.664 122.059 120.267 121.984L124.854 129.092L124.863 129.105Z" fill="#2F2E41"/>
<path d="M35.5856 56.1539C41.5399 56.1539 46.3668 51.327 46.3668 45.3727C46.3668 39.4185 41.5399 34.5916 35.5856 34.5916C29.6313 34.5916 24.8044 39.4185 24.8044 45.3727C24.8044 51.327 29.6313 56.1539 35.5856 56.1539Z" fill="#2F2E41"/>
<path d="M101.813 53.0734C107.767 53.0734 112.594 48.2465 112.594 42.2922C112.594 36.3379 107.767 31.511 101.813 31.511C95.8586 31.511 91.0317 36.3379 91.0317 42.2922C91.0317 48.2465 95.8586 53.0734 101.813 53.0734Z" fill="#2F2E41"/>
<path d="M90.2617 37.6718C90.2621 35.0128 91.2451 32.4476 93.022 30.4693C94.7988 28.4911 97.244 27.2392 99.8878 26.9544C98.3822 26.7899 96.8588 26.9445 95.4169 27.4082C93.9751 27.8718 92.6471 28.634 91.5194 29.6451C90.3918 30.6563 89.4899 31.8937 88.8725 33.2767C88.255 34.6597 87.9359 36.1573 87.9359 37.6718C87.9359 39.1864 88.255 40.684 88.8725 42.067C89.4899 43.45 90.3918 44.6874 91.5194 45.6985C92.6471 46.7097 93.9751 47.4719 95.4169 47.9355C96.8588 48.3991 98.3822 48.5538 99.8878 48.3893C97.244 48.1044 94.7988 46.8526 93.022 44.8743C91.2451 42.8961 90.2621 40.3309 90.2617 37.6718Z" fill="#2F2E41"/>
<path d="M23.5394 54.0933C21.6787 52.1938 20.5856 49.6735 20.4702 47.017C20.3549 44.3604 21.2254 41.7549 22.9144 39.7012C21.7239 40.6374 20.744 41.814 20.0385 43.1543C19.3331 44.4945 18.918 45.9684 18.8202 47.4798C18.7224 48.9912 18.9442 50.5063 19.4711 51.9262C19.998 53.3462 20.8181 54.6392 21.8781 55.7211C22.9381 56.8029 24.2141 57.6492 25.6231 58.205C27.032 58.7607 28.5422 59.0133 30.0553 58.9464C31.5684 58.8795 33.0504 58.4945 34.4048 57.8166C35.7592 57.1386 36.9555 56.1829 37.9158 55.0117C35.8281 56.6585 33.2054 57.4757 30.5517 57.3062C27.898 57.1366 25.4006 55.9924 23.5394 54.0933Z" fill="#2F2E41"/>
<path d="M68.6993 54.6135C55.9402 54.6135 45.5968 60.6472 45.5968 68.09C45.5968 71.4203 47.6759 74.4639 51.1078 76.8152L55.5553 73.5927L54.3458 78.6412C54.8477 78.8737 55.3601 79.0988 55.8946 79.3069L62.5387 71.5554V81.0781C64.576 81.4045 66.6361 81.5678 68.6993 81.5665C81.4585 81.5665 91.8019 75.5329 91.8019 68.09C91.8019 60.6472 81.4585 54.6135 68.6993 54.6135Z" fill="#2F2E41"/>
<path d="M91.0318 42.2922C91.0318 42.2922 89.3574 49.9931 99.8206 53.0734L91.0318 42.2922Z" fill="#2F2E41"/>
<path d="M45.5968 43.6938C45.5968 43.6938 49.4473 52.3033 37.896 56.1538L45.5968 43.6938Z" fill="#2F2E41"/>
<path d="M51.3069 92.9606C52.2783 92.6886 52.5367 90.5782 51.884 88.2467C51.2313 85.9152 49.9147 84.2456 48.9433 84.5176C47.9718 84.7895 47.7134 86.9 48.3661 89.2315C49.0188 91.563 50.3354 93.2325 51.3069 92.9606Z" fill="#D0CDE1"/>
<path d="M95.7862 85.1982C95.935 82.7817 95.2394 80.7724 94.2326 80.7104C93.2257 80.6484 92.2888 82.5571 92.14 84.9736C91.9911 87.3902 92.6867 89.3994 93.6936 89.4614C94.7005 89.5234 95.6374 87.6147 95.7862 85.1982Z" fill="#D0CDE1"/>
</g>
<g clip-path="url(#clip1)">
<path d="M326 74.5C326.013 84.585 323.972 94.567 320 103.837L319.753 104.406C313.035 119.689 301.386 132.278 286.669 140.16C271.952 148.042 255.017 150.761 238.573 147.882C238.125 147.803 237.679 147.721 237.233 147.636C232.624 146.742 228.112 145.412 223.756 143.662C223.049 143.377 222.347 143.083 221.649 142.778C221.173 142.57 220.697 142.357 220.225 142.136C207.322 136.156 196.398 126.612 188.739 114.628C181.081 102.645 177.008 88.7216 177 74.5C177 33.3553 210.355 0 251.5 0C292.645 0 326 33.3553 326 74.5Z" fill="#227093"/>
<path opacity="0.2" d="M238.573 147.882C238.125 147.803 237.679 147.721 237.233 147.636C236.942 139.191 235.943 121.86 232.538 103.709C230.675 93.7751 228.09 83.592 224.504 74.4889C223.275 71.3391 221.872 68.2603 220.3 65.2667C216.677 58.4229 212.282 52.6613 206.952 48.7577L207.737 47.6865C212.169 50.9354 216.153 55.4965 219.688 61.3698C220.748 63.1287 221.766 65.0052 222.743 66.9992C223.789 69.1328 224.788 71.3979 225.738 73.7946C226.344 75.3198 226.93 76.898 227.495 78.5291C229.954 85.611 232.045 93.6914 233.768 102.77C234.149 104.776 234.512 106.831 234.856 108.935C237.526 125.239 238.33 140.313 238.573 147.882Z" fill="black"/>
<path opacity="0.2" d="M221.649 142.778C221.173 142.571 220.697 142.357 220.225 142.136C219.765 137.133 218.918 130.926 217.371 125.034C216.693 122.388 215.823 119.795 214.768 117.276C213.002 113.143 210.717 109.63 207.761 107.463L208.546 106.394C211.64 108.66 214.027 112.242 215.872 116.432C217.951 121.153 219.337 126.648 220.261 131.898C220.946 135.797 221.378 139.564 221.649 142.778Z" fill="black"/>
<path opacity="0.2" d="M199.54 48.727C203.203 48.727 206.172 45.7578 206.172 42.0951C206.172 38.4324 203.203 35.4631 199.54 35.4631C195.877 35.4631 192.908 38.4324 192.908 42.0951C192.908 45.7578 195.877 48.727 199.54 48.727Z" fill="black"/>
<path opacity="0.2" d="M201.676 105.816C205.338 105.816 208.308 102.847 208.308 99.1844C208.308 95.5217 205.338 92.5525 201.676 92.5525C198.013 92.5525 195.044 95.5217 195.044 99.1844C195.044 102.847 198.013 105.816 201.676 105.816Z" fill="black"/>
<path opacity="0.2" d="M225.869 53.2349C224.463 61.1692 227.567 68.3536 227.567 68.3536C227.567 68.3536 232.952 62.6739 234.358 54.7396C235.765 46.8052 232.66 39.6208 232.66 39.6208C232.66 39.6208 227.275 45.3005 225.869 53.2349Z" fill="black"/>
<path opacity="0.2" d="M203.828 72.069C211.396 74.8363 219.001 73.0604 219.001 73.0604C219.001 73.0604 214.336 66.7978 206.768 64.0305C199.2 61.2632 191.595 63.0391 191.595 63.0391C191.595 63.0391 196.26 69.3017 203.828 72.069Z" fill="black"/>
<path opacity="0.2" d="M202.545 122.624C207.849 124.563 213.187 123.298 213.187 123.298C213.187 123.298 209.925 118.888 204.62 116.948C199.316 115.009 193.978 116.274 193.978 116.274C193.978 116.274 197.241 120.684 202.545 122.624Z" fill="black"/>
<path d="M251.347 90.9979C267.388 90.9979 280.391 77.9945 280.391 61.9539C280.391 45.9134 267.388 32.9099 251.347 32.9099C235.307 32.9099 222.303 45.9134 222.303 61.9539C222.303 77.9945 235.307 90.9979 251.347 90.9979Z" fill="#D0CDE1"/>
<path d="M240.002 84.1905C240.002 84.1905 243.632 101.435 243.632 103.251C243.632 105.066 260.877 113.235 260.877 113.235L276.307 110.512L281.752 94.1744C281.752 94.1744 272.676 80.56 272.676 75.1143L240.002 84.1905Z" fill="#D0CDE1"/>
<path d="M320 103.837L319.753 104.406C313.035 119.689 301.386 132.278 286.669 140.16C271.952 148.042 255.017 150.761 238.573 147.883C238.125 147.803 237.679 147.721 237.233 147.636C232.624 146.742 228.112 145.412 223.756 143.662C223.049 143.377 222.346 143.083 221.649 142.778C221.173 142.571 220.697 142.357 220.225 142.136C215.95 140.156 211.872 137.773 208.047 135.021L204.605 125.034L206.54 123.558L210.521 120.518L214.768 117.276L215.872 116.432L232.538 103.709L233.768 102.77L242.43 96.158L242.432 96.1558C242.432 96.1558 251.8 111.419 265.415 106.881C279.03 102.343 278.732 89.3296 278.732 89.3296L320 103.837Z" fill="#2F2E41"/>
<path d="M226.16 38.5539C226.16 38.5539 235.382 18.5742 253.056 23.1849C270.73 27.7956 280.72 34.7116 281.488 41.6277C282.257 48.5437 281.104 58.9177 281.104 58.9177C281.104 58.9177 279.183 44.7014 266.888 47.7752C254.593 50.849 235.382 48.5437 235.382 48.5437L232.308 76.2078C232.308 76.2078 228.85 71.2129 225.008 74.2867C221.165 77.3604 213.865 44.7014 226.16 38.5539Z" fill="#2F2E41"/>
<path d="M223.756 143.662C223.049 143.377 222.347 143.083 221.649 142.778C221.173 142.571 220.697 142.357 220.225 142.136C213.154 138.857 206.64 134.492 200.919 129.198C202.945 126.438 204.605 125.034 204.605 125.034H218.22L220.261 131.898L223.756 143.662Z" fill="#2F2E41"/>
<path d="M308.074 102.343L319.753 104.406C316.628 111.526 312.406 118.114 307.243 123.928L308.074 102.343Z" fill="#2F2E41"/>
</g>
<defs>
<clipPath id="clip0">
<rect width="149" height="149" fill="white"/>
</clipPath>
<clipPath id="clip1">
<rect width="149" height="149" fill="white" transform="translate(177)"/>
</clipPath>
</defs>
</svg>
