<svg width="243" height="498" viewBox="0 0 243 498" fill="none" xmlns="http://www.w3.org/2000/svg">
<path d="M119.206 0.46393C119.206 0.46393 85.1453 -0.91577 84.2247 34.0365C83.3041 68.9889 84.2247 98.8823 84.2247 98.8823H152.346V35.8762C152.346 35.8762 150.966 2.76342 119.206 0.46393Z" fill="#2F2E41"/>
<path d="M105.911 62.7543C105.911 62.7543 107.933 85.653 101.192 87.6735C94.4517 89.694 103.888 118.654 103.888 118.654L130.851 124.716L146.354 93.7349L139.613 84.9795C139.613 84.9795 128.154 69.4892 133.547 58.7133C138.939 47.9375 105.911 62.7543 105.911 62.7543Z" fill="#FFB9B9"/>
<path opacity="0.1" d="M105.911 62.7543C105.911 62.7543 107.933 85.653 101.192 87.6735C94.4517 89.694 103.888 118.654 103.888 118.654L130.851 124.716L146.354 93.7349L139.613 84.9795C139.613 84.9795 128.154 69.4892 133.547 58.7133C138.939 47.9375 105.911 62.7543 105.911 62.7543Z" fill="black"/>
<path d="M115.347 73.5304C129.866 73.5304 141.635 61.7706 141.635 47.2642C141.635 32.7578 129.866 20.998 115.347 20.998C100.829 20.998 89.0593 32.7578 89.0593 47.2642C89.0593 61.7706 100.829 73.5304 115.347 73.5304Z" fill="#FFB9B9"/>
<path d="M12.8913 137.512C12.8913 137.512 -3.28598 149.635 1.43239 159.064C6.15076 168.493 20.3059 200.82 20.3059 200.82C20.3059 200.82 23.0021 225.739 34.461 224.392C45.9199 223.045 34.461 198.126 34.461 198.126L20.3059 159.737L25.0243 152.329L12.8913 137.512Z" fill="#FFB9B9"/>
<path d="M231.284 141.553C231.284 141.553 249.484 155.696 238.699 161.084C227.914 166.472 182.078 192.065 182.078 192.065C182.078 192.065 154.442 212.943 151.072 196.779C147.702 180.616 169.271 181.289 169.271 181.289C169.271 181.289 212.411 155.023 214.433 149.635C216.455 144.247 231.284 141.553 231.284 141.553Z" fill="#FFB9B9"/>
<path d="M70.8599 233.821C70.8599 233.821 62.0972 281.639 66.8156 308.579C69.5933 325.348 69.1357 342.493 65.4674 359.091L91.7555 361.785C91.7555 361.785 108.607 262.108 118.044 262.782C127.48 263.455 147.702 363.132 147.702 363.132L176.012 359.091C176.012 359.091 167.249 314.64 171.294 301.171C175.338 287.701 172.642 239.209 162.531 233.821C152.42 228.433 70.8599 233.821 70.8599 233.821Z" fill="#575A89"/>
<path d="M94.4516 359.091C94.4516 359.091 64.1192 348.988 61.423 356.397C58.7268 363.805 59.4009 446.645 60.0749 452.033C60.749 457.42 62.7711 454.727 60.7489 457.42C58.7268 460.114 58.7268 454.053 59.4009 461.461C60.0749 468.87 60.749 470.217 60.749 470.217C60.749 470.217 48.616 498.503 70.1857 497.83C91.7554 497.156 81.6446 476.952 81.6446 476.952C81.6446 476.952 85.0149 470.89 82.9927 467.523C80.9705 464.155 80.2965 458.767 82.9927 456.073C85.6889 453.379 80.2965 447.992 79.6224 445.971C78.9484 443.951 76.9263 444.624 82.3187 437.889C87.7111 431.154 85.0149 427.787 84.3408 425.766C83.6668 423.746 89.0592 411.623 89.0592 411.623L94.4516 359.091Z" fill="#2F2E41"/>
<path d="M145.68 359.091C145.68 359.091 176.012 348.988 178.708 356.397C181.405 363.805 180.73 446.645 180.056 452.033C179.382 457.42 177.36 454.727 179.382 457.42C181.405 460.114 181.405 454.053 180.73 461.461C180.056 468.87 179.382 470.217 179.382 470.217C179.382 470.217 191.515 498.503 169.946 497.83C148.376 497.156 158.487 476.952 158.487 476.952C158.487 476.952 155.116 470.89 157.139 467.523C159.161 464.155 159.835 458.767 157.139 456.073C154.442 453.379 159.835 447.992 160.509 445.971C161.183 443.951 163.205 444.624 157.813 437.889C152.42 431.154 155.116 427.787 155.79 425.766C156.465 423.746 151.072 411.623 151.072 411.623L145.68 359.091Z" fill="#2F2E41"/>
<path d="M116.695 109.225C116.695 109.225 111.977 95.082 109.281 92.388C106.585 89.6941 104.835 82.7228 104.835 82.7228C104.835 82.7228 89.7333 88.3471 85.689 89.6941C81.6447 91.0411 68.1636 91.0411 68.1636 93.0615V136.165C68.1636 136.165 66.8155 144.92 69.5117 167.146C72.208 189.371 80.2966 202.841 70.8599 212.27C61.4231 221.698 69.5118 244.597 74.2301 248.638C78.9485 252.679 170.62 273.557 171.294 224.392C171.294 224.392 149.05 185.33 158.487 172.534C167.923 159.737 176.012 138.185 176.012 138.185V95.082C176.012 95.082 161.183 90.3675 156.464 89.6941C151.746 89.0206 140.287 76.2243 138.939 76.8977C137.591 77.5712 134.986 76.8721 134.986 76.8721L134.895 86.3266L116.695 109.225Z" fill="#227093"/>
<path d="M77.6004 96.429L68.1637 93.0615C68.1637 93.0615 56.7048 99.1229 56.7048 100.47C56.7048 101.817 49.9643 107.878 46.594 110.572C43.2237 113.266 33.787 113.94 33.787 115.287C33.787 116.634 4.12869 138.185 6.8249 141.553C9.52112 144.92 18.2838 157.043 23.0021 157.043C27.7205 157.043 39.1795 144.92 41.2016 144.247C43.2238 143.573 64.1194 130.777 70.8599 132.798C77.6005 134.818 77.6004 96.429 77.6004 96.429Z" fill="#227093"/>
<path d="M163.205 97.776L176.012 95.082C176.012 95.082 200.278 113.266 200.952 113.94C201.626 114.613 239.373 138.859 237.351 143.573C235.329 148.288 213.759 155.023 208.367 153.002C202.974 150.982 180.056 134.145 171.294 136.165C162.531 138.186 163.205 97.776 163.205 97.776Z" fill="#227093"/>
<path d="M143.321 38.8453C146.521 25.4161 145.212 21.849 145.212 21.849L104.247 11.7312L89.9783 25.5282V39.785L91.4185 44.2332C91.4185 44.2332 97.3427 39.785 95.0413 33.3464C95.0413 33.3465 141.019 48.5032 143.321 38.8453Z" fill="#2F2E41"/>
<path d="M143.831 31.3283L139.95 35.478C146.071 35.552 137.919 84.7667 140.624 92.7248L150.735 92.9547V27.3994L143.831 31.3283Z" fill="#2F2E41"/>
<path d="M90.0703 47.6009C91.1871 47.6009 92.0925 45.6409 92.0925 43.2232C92.0925 40.8054 91.1871 38.8455 90.0703 38.8455C88.9534 38.8455 88.0481 40.8054 88.0481 43.2232C88.0481 45.6409 88.9534 47.6009 90.0703 47.6009Z" fill="#FFB9B9"/>
<path d="M141.972 47.6009C143.089 47.6009 143.994 45.6409 143.994 43.2232C143.994 40.8054 143.089 38.8455 141.972 38.8455C140.856 38.8455 139.95 40.8054 139.95 43.2232C139.95 45.6409 140.856 47.6009 141.972 47.6009Z" fill="#FFB9B9"/>
</svg>
