<svg width="887" height="671" viewBox="0 0 887 671" fill="none" xmlns="http://www.w3.org/2000/svg">
<path d="M662.206 172.464C662.206 172.464 628.145 171.084 627.225 206.037C626.304 240.989 627.225 270.882 627.225 270.882H695.346V207.876C695.346 207.876 693.966 174.763 662.206 172.464Z" fill="#2F2E41"/>
<path d="M648.911 234.754C648.911 234.754 650.933 257.653 644.192 259.674C637.452 261.694 646.888 290.654 646.888 290.654L673.851 296.716L689.354 265.735L682.613 256.98C682.613 256.98 671.154 241.489 676.547 230.713C681.939 219.937 648.911 234.754 648.911 234.754Z" fill="#FFB9B9"/>
<path opacity="0.1" d="M648.911 234.754C648.911 234.754 650.933 257.653 644.192 259.674C637.452 261.694 646.888 290.654 646.888 290.654L673.851 296.716L689.354 265.735L682.613 256.98C682.613 256.98 671.154 241.489 676.547 230.713C681.939 219.937 648.911 234.754 648.911 234.754Z" fill="black"/>
<path d="M658.347 245.53C672.866 245.53 684.635 233.771 684.635 219.264C684.635 204.758 672.866 192.998 658.347 192.998C643.829 192.998 632.059 204.758 632.059 219.264C632.059 233.771 643.829 245.53 658.347 245.53Z" fill="#FFB9B9"/>
<path d="M555.891 309.512C555.891 309.512 539.714 321.635 544.432 331.064C549.151 340.493 563.306 372.82 563.306 372.82C563.306 372.82 566.002 397.739 577.461 396.392C588.92 395.045 577.461 370.126 577.461 370.126L563.306 331.737L568.024 324.329L555.891 309.512Z" fill="#FFB9B9"/>
<path d="M774.284 313.553C774.284 313.553 792.484 327.696 781.699 333.084C770.914 338.472 725.078 364.065 725.078 364.065C725.078 364.065 697.442 384.943 694.072 368.779C690.702 352.616 712.271 353.289 712.271 353.289C712.271 353.289 755.411 327.023 757.433 321.635C759.455 316.247 774.284 313.553 774.284 313.553Z" fill="#FFB9B9"/>
<path d="M613.86 405.821C613.86 405.821 605.097 453.639 609.816 480.579C612.593 497.348 612.136 514.493 608.467 531.091L634.755 533.785C634.755 533.785 651.607 434.108 661.044 434.782C670.48 435.455 690.702 535.132 690.702 535.132L719.012 531.091C719.012 531.091 710.249 486.64 714.294 473.171C718.338 459.701 715.642 411.209 705.531 405.821C695.42 400.433 613.86 405.821 613.86 405.821Z" fill="#575A89"/>
<path d="M637.452 531.091C637.452 531.091 607.119 520.988 604.423 528.397C601.727 535.805 602.401 618.645 603.075 624.033C603.749 629.42 605.771 626.727 603.749 629.42C601.727 632.114 601.727 626.053 602.401 633.461C603.075 640.87 603.749 642.217 603.749 642.217C603.749 642.217 591.616 670.503 613.186 669.83C634.755 669.156 624.645 648.952 624.645 648.952C624.645 648.952 628.015 642.89 625.993 639.523C623.971 636.155 623.296 630.767 625.993 628.073C628.689 625.379 623.296 619.992 622.622 617.971C621.948 615.951 619.926 616.624 625.319 609.889C630.711 603.154 628.015 599.787 627.341 597.766C626.667 595.746 632.059 583.623 632.059 583.623L637.452 531.091Z" fill="#2F2E41"/>
<path d="M688.68 531.091C688.68 531.091 719.012 520.988 721.708 528.397C724.405 535.805 723.73 618.645 723.056 624.033C722.382 629.42 720.36 626.727 722.382 629.42C724.405 632.114 724.405 626.053 723.73 633.461C723.056 640.87 722.382 642.217 722.382 642.217C722.382 642.217 734.515 670.503 712.946 669.83C691.376 669.156 701.487 648.952 701.487 648.952C701.487 648.952 698.116 642.89 700.139 639.523C702.161 636.155 702.835 630.767 700.139 628.073C697.442 625.38 702.835 619.992 703.509 617.971C704.183 615.951 706.205 616.624 700.813 609.889C695.42 603.154 698.116 599.787 698.79 597.766C699.465 595.746 694.072 583.623 694.072 583.623L688.68 531.091Z" fill="#2F2E41"/>
<path d="M659.695 281.225C659.695 281.225 654.977 267.082 652.281 264.388C649.585 261.694 647.835 254.723 647.835 254.723C647.835 254.723 632.733 260.347 628.689 261.694C624.645 263.041 611.164 263.041 611.164 265.062V308.165C611.164 308.165 609.816 316.92 612.512 339.146C615.208 361.371 623.297 374.841 613.86 384.27C604.423 393.698 612.512 416.597 617.23 420.638C621.948 424.679 713.62 445.557 714.294 396.392C714.294 396.392 692.05 357.33 701.487 344.534C710.923 331.737 719.012 310.185 719.012 310.185V267.082C719.012 267.082 704.183 262.368 699.464 261.694C694.746 261.021 683.287 248.224 681.939 248.898C680.591 249.571 677.986 248.872 677.986 248.872L677.895 258.327L659.695 281.225Z" fill="#227093"/>
<path d="M620.6 268.429L611.164 265.062C611.164 265.062 599.705 271.123 599.705 272.47C599.705 273.817 592.964 279.878 589.594 282.572C586.224 285.266 576.787 285.94 576.787 287.287C576.787 288.634 547.129 310.185 549.825 313.553C552.521 316.92 561.284 329.043 566.002 329.043C570.721 329.043 582.179 316.92 584.202 316.247C586.224 315.573 607.119 302.777 613.86 304.798C620.6 306.818 620.6 268.429 620.6 268.429Z" fill="#227093"/>
<path d="M706.205 269.776L719.012 267.082C719.012 267.082 743.278 285.266 743.952 285.94C744.626 286.613 782.373 310.859 780.351 315.573C778.329 320.288 756.759 327.023 751.367 325.002C745.974 322.982 723.056 306.145 714.294 308.165C705.531 310.186 706.205 269.776 706.205 269.776Z" fill="#227093"/>
<path d="M686.321 210.845C689.521 197.416 688.212 193.849 688.212 193.849L647.247 183.731L632.978 197.528V211.785L634.418 216.233C634.418 216.233 640.343 211.785 638.041 205.346C638.041 205.346 684.019 220.503 686.321 210.845Z" fill="#2F2E41"/>
<path d="M686.831 203.328L682.95 207.478C689.071 207.552 680.919 256.767 683.624 264.725L693.735 264.955V199.399L686.831 203.328Z" fill="#2F2E41"/>
<path d="M633.07 219.601C634.187 219.601 635.092 217.641 635.092 215.223C635.092 212.805 634.187 210.845 633.07 210.845C631.953 210.845 631.048 212.805 631.048 215.223C631.048 217.641 631.953 219.601 633.07 219.601Z" fill="#FFB9B9"/>
<path d="M684.972 219.601C686.089 219.601 686.994 217.641 686.994 215.223C686.994 212.805 686.089 210.845 684.972 210.845C683.856 210.845 682.95 212.805 682.95 215.223C682.95 217.641 683.856 219.601 684.972 219.601Z" fill="#FFB9B9"/>
<path d="M887 669.012H0V670.723H887V669.012Z" fill="#3F3D56"/>
</svg>
